<svg width="32" height="33" viewBox="0 0 32 33" fill="none" xmlns="http://www.w3.org/2000/svg">
<path d="M28.3166 29.4998V19.0493L28.5224 18.0202C29.0435 15.4113 29.3093 12.7579 29.3162 10.0975L30.8667 6.22142C31.0248 5.82181 31.0415 5.38016 30.914 4.96975C30.7865 4.55935 30.5225 4.20487 30.1658 3.96517L30.1303 3.94148C29.0018 3.18633 27.6746 2.7832 26.3167 2.7832C24.9589 2.7832 23.6317 3.18633 22.5032 3.94148L22.4677 3.96517C22.111 4.20486 21.847 4.55933 21.7195 4.96974C21.5921 5.38015 21.6088 5.82182 21.7669 6.22142L23.3173 10.0976C23.3242 12.758 23.59 15.4113 24.1111 18.0202L24.3169 19.0494V29.4998C24.3169 30.0302 24.5276 30.5389 24.9027 30.914C25.2778 31.2891 25.7865 31.4998 26.3169 31.4998C26.8473 31.4998 27.356 31.2891 27.7311 30.914C28.1062 30.5389 28.3169 30.0302 28.3169 29.4998H28.3166ZM24.1551 9.49979L22.6952 5.84979C22.6213 5.6633 22.6135 5.45717 22.673 5.26563C22.7325 5.07409 22.8557 4.90865 23.0222 4.79679L23.0577 4.77311C24.022 4.12781 25.1562 3.78334 26.3166 3.78334C27.4769 3.78334 28.6111 4.12781 29.5754 4.77311L29.611 4.79679C29.7775 4.90864 29.9007 5.07406 29.9602 5.2656C30.0197 5.45714 30.012 5.66328 29.9382 5.84979L28.4781 9.49979H27.4265L27.8068 7.59786C27.8201 7.53331 27.8205 7.46677 27.808 7.40207C27.7955 7.33737 27.7703 7.27578 27.7339 7.22085C27.6975 7.16591 27.6506 7.11871 27.5959 7.08197C27.5412 7.04522 27.4798 7.01965 27.4152 7.00672C27.3506 6.9938 27.284 6.99378 27.2194 7.00666C27.1548 7.01954 27.0933 7.04506 27.0386 7.08177C26.9839 7.11848 26.9369 7.16565 26.9005 7.22056C26.8641 7.27547 26.8388 7.33704 26.8263 7.40173L26.407 9.49979H26.2268L25.807 7.40173C25.7944 7.33704 25.7692 7.27547 25.7327 7.22056C25.6963 7.16565 25.6494 7.11848 25.5947 7.08177C25.5399 7.04506 25.4785 7.01954 25.4138 7.00666C25.3492 6.99378 25.2827 6.9938 25.2181 7.00672C25.1534 7.01965 25.092 7.04522 25.0373 7.08197C24.9826 7.11871 24.9357 7.16591 24.8993 7.22085C24.8629 7.27578 24.8377 7.33737 24.8252 7.40207C24.8127 7.46677 24.8131 7.53331 24.8264 7.59786L25.207 9.49979H24.1551ZM27.3166 29.4998C27.3166 29.765 27.2112 30.0194 27.0237 30.2069C26.8362 30.3944 26.5818 30.4998 26.3166 30.4998C26.0514 30.4998 25.797 30.3944 25.6095 30.2069C25.4219 30.0194 25.3166 29.765 25.3166 29.4998V19.4998H27.3166V29.4998ZM27.407 18.4998H25.2265L25.0913 17.824C24.6093 15.4116 24.3509 12.9598 24.3195 10.4998H28.3132C28.3007 11.5003 28.2501 12.5003 28.1615 13.4998H26.8166C26.684 13.4998 26.5568 13.5525 26.463 13.6462C26.3693 13.74 26.3166 13.8672 26.3166 13.9998C26.3166 14.1324 26.3693 14.2596 26.463 14.3533C26.5568 14.4471 26.684 14.4998 26.8166 14.4998H28.061C27.9344 15.6154 27.7614 16.7235 27.5418 17.824L27.407 18.4998Z" fill="#6E7191"/>
<path d="M20.9615 16.6267L19.9807 16.2999C19.8117 16.2436 19.6316 16.2282 19.4554 16.255C19.2792 16.2819 19.1119 16.3503 18.9673 16.4545C18.8226 16.5587 18.7049 16.6958 18.6236 16.8545C18.5424 17.0131 18.5 17.1888 18.5 17.367V22.4999C18.3674 22.4999 18.2402 22.5526 18.1464 22.6464C18.0527 22.7401 18 22.8673 18 22.9999V30.9999C18 31.1325 18.0527 31.2597 18.1464 31.3535C18.2402 31.4472 18.3674 31.4999 18.5 31.4999H22.5C22.6326 31.4999 22.7598 31.4472 22.8536 31.3535C22.9473 31.2597 23 31.1325 23 30.9999V22.9999C23 22.8673 22.9473 22.7401 22.8536 22.6464C22.7598 22.5526 22.6326 22.4999 22.5 22.4999V18.7613C22.5004 18.2889 22.352 17.8285 22.0758 17.4453C21.7996 17.0621 21.4097 16.7757 20.9615 16.6267ZM19.5 17.367C19.5 17.3472 19.5047 17.3277 19.5137 17.31C19.5227 17.2924 19.5358 17.2771 19.5519 17.2655C19.5679 17.2539 19.5865 17.2463 19.6061 17.2433C19.6257 17.2403 19.6458 17.242 19.6646 17.2483L20.6453 17.5752C20.8943 17.6579 21.111 17.8171 21.2644 18.03C21.4178 18.243 21.5003 18.4988 21.5 18.7613V22.4999H19.5V17.367ZM22 30.4999H19V25.4999H22V30.4999ZM22 24.4999H19V23.4999H22V24.4999Z" fill="#6E7191"/>
<path d="M1 27V27.25C1.00127 28.3768 1.44945 29.4571 2.2462 30.2538C3.04296 31.0506 4.12322 31.4988 5.25 31.5H12.75C13.8768 31.4988 14.957 31.0506 15.7538 30.2538C16.5506 29.4571 16.9987 28.3768 17 27.25V27C17 26.8674 16.9473 26.7403 16.8536 26.6465C16.7598 26.5527 16.6326 26.5 16.5 26.5H15.325C15.8309 25.4331 16.0587 24.2555 15.9871 23.0768C15.9156 21.8982 15.547 20.7568 14.9158 19.7589C14.2846 18.761 13.4111 17.9389 12.3768 17.3693C11.3424 16.7997 10.1808 16.501 9 16.501C7.81918 16.501 6.65756 16.7997 5.62322 17.3693C4.58888 17.9389 3.71544 18.761 3.0842 19.7589C2.45295 20.7568 2.08441 21.8982 2.01286 23.0768C1.94132 24.2555 2.16909 25.4331 2.675 26.5H1.5C1.36739 26.5 1.24021 26.5527 1.14645 26.6465C1.05268 26.7403 1 26.8674 1 27ZM9 17.5C10.0532 17.5001 11.0878 17.7774 11.9999 18.3041C12.9119 18.8307 13.6693 19.5881 14.196 20.5001C14.7226 21.4122 14.9999 22.4468 15 23.5C15.0001 24.5532 14.723 25.5879 14.1966 26.5H13.0017C13.5588 25.7571 13.8981 24.8736 13.9815 23.9487C14.0648 23.0237 13.889 22.0939 13.4736 21.2632C13.0583 20.4326 12.4199 19.734 11.6299 19.2458C10.8399 18.7576 9.92953 18.499 9.00084 18.499C8.07216 18.499 7.16182 18.7576 6.37183 19.2458C5.58184 19.734 4.9434 20.4326 4.52805 21.2632C4.11271 22.0939 3.93686 23.0237 4.02022 23.9487C4.10357 24.8736 4.44284 25.7571 5 26.5H3.80344C3.27699 25.5879 2.9999 24.5532 3 23.5C3.00011 22.4468 3.2774 21.4122 3.80403 20.5001C4.33065 19.5881 5.08806 18.8307 6.00013 18.3041C6.9122 17.7774 7.94681 17.5001 9 17.5ZM9.70269 19.5631C10.116 19.6364 10.5152 19.7749 10.8851 19.9733L6.01963 26.1658C5.77988 25.8978 5.57734 25.5988 5.4175 25.2767L9.70269 19.5631ZM5.04675 24.1044C4.96555 23.5786 4.99022 23.0419 5.11932 22.5258C5.24843 22.0097 5.47936 21.5246 5.79855 21.099C6.11774 20.6734 6.51876 20.3158 6.97805 20.0473C7.43734 19.7789 7.94565 19.6049 8.47313 19.5356L5.04675 24.1044ZM11.7014 20.553C12.1109 20.9287 12.438 21.3852 12.6621 21.8938C12.6621 21.8938 9.06925 26.472 9.05475 26.5H7.02875L11.7014 20.553ZM7.5 27.5H10.5C10.6326 27.5 10.7598 27.5527 10.8536 27.6465C10.9473 27.7403 11 27.8674 11 28C11 28.1326 10.9473 28.2598 10.8536 28.3536C10.7598 28.4474 10.6326 28.5 10.5 28.5H7.5C7.36739 28.5 7.24021 28.4474 7.14645 28.3536C7.05268 28.2598 7 28.1326 7 28C7 27.8674 7.05268 27.7403 7.14645 27.6465C7.24021 27.5527 7.36739 27.5 7.5 27.5ZM10.3145 26.5L12.9805 23.1069C12.993 23.2364 13 23.3674 13 23.5C13.0011 24.0678 12.8806 24.6293 12.6469 25.1467C12.4131 25.6641 12.0713 26.1256 11.6445 26.5H10.3145ZM6.086 27.5C6.0059 27.7263 5.98126 27.9684 6.01417 28.2061C6.04708 28.4439 6.13656 28.6702 6.27511 28.8662C6.41365 29.0622 6.59721 29.222 6.81036 29.3323C7.0235 29.4426 7.26001 29.5001 7.5 29.5H10.5C10.74 29.5001 10.9764 29.4426 11.1896 29.3324C11.4027 29.2221 11.5862 29.0623 11.7248 28.8664C11.8633 28.6705 11.9528 28.4442 11.9858 28.2065C12.0187 27.9688 11.9942 27.7267 11.9141 27.5005L11.9162 27.5H15.9905C15.9265 28.3159 15.5575 29.0778 14.957 29.6338C14.3564 30.1898 13.5684 30.4991 12.75 30.5H5.25C4.43159 30.4991 3.6436 30.1898 3.04304 29.6338C2.44248 29.0778 2.07345 28.3159 2.0095 27.5H6.086Z" fill="#6E7191"/>
<path d="M15.2227 8.9163L16.024 9.45049C16.4094 9.70772 16.7211 10.0609 16.9284 10.4753L17.0528 10.7242C17.0944 10.8072 17.1582 10.877 17.2372 10.9259C17.3162 10.9747 17.4072 11.0005 17.5 11.0005C17.5929 11.0005 17.6839 10.9747 17.7629 10.9259C17.8419 10.877 17.9057 10.8072 17.9472 10.7242L18.0717 10.4753C18.279 10.0609 18.5907 9.70758 18.9761 9.4503L19.7774 8.91611C19.8553 8.86419 19.917 8.79145 19.9556 8.70617C19.9942 8.62088 20.0081 8.52648 19.9956 8.43371C19.9832 8.34094 19.945 8.25351 19.8853 8.18139C19.8257 8.10926 19.747 8.05533 19.6582 8.02574C19.2665 7.89416 18.9107 7.67367 18.6186 7.38154C18.3265 7.08942 18.106 6.7336 17.9744 6.34199C17.9412 6.24241 17.8776 6.15579 17.7924 6.09441C17.7073 6.03303 17.605 6 17.5 6C17.3951 6 17.2928 6.03303 17.2076 6.09441C17.1225 6.15579 17.0588 6.24241 17.0257 6.34199C16.8941 6.7336 16.6736 7.08942 16.3815 7.38154C16.0893 7.67367 15.7335 7.89416 15.3419 8.02574C15.2531 8.05533 15.1744 8.10926 15.1147 8.18139C15.0551 8.25351 15.0169 8.34094 15.0044 8.43371C14.992 8.52648 15.0059 8.62088 15.0444 8.70617C15.083 8.79145 15.1448 8.86419 15.2227 8.91611V8.9163ZM17.5 7.59824C17.7689 7.9813 18.1081 8.30984 18.4995 8.56642L18.4214 8.61849C18.0652 8.85612 17.7534 9.15431 17.5 9.49955C17.2467 9.15423 16.9349 8.85597 16.5787 8.6183L16.5006 8.56624C16.892 8.30971 17.2311 7.98123 17.5 7.59824Z" fill="#6E7191"/>
<path d="M14.1582 11.0257C13.7665 10.8942 13.4107 10.6737 13.1186 10.3815C12.8265 10.0894 12.606 9.7336 12.4744 9.34199C12.4412 9.24241 12.3776 9.15579 12.2924 9.09441C12.2073 9.03303 12.105 9 12 9C11.8951 9 11.7928 9.03303 11.7076 9.09441C11.6225 9.15579 11.5588 9.24241 11.5257 9.34199C11.3941 9.7336 11.1736 10.0894 10.8815 10.3815C10.5893 10.6737 10.2335 10.8942 9.8419 11.0257C9.7531 11.0553 9.67439 11.1093 9.61473 11.1814C9.55507 11.2535 9.51685 11.3409 9.50443 11.4337C9.492 11.5265 9.50587 11.6209 9.54445 11.7062C9.58303 11.7914 9.64477 11.8642 9.72265 11.9161L10.524 12.4503C10.9094 12.7075 11.2211 13.0607 11.4284 13.4751L11.5528 13.724C11.5944 13.807 11.6582 13.8769 11.7372 13.9257C11.8162 13.9745 11.9072 14.0003 12 14.0003C12.0929 14.0003 12.1839 13.9745 12.2629 13.9257C12.3419 13.8769 12.4057 13.807 12.4472 13.724L12.5717 13.4751C12.779 13.0607 13.0907 12.7074 13.4761 12.4501L14.2774 11.9159C14.3553 11.864 14.417 11.7913 14.4556 11.706C14.4942 11.6207 14.5081 11.5263 14.4956 11.4335C14.4832 11.3407 14.445 11.2533 14.3853 11.1812C14.3257 11.1091 14.247 11.0551 14.1582 11.0255V11.0257ZM12.9214 11.6183C12.5652 11.8559 12.2534 12.1541 12 12.4994C11.7467 12.154 11.4349 11.8558 11.0787 11.6181L11.0006 11.566C11.392 11.3095 11.7311 10.981 12 10.598C12.2689 10.9811 12.6081 11.3097 12.9995 11.5662L12.9214 11.6183Z" fill="#6E7191"/>
<path d="M15.4761 4.95011L16.2774 4.41592C16.3552 4.36399 16.4169 4.29125 16.4555 4.20599C16.494 4.12074 16.5079 4.02637 16.4955 3.93363C16.483 3.84089 16.4448 3.7535 16.3852 3.68139C16.3256 3.60929 16.2469 3.55536 16.1582 3.52574C15.7665 3.39416 15.4107 3.17367 15.1186 2.88154C14.8265 2.58942 14.606 2.2336 14.4744 1.84199C14.4412 1.74241 14.3776 1.65579 14.2924 1.59441C14.2073 1.53303 14.105 1.5 14 1.5C13.8951 1.5 13.7928 1.53303 13.7076 1.59441C13.6225 1.65579 13.5588 1.74241 13.5257 1.84199C13.3941 2.2336 13.1736 2.58942 12.8815 2.88154C12.5893 3.17367 12.2335 3.39416 11.8419 3.52574C11.7531 3.55533 11.6744 3.60926 11.6147 3.68139C11.5551 3.75351 11.5169 3.84093 11.5044 3.93371C11.492 4.02648 11.5059 4.12088 11.5444 4.20617C11.583 4.29145 11.6448 4.36419 11.7227 4.41611L12.524 4.95011C12.9094 5.20739 13.2211 5.56066 13.4284 5.97511L13.5528 6.22398C13.5944 6.30702 13.6582 6.37686 13.7372 6.42567C13.8162 6.47447 13.9072 6.50033 14 6.50033C14.0929 6.50033 14.1839 6.47447 14.2629 6.42567C14.3419 6.37686 14.4057 6.30702 14.4472 6.22398L14.5717 5.97511C14.779 5.56066 15.0907 5.20739 15.4761 4.95011ZM14 4.99936C13.7467 4.65404 13.4349 4.35578 13.0787 4.11811L13.0006 4.06605C13.392 3.80952 13.7311 3.48104 14 3.09805C14.2689 3.48111 14.6081 3.80965 14.9995 4.06624L14.9214 4.1183C14.5652 4.35593 14.2534 4.65412 14 4.99936Z" fill="#6E7191"/>
</svg>
