<svg width="24" height="25" viewBox="0 0 24 25" fill="none" xmlns="http://www.w3.org/2000/svg">
<g clip-path="url(#clip0_165_5518)">
<path d="M22.751 7.47533C22.6792 7.40017 22.5797 7.35742 22.4755 7.35742H11.4279C11.3237 7.35742 11.2242 7.40017 11.1524 7.47533C11.0804 7.5505 11.0424 7.65201 11.0473 7.75619L11.3225 13.6728C11.3322 13.8827 11.5133 14.0483 11.7207 14.0356C11.9309 14.0259 12.0934 13.8473 12.0837 13.6371L11.827 8.11936H22.0767L21.3502 23.7383H12.7947C12.5843 23.7383 12.4137 23.9086 12.4137 24.1193C12.4137 24.3299 12.5843 24.5002 12.7947 24.5002H21.7137C21.9172 24.5002 22.0847 24.3402 22.0942 24.1371L22.8561 7.75619C22.8609 7.65201 22.823 7.5505 22.751 7.47533Z" fill="#6E7191"/>
<path d="M15.6186 21.4521H1.90441C1.69403 21.4521 1.52344 21.6225 1.52344 21.8331C1.52344 23.3033 2.71969 24.4998 4.19011 24.4998H13.3329C14.8033 24.4998 15.9996 23.3033 15.9996 21.8331C15.9995 21.6225 15.829 21.4521 15.6186 21.4521ZM13.3329 23.7378H4.19011C3.27019 23.7378 2.5005 23.0823 2.32366 22.214H15.1994C15.0224 23.0823 14.2527 23.7378 13.3329 23.7378Z" fill="#6E7191"/>
<path d="M15.6189 19.167H1.90468C1.06451 19.167 0.380859 19.8504 0.380859 20.6908C0.380859 21.5312 1.06445 22.2146 1.90468 22.2146H15.6189C16.4591 22.2146 17.1427 21.5312 17.1427 20.6908C17.1427 19.8504 16.4591 19.167 15.6189 19.167ZM15.6189 21.4527H1.90468C1.48448 21.4527 1.1428 21.1108 1.1428 20.6908C1.1428 20.2708 1.48454 19.9289 1.90468 19.9289H15.6189C16.0391 19.9289 16.3808 20.2708 16.3808 20.6908C16.3808 21.1108 16.039 21.4527 15.6189 21.4527Z" fill="#6E7191"/>
<path d="M16.7615 11.9287C15.0234 11.9287 13.5066 13.1029 13.0728 14.7837C13.0201 14.9876 13.1427 15.1951 13.3464 15.2479C13.5505 15.3001 13.7578 15.178 13.8105 14.9741C14.1574 13.6295 15.3708 12.6906 16.7615 12.6906C18.442 12.6906 19.8091 14.0577 19.8091 15.7382C19.8091 17.4186 18.442 18.7858 16.7615 18.7858C16.412 18.7858 16.0697 18.7274 15.7444 18.612C15.5463 18.5425 15.3283 18.6456 15.2582 18.8439C15.1879 19.0421 15.2917 19.2598 15.49 19.3301C15.8972 19.4744 16.325 19.5477 16.7616 19.5477C18.8622 19.5477 20.571 17.8387 20.571 15.7382C20.571 13.6377 18.8622 11.9287 16.7615 11.9287Z" fill="#6E7191"/>
<path d="M9.5234 13.0713H7.99958C4.42856 13.0713 1.52344 15.9764 1.52344 19.5474C1.52344 19.758 1.69403 19.9284 1.90441 19.9284H15.6186C15.829 19.9284 15.9996 19.758 15.9996 19.5474C15.9995 15.9765 13.0944 13.0713 9.5234 13.0713ZM2.29799 19.1665C2.49475 16.1925 4.97671 13.8332 7.99958 13.8332H9.5234C12.5463 13.8332 15.0282 16.1925 15.225 19.1665H2.29799Z" fill="#6E7191"/>
<path d="M5.71501 15.3574H4.95312V16.1193H5.71501V15.3574Z" fill="#6E7191"/>
<path d="M5.33415 16.8809H4.57227V17.6427H5.33415V16.8809Z" fill="#6E7191"/>
<path d="M9.90446 14.9761H9.14258V15.738H9.90446V14.9761Z" fill="#6E7191"/>
<path d="M12.1896 16.8809H11.4277V17.6427H12.1896V16.8809Z" fill="#6E7191"/>
<path d="M8.76188 17.2617H8V18.0236H8.76188V17.2617Z" fill="#6E7191"/>
<path d="M23.2376 5.8335H10.2853C10.0749 5.8335 9.9043 6.00386 9.9043 6.21446V7.73828C9.9043 7.94883 10.0749 8.11925 10.2853 8.11925H23.2376C23.448 8.11925 23.6186 7.94888 23.6186 7.73828V6.21446C23.6186 6.00386 23.448 5.8335 23.2376 5.8335ZM22.8566 7.35726H10.6662V6.59538H22.8566V7.35726Z" fill="#6E7191"/>
<path d="M13.3242 6.13533L12.1814 0.802046C12.1373 0.59669 11.9351 0.464995 11.729 0.509693C11.5233 0.55361 11.3922 0.756343 11.4363 0.96209L12.5791 6.29537C12.6174 6.47394 12.7755 6.59632 12.9513 6.59632C12.9777 6.59632 13.0047 6.59364 13.0315 6.58773C13.2373 6.54381 13.3684 6.34102 13.3242 6.13533Z" fill="#6E7191"/>
</g>
<defs>
<clipPath id="clip0_165_5518">
<rect width="24" height="24" fill="white" transform="translate(0 0.5)"/>
</clipPath>
</defs>
</svg>
