<svg width="72" height="72" viewBox="0 0 72 72" fill="none" xmlns="http://www.w3.org/2000/svg">
<path d="M0 36C0 16.1178 16.1178 0 36 0C55.8823 0 72 16.1178 72 36C72 55.8823 55.8823 72 36 72C16.1178 72 0 55.8823 0 36Z" fill="#FFFBFB"/>
<path d="M45 36.22C45 30.73 40.74 27 36 27C31.31 27 27 30.65 27 36.28C26.4 36.62 26 37.26 26 38V40C26 41.1 26.9 42 28 42H29V35.9C29 32.03 32.13 28.9 36 28.9C39.87 28.9 43 32.03 43 35.9V43H35V45H43C44.1 45 45 44.1 45 43V41.78C45.59 41.47 46 40.86 46 40.14V37.84C46 37.14 45.59 36.53 45 36.22Z" fill="#E93821"/>
<path d="M33 38C33.5523 38 34 37.5523 34 37C34 36.4477 33.5523 36 33 36C32.4477 36 32 36.4477 32 37C32 37.5523 32.4477 38 33 38Z" fill="#E93821"/>
<path d="M39 38C39.5523 38 40 37.5523 40 37C40 36.4477 39.5523 36 39 36C38.4477 36 38 36.4477 38 37C38 37.5523 38.4477 38 39 38Z" fill="#E93821"/>
<path d="M42 35.03C41.52 32.18 39.04 30 36.05 30C33.02 30 29.76 32.51 30.02 36.45C32.49 35.44 34.35 33.24 34.88 30.56C36.19 33.19 38.88 35 42 35.03Z" fill="#E93821"/>
</svg>
