<svg width="57" height="56" viewBox="0 0 57 56" fill="none" xmlns="http://www.w3.org/2000/svg">
<rect x="0.5" width="56" height="56" rx="28" fill="#E7F9E8"/>
<path d="M37.8333 16H19.1667C17.7 16 16.5 17.2 16.5 18.6667V37.3333C16.5 38.8 17.7 40 19.1667 40H37.8333C39.3 40 40.5 38.8 40.5 37.3333V18.6667C40.5 17.2 39.3 16 37.8333 16ZM24.5 34.6667H21.8333V28H24.5V34.6667ZM29.8333 34.6667H27.1667V30.6667H29.8333V34.6667ZM29.8333 28H27.1667V25.3333H29.8333V28ZM35.1667 34.6667H32.5V21.3333H35.1667V34.6667Z" fill="#6FCF97"/>
</svg>
