<svg width="40" height="40" viewBox="0 0 40 40" fill="none" xmlns="http://www.w3.org/2000/svg">
<rect width="40" height="40" rx="20" fill="#FFF7DD"/>
<path d="M26.06 30.99H27.72C28.56 30.99 29.25 30.35 29.35 29.53L31 13.05H26V9H24.03V13.05H19.06L19.36 15.39C21.07 15.86 22.67 16.71 23.63 17.65C25.07 19.07 26.06 20.54 26.06 22.94V30.99ZM9 29.99V29H24.03V29.99C24.03 30.54 23.58 30.99 23.02 30.99H10.01C9.45 30.99 9 30.54 9 29.99ZM24.03 22.99C24.03 14.99 9 14.99 9 22.99H24.03ZM9.02 25H24.02V27H9.02V25Z" fill="#F2C94C"/>
</svg>
