<svg width="40" height="40" viewBox="0 0 40 40" fill="none" xmlns="http://www.w3.org/2000/svg">
<rect width="40" height="40" rx="20" fill="#E7F9E8"/>
<path d="M29 20.22C29 14.73 24.74 11 20 11C15.31 11 11 14.65 11 20.28C10.4 20.62 10 21.26 10 22V24C10 25.1 10.9 26 12 26H13V19.9C13 16.03 16.13 12.9 20 12.9C23.87 12.9 27 16.03 27 19.9V27H19V29H27C28.1 29 29 28.1 29 27V25.78C29.59 25.47 30 24.86 30 24.14V21.84C30 21.14 29.59 20.53 29 20.22Z" fill="#6FCF97"/>
<path d="M17 22C17.5523 22 18 21.5523 18 21C18 20.4477 17.5523 20 17 20C16.4477 20 16 20.4477 16 21C16 21.5523 16.4477 22 17 22Z" fill="#6FCF97"/>
<path d="M23 22C23.5523 22 24 21.5523 24 21C24 20.4477 23.5523 20 23 20C22.4477 20 22 20.4477 22 21C22 21.5523 22.4477 22 23 22Z" fill="#6FCF97"/>
<path d="M26 19.03C25.52 16.18 23.04 14 20.05 14C17.02 14 13.76 16.51 14.02 20.45C16.49 19.44 18.35 17.24 18.88 14.56C20.19 17.19 22.88 19 26 19.03Z" fill="#6FCF97"/>
</svg>
