<svg width="40" height="40" viewBox="0 0 40 40" fill="none" xmlns="http://www.w3.org/2000/svg">
<rect width="40" height="40" rx="20" fill="#E7F9E8"/>
<g clip-path="url(#clip0_18_1298)">
<path d="M31.3813 25.618C31.4446 25.2927 31.4238 24.9225 31.3168 24.5372C30.6154 22.0106 28.5166 16.8376 26.7725 14.7071C26.3148 14.148 25.4332 14.1963 24.922 14.7071C24.6971 14.9321 24.5722 15.2186 24.5455 15.5125C24.4086 15.3858 24.2349 15.2984 24.0433 15.2734C24.0433 15.2734 19.6197 14.7221 19.5661 14.7291H17.5544C16.8989 14.7291 16.7071 15.1093 16.7071 15.5765V22.0342H15.2307V15.1091C15.2307 14.7665 14.9519 14.4877 14.6093 14.4877H8.62138C8.27877 14.4877 8 14.7665 8 15.1091C8 15.1091 8.00215 24.8334 8.00215 25.4624C8.00215 26.1849 8.58788 26.7706 9.31037 26.7706H10.5941C10.5278 27.0407 10.492 27.3226 10.492 27.6129C10.492 29.562 12.0779 31.1476 14.0273 31.1476C15.9766 31.1476 17.5624 29.562 17.5624 27.6129C17.5624 27.3226 17.5265 27.0407 17.4603 26.7706H21.4169V27.6374C21.4169 28.3226 21.9743 28.8801 22.6596 28.8801H22.6834C23.0148 28.8801 23.326 28.7502 23.5595 28.5143C23.793 28.2784 23.9197 27.966 23.9164 27.6346L23.9076 26.7706H25.0318C24.9655 27.0407 24.9296 27.3226 24.9296 27.6129C24.9296 29.562 26.5156 31.1476 28.465 31.1476C30.4142 31.1476 32.0001 29.562 32.0001 27.6129C32 26.8733 31.7712 26.1862 31.3813 25.618ZM28.4649 26.2788C29.2005 26.2788 29.7989 26.8773 29.7989 27.6129C29.7989 28.3485 29.2005 28.947 28.4649 28.947C27.729 28.947 27.1303 28.3485 27.1303 27.6129C27.1303 26.8773 27.7289 26.2788 28.4649 26.2788ZM15.3613 27.6129C15.3613 28.3485 14.7629 28.947 14.0273 28.947C13.2914 28.947 12.6927 28.3485 12.6927 27.6129C12.6927 26.8773 13.2914 26.2788 14.0273 26.2788C14.7629 26.2788 15.3613 26.8773 15.3613 27.6129ZM23.861 22.2247C23.854 21.541 23.2921 20.9848 22.6084 20.9848H20.5405V16.7621L21.5517 16.8863C21.634 17.2645 21.9702 17.5479 22.373 17.5479H25.9125L26.1868 19.8337L23.8676 22.8701L23.861 22.2247Z" fill="#6FCF97"/>
<path d="M18.3162 13.8237C19.6868 13.8237 20.8019 12.7086 20.8019 11.338C20.8019 11.1637 20.7836 10.9936 20.7493 10.8294L21.2947 10.8186C21.6196 10.8122 21.9698 10.586 22.1093 10.2924L22.2922 9.90753C22.379 9.72467 22.3745 9.53374 22.2796 9.38365C22.1848 9.23367 22.0146 9.14764 21.8107 9.14764L19.5001 9.153C19.1479 8.96139 18.7445 8.85254 18.3162 8.85254C16.9456 8.85254 15.8306 9.96752 15.8306 11.3381C15.8306 12.7086 16.9457 13.8237 18.3162 13.8237Z" fill="#6FCF97"/>
</g>
<defs>
<clipPath id="clip0_18_1298">
<rect width="24" height="24" fill="white" transform="translate(8 8)"/>
</clipPath>
</defs>
</svg>
