<svg width="48" height="48" viewBox="0 0 48 48" fill="none" xmlns="http://www.w3.org/2000/svg">
<rect width="48" height="48" rx="24" fill="#FFF7DD"/>
<path d="M24 12C17.3829 12 12 17.3829 12 24C12 30.6171 17.3829 36 24 36C30.6171 36 36 30.6171 36 24C36 17.3829 30.6171 12 24 12ZM29.707 30.2069C29.512 30.4019 29.256 30.5001 29.0001 30.5001C28.7441 30.5001 28.4879 30.4019 28.2931 30.2069L23.293 25.207C23.105 25.0201 23.0001 24.7659 23.0001 24.5001V18C23.0001 17.447 23.4479 17.0001 24 17.0001C24.5521 17.0001 24.9999 17.447 24.9999 18V24.0861L29.707 28.793C30.098 29.1841 30.098 29.816 29.707 30.2069Z" fill="#F2C94C"/>
</svg>
