<svg width="343" height="148" viewBox="0 0 343 148" fill="none" xmlns="http://www.w3.org/2000/svg">
<rect width="48" height="48" rx="24" fill="#FCE8E8"/>
<path d="M30.06 34.99H31.72C32.56 34.99 33.25 34.35 33.35 33.53L35 17.05H30V13H28.03V17.05H23.06L23.36 19.39C25.07 19.86 26.67 20.71 27.63 21.65C29.07 23.07 30.06 24.54 30.06 26.94V34.99ZM13 33.99V33H28.03V33.99C28.03 34.54 27.58 34.99 27.02 34.99H14.01C13.45 34.99 13 34.54 13 33.99ZM28.03 26.99C28.03 18.99 13 18.99 13 26.99H28.03ZM13.02 29H28.02V31H13.02V29Z" fill="#E93821"/>
<path d="M12.9886 76.4545C12.9886 77.8651 12.7244 79.0732 12.196 80.0788C11.6719 81.0803 10.956 81.8473 10.0483 82.38C9.14489 82.9126 8.12003 83.179 6.97372 83.179C5.82741 83.179 4.80043 82.9126 3.89276 82.38C2.98935 81.843 2.27344 81.0739 1.74503 80.0724C1.22088 79.0668 0.958807 77.8608 0.958807 76.4545C0.958807 75.044 1.22088 73.8381 1.74503 72.8366C2.27344 71.831 2.98935 71.0618 3.89276 70.5291C4.80043 69.9964 5.82741 69.7301 6.97372 69.7301C8.12003 69.7301 9.14489 69.9964 10.0483 70.5291C10.956 71.0618 11.6719 71.831 12.196 72.8366C12.7244 73.8381 12.9886 75.044 12.9886 76.4545ZM10.6044 76.4545C10.6044 75.4616 10.4489 74.6243 10.1378 73.9425C9.83097 73.2564 9.40483 72.7386 8.85938 72.3892C8.31392 72.0355 7.68537 71.8587 6.97372 71.8587C6.26207 71.8587 5.63352 72.0355 5.08807 72.3892C4.54261 72.7386 4.11435 73.2564 3.80327 73.9425C3.49645 74.6243 3.34304 75.4616 3.34304 76.4545C3.34304 77.4474 3.49645 78.2869 3.80327 78.973C4.11435 79.6548 4.54261 80.1726 5.08807 80.5263C5.63352 80.8757 6.26207 81.0504 6.97372 81.0504C7.68537 81.0504 8.31392 80.8757 8.85938 80.5263C9.40483 80.1726 9.83097 79.6548 10.1378 78.973C10.4489 78.2869 10.6044 77.4474 10.6044 76.4545ZM15.1284 83V73.1818H17.372V74.8182H17.4743C17.6532 74.2514 17.96 73.8146 18.3947 73.5078C18.8336 73.1967 19.3343 73.0412 19.8968 73.0412C20.0247 73.0412 20.1674 73.0476 20.3251 73.0604C20.487 73.0689 20.6213 73.0838 20.7278 73.1051V75.2337C20.6298 75.1996 20.4743 75.1697 20.2612 75.1442C20.0524 75.1143 19.85 75.0994 19.6539 75.0994C19.2321 75.0994 18.8528 75.1911 18.5162 75.3743C18.1838 75.5533 17.9217 75.8026 17.7299 76.1222C17.5382 76.4418 17.4423 76.8104 17.4423 77.228V83H15.1284ZM25.5043 83.1726C24.733 83.1726 24.0426 82.9744 23.4332 82.5781C22.8239 82.1818 22.3423 81.6065 21.9886 80.8523C21.6349 80.098 21.4581 79.1818 21.4581 78.1037C21.4581 77.0128 21.6371 76.0923 21.995 75.3423C22.3572 74.5881 22.8452 74.0192 23.4588 73.6357C24.0724 73.2479 24.7564 73.054 25.5107 73.054C26.0859 73.054 26.5589 73.152 26.9297 73.348C27.3004 73.5398 27.5945 73.772 27.8118 74.0447C28.0291 74.3132 28.1974 74.5668 28.3168 74.8054H28.4126V69.9091H30.733V83H28.4574V81.4531H28.3168C28.1974 81.6918 28.0249 81.9453 27.799 82.2138C27.5732 82.478 27.2749 82.7038 26.9041 82.8913C26.5334 83.0788 26.0668 83.1726 25.5043 83.1726ZM26.1499 81.2741C26.6399 81.2741 27.0575 81.142 27.4027 80.8778C27.7479 80.6094 28.0099 80.2365 28.1889 79.7592C28.3679 79.282 28.4574 78.7259 28.4574 78.0909C28.4574 77.456 28.3679 76.9041 28.1889 76.4354C28.0142 75.9666 27.7543 75.6023 27.4091 75.3423C27.0682 75.0824 26.6484 74.9524 26.1499 74.9524C25.6342 74.9524 25.2038 75.0866 24.8587 75.3551C24.5135 75.6236 24.2536 75.9943 24.0788 76.4673C23.9041 76.9403 23.8168 77.4815 23.8168 78.0909C23.8168 78.7045 23.9041 79.2521 24.0788 79.7337C24.2578 80.2109 24.5199 80.5881 24.8651 80.8651C25.2145 81.1378 25.6428 81.2741 26.1499 81.2741ZM37.5453 83.1918C36.5609 83.1918 35.7108 82.9872 34.9949 82.5781C34.2832 82.1648 33.7356 81.581 33.3521 80.8267C32.9686 80.0682 32.7768 79.1754 32.7768 78.1484C32.7768 77.1385 32.9686 76.2521 33.3521 75.4893C33.7399 74.7223 34.2811 74.1257 34.9757 73.6996C35.6703 73.2692 36.4863 73.054 37.4238 73.054C38.0289 73.054 38.6 73.152 39.1369 73.348C39.6781 73.5398 40.1554 73.8381 40.5687 74.2429C40.9863 74.6477 41.3145 75.1634 41.5531 75.7898C41.7917 76.4119 41.911 77.1534 41.911 78.0142V78.7237H33.8635V77.1641H39.693C39.6887 76.7209 39.5929 76.3267 39.4054 75.9815C39.2179 75.6321 38.9558 75.3572 38.6191 75.157C38.2868 74.9567 37.899 74.8565 37.4558 74.8565C36.9828 74.8565 36.5673 74.9716 36.2093 75.2017C35.8514 75.4276 35.5723 75.7259 35.372 76.0966C35.176 76.4631 35.0758 76.8658 35.0716 77.3047V78.6662C35.0716 79.2372 35.176 79.7273 35.3848 80.1364C35.5936 80.5412 35.8855 80.8523 36.2605 81.0696C36.6355 81.2827 37.0744 81.3892 37.5772 81.3892C37.9139 81.3892 38.2186 81.3423 38.4913 81.2486C38.764 81.1506 39.0005 81.0078 39.2008 80.8203C39.4011 80.6328 39.5524 80.4006 39.6547 80.1236L41.8152 80.3665C41.6788 80.9375 41.4189 81.4361 41.0353 81.8622C40.6561 82.2841 40.1703 82.6122 39.5779 82.8466C38.9856 83.0767 38.3081 83.1918 37.5453 83.1918ZM43.8686 83V73.1818H46.1122V74.8182H46.2145C46.3935 74.2514 46.7003 73.8146 47.1349 73.5078C47.5739 73.1967 48.0746 73.0412 48.6371 73.0412C48.7649 73.0412 48.9077 73.0476 49.0653 73.0604C49.2273 73.0689 49.3615 73.0838 49.468 73.1051V75.2337C49.37 75.1996 49.2145 75.1697 49.0014 75.1442C48.7926 75.1143 48.5902 75.0994 48.3942 75.0994C47.9723 75.0994 47.593 75.1911 47.2564 75.3743C46.924 75.5533 46.6619 75.8026 46.4702 76.1222C46.2784 76.4418 46.1825 76.8104 46.1825 77.228V83H43.8686ZM64.3423 74.0895C64.2358 73.7443 64.0888 73.4354 63.9013 73.1626C63.718 72.8857 63.4964 72.6491 63.2365 72.4531C62.9808 72.2571 62.6868 72.1101 62.3544 72.0121C62.022 71.9098 61.6598 71.8587 61.2678 71.8587C60.5646 71.8587 59.9382 72.0355 59.3885 72.3892C58.8388 72.7429 58.4063 73.2628 58.0909 73.9489C57.7798 74.6307 57.6243 75.4616 57.6243 76.4418C57.6243 77.4304 57.7798 78.2678 58.0909 78.9538C58.402 79.6399 58.8345 80.1619 59.3885 80.5199C59.9425 80.8736 60.5859 81.0504 61.3189 81.0504C61.9837 81.0504 62.5589 80.9226 63.0447 80.6669C63.5348 80.4112 63.9119 80.049 64.1761 79.5803C64.4403 79.1072 64.5724 78.5533 64.5724 77.9183L65.1094 78.0014H61.5554V76.1477H66.8672V77.7202C66.8672 78.8409 66.6286 79.8104 66.1513 80.6286C65.674 81.4467 65.0178 82.0774 64.1825 82.5206C63.3473 82.9595 62.3885 83.179 61.3061 83.179C60.1001 83.179 59.0412 82.9084 58.1293 82.3672C57.2216 81.8217 56.5121 81.0483 56.0007 80.0469C55.4936 79.0412 55.2401 77.848 55.2401 76.4673C55.2401 75.4105 55.3892 74.4666 55.6875 73.6357C55.9901 72.8047 56.4119 72.0994 56.9531 71.5199C57.4943 70.9361 58.1293 70.4929 58.858 70.1903C59.5866 69.8835 60.3793 69.7301 61.2358 69.7301C61.9602 69.7301 62.6357 69.8366 63.2621 70.0497C63.8885 70.2585 64.4446 70.5568 64.9304 70.9446C65.4205 71.3324 65.8232 71.7926 66.1385 72.3253C66.4538 72.858 66.6605 73.446 66.7585 74.0895H64.3423ZM73.3407 83.1918C72.3819 83.1918 71.551 82.9808 70.8478 82.5589C70.1447 82.1371 69.5993 81.5469 69.2115 80.7884C68.8279 80.0298 68.6362 79.1435 68.6362 78.1293C68.6362 77.1151 68.8279 76.2266 69.2115 75.4638C69.5993 74.701 70.1447 74.1087 70.8478 73.6868C71.551 73.2649 72.3819 73.054 73.3407 73.054C74.2995 73.054 75.1305 73.2649 75.8336 73.6868C76.5368 74.1087 77.0801 74.701 77.4636 75.4638C77.8514 76.2266 78.0453 77.1151 78.0453 78.1293C78.0453 79.1435 77.8514 80.0298 77.4636 80.7884C77.0801 81.5469 76.5368 82.1371 75.8336 82.5589C75.1305 82.9808 74.2995 83.1918 73.3407 83.1918ZM73.3535 81.3381C73.8734 81.3381 74.3081 81.1953 74.6575 80.9098C75.0069 80.62 75.2669 80.2322 75.4373 79.7464C75.612 79.2607 75.6994 78.7195 75.6994 78.1229C75.6994 77.522 75.612 76.9787 75.4373 76.4929C75.2669 76.0028 75.0069 75.6129 74.6575 75.3232C74.3081 75.0334 73.8734 74.8885 73.3535 74.8885C72.8208 74.8885 72.3777 75.0334 72.024 75.3232C71.6745 75.6129 71.4125 76.0028 71.2377 76.4929C71.0673 76.9787 70.9821 77.522 70.9821 78.1229C70.9821 78.7195 71.0673 79.2607 71.2377 79.7464C71.4125 80.2322 71.6745 80.62 72.024 80.9098C72.3777 81.1953 72.8208 81.3381 73.3535 81.3381ZM84.2919 83.1918C83.3331 83.1918 82.5021 82.9808 81.799 82.5589C81.0959 82.1371 80.5504 81.5469 80.1626 80.7884C79.7791 80.0298 79.5874 79.1435 79.5874 78.1293C79.5874 77.1151 79.7791 76.2266 80.1626 75.4638C80.5504 74.701 81.0959 74.1087 81.799 73.6868C82.5021 73.2649 83.3331 73.054 84.2919 73.054C85.2507 73.054 86.0817 73.2649 86.7848 73.6868C87.4879 74.1087 88.0313 74.701 88.4148 75.4638C88.8026 76.2266 88.9964 77.1151 88.9964 78.1293C88.9964 79.1435 88.8026 80.0298 88.4148 80.7884C88.0313 81.5469 87.4879 82.1371 86.7848 82.5589C86.0817 82.9808 85.2507 83.1918 84.2919 83.1918ZM84.3047 81.3381C84.8246 81.3381 85.2592 81.1953 85.6087 80.9098C85.9581 80.62 86.218 80.2322 86.3885 79.7464C86.5632 79.2607 86.6506 78.7195 86.6506 78.1229C86.6506 77.522 86.5632 76.9787 86.3885 76.4929C86.218 76.0028 85.9581 75.6129 85.6087 75.3232C85.2592 75.0334 84.8246 74.8885 84.3047 74.8885C83.772 74.8885 83.3288 75.0334 82.9751 75.3232C82.6257 75.6129 82.3636 76.0028 82.1889 76.4929C82.0185 76.9787 81.9332 77.522 81.9332 78.1229C81.9332 78.7195 82.0185 79.2607 82.1889 79.7464C82.3636 80.2322 82.6257 80.62 82.9751 80.9098C83.3288 81.1953 83.772 81.3381 84.3047 81.3381ZM94.6039 83.1726C93.8326 83.1726 93.1422 82.9744 92.5328 82.5781C91.9235 82.1818 91.4419 81.6065 91.0882 80.8523C90.7346 80.098 90.5577 79.1818 90.5577 78.1037C90.5577 77.0128 90.7367 76.0923 91.0946 75.3423C91.4569 74.5881 91.9448 74.0192 92.5584 73.6357C93.1721 73.2479 93.856 73.054 94.6103 73.054C95.1855 73.054 95.6586 73.152 96.0293 73.348C96.4 73.5398 96.6941 73.772 96.9114 74.0447C97.1287 74.3132 97.2971 74.5668 97.4164 74.8054H97.5123V69.9091H99.8326V83H97.557V81.4531H97.4164C97.2971 81.6918 97.1245 81.9453 96.8986 82.2138C96.6728 82.478 96.3745 82.7038 96.0037 82.8913C95.633 83.0788 95.1664 83.1726 94.6039 83.1726ZM95.2495 81.2741C95.7395 81.2741 96.1571 81.142 96.5023 80.8778C96.8475 80.6094 97.1096 80.2365 97.2885 79.7592C97.4675 79.282 97.557 78.7259 97.557 78.0909C97.557 77.456 97.4675 76.9041 97.2885 76.4354C97.1138 75.9666 96.8539 75.6023 96.5087 75.3423C96.1678 75.0824 95.748 74.9524 95.2495 74.9524C94.7338 74.9524 94.3034 75.0866 93.9583 75.3551C93.6131 75.6236 93.3532 75.9943 93.1784 76.4673C93.0037 76.9403 92.9164 77.4815 92.9164 78.0909C92.9164 78.7045 93.0037 79.2521 93.1784 79.7337C93.3574 80.2109 93.6195 80.5881 93.9647 80.8651C94.3141 81.1378 94.7424 81.2741 95.2495 81.2741ZM110.058 75.777L107.949 76.0071C107.889 75.794 107.785 75.5938 107.636 75.4062C107.491 75.2188 107.295 75.0675 107.048 74.9524C106.8 74.8374 106.498 74.7798 106.14 74.7798C105.658 74.7798 105.254 74.8842 104.925 75.093C104.602 75.3018 104.442 75.5724 104.446 75.9048C104.442 76.1903 104.546 76.4226 104.759 76.6016C104.977 76.7805 105.335 76.9276 105.833 77.0426L107.508 77.4006C108.437 77.6009 109.127 77.9183 109.579 78.353C110.035 78.7876 110.265 79.3565 110.269 80.0597C110.265 80.6776 110.084 81.223 109.726 81.696C109.372 82.1648 108.88 82.5312 108.249 82.7955C107.619 83.0597 106.894 83.1918 106.076 83.1918C104.874 83.1918 103.907 82.9403 103.174 82.4375C102.441 81.9304 102.004 81.2251 101.864 80.3217L104.12 80.1044C104.222 80.5476 104.44 80.8821 104.772 81.108C105.104 81.3338 105.537 81.4467 106.07 81.4467C106.619 81.4467 107.06 81.3338 107.393 81.108C107.729 80.8821 107.898 80.603 107.898 80.2706C107.898 79.9893 107.789 79.7571 107.572 79.5739C107.359 79.3906 107.026 79.25 106.575 79.152L104.9 78.8004C103.958 78.6044 103.261 78.2741 102.81 77.8097C102.358 77.3409 102.134 76.7486 102.138 76.0327C102.134 75.4276 102.298 74.9034 102.631 74.4602C102.967 74.0128 103.434 73.6676 104.031 73.4247C104.631 73.1776 105.324 73.054 106.108 73.054C107.259 73.054 108.164 73.299 108.825 73.7891C109.489 74.2791 109.901 74.9418 110.058 75.777Z" fill="#E93821"/>
<path d="M11.2273 109.182C11.2273 110.409 11.0057 111.47 10.5625 112.364C10.1193 113.258 9.51136 113.947 8.73864 114.432C7.96591 114.917 7.08333 115.159 6.09091 115.159C5.09849 115.159 4.21591 114.917 3.44318 114.432C2.67045 113.947 2.0625 113.258 1.61932 112.364C1.17614 111.47 0.954545 110.409 0.954545 109.182C0.954545 107.955 1.17614 106.894 1.61932 106C2.0625 105.106 2.67045 104.417 3.44318 103.932C4.21591 103.447 5.09849 103.205 6.09091 103.205C7.08333 103.205 7.96591 103.447 8.73864 103.932C9.51136 104.417 10.1193 105.106 10.5625 106C11.0057 106.894 11.2273 107.955 11.2273 109.182ZM9.86364 109.182C9.86364 108.174 9.69508 107.324 9.35795 106.631C9.02462 105.938 8.57197 105.413 8 105.057C7.43182 104.701 6.79545 104.523 6.09091 104.523C5.38636 104.523 4.74811 104.701 4.17614 105.057C3.60795 105.413 3.1553 105.938 2.81818 106.631C2.48485 107.324 2.31818 108.174 2.31818 109.182C2.31818 110.189 2.48485 111.04 2.81818 111.733C3.1553 112.426 3.60795 112.951 4.17614 113.307C4.74811 113.663 5.38636 113.841 6.09091 113.841C6.79545 113.841 7.43182 113.663 8 113.307C8.57197 112.951 9.02462 112.426 9.35795 111.733C9.69508 111.04 9.86364 110.189 9.86364 109.182ZM13.4148 115V106.273H14.7102V107.591H14.8011C14.9602 107.159 15.2481 106.809 15.6648 106.54C16.0814 106.271 16.5511 106.136 17.0739 106.136C17.1723 106.136 17.2955 106.138 17.4432 106.142C17.5909 106.146 17.7027 106.152 17.7784 106.159V107.523C17.733 107.511 17.6288 107.494 17.4659 107.472C17.3068 107.445 17.1383 107.432 16.9602 107.432C16.536 107.432 16.1572 107.521 15.8239 107.699C15.4943 107.873 15.233 108.116 15.0398 108.426C14.8504 108.733 14.7557 109.083 14.7557 109.477V115H13.4148ZM22.3977 115.182C21.6705 115.182 21.0284 114.998 20.4716 114.631C19.9148 114.259 19.4792 113.737 19.1648 113.062C18.8504 112.384 18.6932 111.583 18.6932 110.659C18.6932 109.742 18.8504 108.947 19.1648 108.273C19.4792 107.598 19.9167 107.078 20.4773 106.71C21.0379 106.343 21.6856 106.159 22.4205 106.159C22.9886 106.159 23.4375 106.254 23.767 106.443C24.1004 106.629 24.3542 106.841 24.5284 107.08C24.7064 107.314 24.8447 107.508 24.9432 107.659H25.0568V103.364H26.3977V115H25.1023V113.659H24.9432C24.8447 113.818 24.7045 114.019 24.5227 114.261C24.3409 114.5 24.0814 114.714 23.7443 114.903C23.4072 115.089 22.9583 115.182 22.3977 115.182ZM22.5795 113.977C23.1174 113.977 23.572 113.837 23.9432 113.557C24.3144 113.273 24.5966 112.881 24.7898 112.381C24.983 111.877 25.0795 111.295 25.0795 110.636C25.0795 109.985 24.9848 109.415 24.7955 108.926C24.6061 108.434 24.3258 108.051 23.9545 107.778C23.5833 107.502 23.125 107.364 22.5795 107.364C22.0114 107.364 21.5379 107.509 21.1591 107.801C20.7841 108.089 20.5019 108.481 20.3125 108.977C20.1269 109.47 20.0341 110.023 20.0341 110.636C20.0341 111.258 20.1288 111.822 20.3182 112.33C20.5114 112.833 20.7955 113.235 21.1705 113.534C21.5492 113.83 22.0189 113.977 22.5795 113.977ZM32.6989 115.182C31.858 115.182 31.1326 114.996 30.5227 114.625C29.9167 114.25 29.4489 113.727 29.1193 113.057C28.7936 112.383 28.6307 111.598 28.6307 110.705C28.6307 109.811 28.7936 109.023 29.1193 108.341C29.4489 107.655 29.9072 107.121 30.4943 106.739C31.0852 106.352 31.7746 106.159 32.5625 106.159C33.017 106.159 33.4659 106.235 33.9091 106.386C34.3523 106.538 34.7557 106.784 35.1193 107.125C35.483 107.462 35.7727 107.909 35.9886 108.466C36.2045 109.023 36.3125 109.708 36.3125 110.523V111.091H29.5852V109.932H34.9489C34.9489 109.439 34.8504 109 34.6534 108.614C34.4602 108.227 34.1837 107.922 33.8239 107.699C33.4678 107.475 33.0473 107.364 32.5625 107.364C32.0284 107.364 31.5663 107.496 31.1761 107.761C30.7898 108.023 30.4924 108.364 30.2841 108.784C30.0758 109.205 29.9716 109.655 29.9716 110.136V110.909C29.9716 111.568 30.0852 112.127 30.3125 112.585C30.5436 113.04 30.8636 113.386 31.2727 113.625C31.6818 113.86 32.1572 113.977 32.6989 113.977C33.0511 113.977 33.3693 113.928 33.6534 113.83C33.9413 113.727 34.1894 113.576 34.3977 113.375C34.6061 113.17 34.767 112.917 34.8807 112.614L36.1761 112.977C36.0398 113.417 35.8106 113.803 35.4886 114.136C35.1667 114.466 34.7689 114.723 34.2955 114.909C33.822 115.091 33.2898 115.182 32.6989 115.182ZM38.3523 115V106.273H39.6477V107.591H39.7386C39.8977 107.159 40.1856 106.809 40.6023 106.54C41.0189 106.271 41.4886 106.136 42.0114 106.136C42.1098 106.136 42.233 106.138 42.3807 106.142C42.5284 106.146 42.6402 106.152 42.7159 106.159V107.523C42.6705 107.511 42.5663 107.494 42.4034 107.472C42.2443 107.445 42.0758 107.432 41.8977 107.432C41.4735 107.432 41.0947 107.521 40.7614 107.699C40.4318 107.873 40.1705 108.116 39.9773 108.426C39.7879 108.733 39.6932 109.083 39.6932 109.477V115H38.3523ZM50.1463 103.364V115H48.8054V103.364H50.1463ZM56.1477 115.182C55.3598 115.182 54.6686 114.994 54.0739 114.619C53.483 114.244 53.0208 113.72 52.6875 113.045C52.358 112.371 52.1932 111.583 52.1932 110.682C52.1932 109.773 52.358 108.979 52.6875 108.301C53.0208 107.623 53.483 107.097 54.0739 106.722C54.6686 106.347 55.3598 106.159 56.1477 106.159C56.9356 106.159 57.625 106.347 58.2159 106.722C58.8106 107.097 59.2727 107.623 59.6023 108.301C59.9356 108.979 60.1023 109.773 60.1023 110.682C60.1023 111.583 59.9356 112.371 59.6023 113.045C59.2727 113.72 58.8106 114.244 58.2159 114.619C57.625 114.994 56.9356 115.182 56.1477 115.182ZM56.1477 113.977C56.7462 113.977 57.2386 113.824 57.625 113.517C58.0114 113.21 58.2973 112.807 58.483 112.307C58.6686 111.807 58.7614 111.265 58.7614 110.682C58.7614 110.098 58.6686 109.555 58.483 109.051C58.2973 108.547 58.0114 108.14 57.625 107.83C57.2386 107.519 56.7462 107.364 56.1477 107.364C55.5492 107.364 55.0568 107.519 54.6705 107.83C54.2841 108.14 53.9981 108.547 53.8125 109.051C53.6269 109.555 53.5341 110.098 53.5341 110.682C53.5341 111.265 53.6269 111.807 53.8125 112.307C53.9981 112.807 54.2841 113.21 54.6705 113.517C55.0568 113.824 55.5492 113.977 56.1477 113.977ZM65.6946 115.182C64.8764 115.182 64.1719 114.989 63.581 114.602C62.9901 114.216 62.5355 113.684 62.2173 113.006C61.8991 112.328 61.7401 111.553 61.7401 110.682C61.7401 109.795 61.9029 109.013 62.2287 108.335C62.5582 107.653 63.0166 107.121 63.6037 106.739C64.1946 106.352 64.884 106.159 65.6719 106.159C66.2855 106.159 66.8385 106.273 67.331 106.5C67.8234 106.727 68.2268 107.045 68.5412 107.455C68.8556 107.864 69.0507 108.341 69.1264 108.886H67.7855C67.6832 108.489 67.456 108.136 67.1037 107.83C66.7552 107.519 66.2855 107.364 65.6946 107.364C65.1719 107.364 64.7135 107.5 64.3196 107.773C63.9295 108.042 63.6245 108.422 63.4048 108.915C63.1889 109.403 63.081 109.977 63.081 110.636C63.081 111.311 63.187 111.898 63.3991 112.398C63.6151 112.898 63.9181 113.286 64.3082 113.562C64.7022 113.839 65.1643 113.977 65.6946 113.977C66.0431 113.977 66.3594 113.917 66.6435 113.795C66.9276 113.674 67.1681 113.5 67.3651 113.273C67.562 113.045 67.7022 112.773 67.7855 112.455H69.1264C69.0507 112.97 68.8632 113.434 68.5639 113.847C68.2685 114.256 67.8764 114.581 67.3878 114.824C66.9029 115.062 66.3385 115.182 65.6946 115.182ZM73.6548 115.205C73.1018 115.205 72.5999 115.1 72.1491 114.892C71.6984 114.68 71.3404 114.375 71.0753 113.977C70.8101 113.576 70.6776 113.091 70.6776 112.523C70.6776 112.023 70.776 111.617 70.973 111.307C71.17 110.992 71.4332 110.746 71.7628 110.568C72.0923 110.39 72.456 110.258 72.8537 110.17C73.2552 110.08 73.6586 110.008 74.0639 109.955C74.5942 109.886 75.0241 109.835 75.3537 109.801C75.687 109.763 75.9295 109.701 76.081 109.614C76.2363 109.527 76.3139 109.375 76.3139 109.159V109.114C76.3139 108.553 76.1605 108.117 75.8537 107.807C75.5507 107.496 75.0904 107.341 74.473 107.341C73.8329 107.341 73.331 107.481 72.9673 107.761C72.6037 108.042 72.348 108.341 72.2003 108.659L70.9276 108.205C71.1548 107.674 71.4579 107.261 71.8366 106.966C72.2192 106.667 72.6359 106.458 73.0866 106.341C73.5412 106.22 73.9882 106.159 74.4276 106.159C74.7079 106.159 75.0298 106.193 75.3935 106.261C75.7609 106.326 76.1151 106.46 76.456 106.665C76.8007 106.869 77.0866 107.178 77.3139 107.591C77.5412 108.004 77.6548 108.557 77.6548 109.25V115H76.3139V113.818H76.2457C76.1548 114.008 76.0033 114.21 75.7912 114.426C75.5791 114.642 75.2969 114.826 74.9446 114.977C74.5923 115.129 74.1624 115.205 73.6548 115.205ZM73.8594 114C74.3897 114 74.8366 113.896 75.2003 113.688C75.5677 113.479 75.8442 113.21 76.0298 112.881C76.2192 112.551 76.3139 112.205 76.3139 111.841V110.614C76.2571 110.682 76.1321 110.744 75.9389 110.801C75.7495 110.854 75.5298 110.902 75.2798 110.943C75.0336 110.981 74.7931 111.015 74.5582 111.045C74.3272 111.072 74.1397 111.095 73.9957 111.114C73.6473 111.159 73.3215 111.233 73.0185 111.335C72.7192 111.434 72.4768 111.583 72.2912 111.784C72.1094 111.981 72.0185 112.25 72.0185 112.591C72.0185 113.057 72.1908 113.409 72.5355 113.648C72.884 113.883 73.3253 114 73.8594 114ZM81.4432 103.364V115H80.1023V103.364H81.4432ZM92.2855 106.273V107.409H87.581V106.273H92.2855ZM88.9901 115V105.068C88.9901 104.568 89.1075 104.152 89.3423 103.818C89.5772 103.485 89.8821 103.235 90.2571 103.068C90.6321 102.902 91.0279 102.818 91.4446 102.818C91.7741 102.818 92.0431 102.845 92.2514 102.898C92.4598 102.951 92.6151 103 92.7173 103.045L92.331 104.205C92.2628 104.182 92.1681 104.153 92.0469 104.119C91.9295 104.085 91.7741 104.068 91.581 104.068C91.1378 104.068 90.8177 104.18 90.6207 104.403C90.4276 104.627 90.331 104.955 90.331 105.386V115H88.9901ZM97.3509 115.182C96.563 115.182 95.8717 114.994 95.277 114.619C94.6861 114.244 94.224 113.72 93.8906 113.045C93.5611 112.371 93.3963 111.583 93.3963 110.682C93.3963 109.773 93.5611 108.979 93.8906 108.301C94.224 107.623 94.6861 107.097 95.277 106.722C95.8717 106.347 96.563 106.159 97.3509 106.159C98.1387 106.159 98.8281 106.347 99.419 106.722C100.014 107.097 100.476 107.623 100.805 108.301C101.139 108.979 101.305 109.773 101.305 110.682C101.305 111.583 101.139 112.371 100.805 113.045C100.476 113.72 100.014 114.244 99.419 114.619C98.8281 114.994 98.1387 115.182 97.3509 115.182ZM97.3509 113.977C97.9493 113.977 98.4418 113.824 98.8281 113.517C99.2145 113.21 99.5005 112.807 99.6861 112.307C99.8717 111.807 99.9645 111.265 99.9645 110.682C99.9645 110.098 99.8717 109.555 99.6861 109.051C99.5005 108.547 99.2145 108.14 98.8281 107.83C98.4418 107.519 97.9493 107.364 97.3509 107.364C96.7524 107.364 96.2599 107.519 95.8736 107.83C95.4872 108.14 95.2012 108.547 95.0156 109.051C94.83 109.555 94.7372 110.098 94.7372 110.682C94.7372 111.265 94.83 111.807 95.0156 112.307C95.2012 112.807 95.4872 113.21 95.8736 113.517C96.2599 113.824 96.7524 113.977 97.3509 113.977ZM106.898 115.182C106.11 115.182 105.419 114.994 104.824 114.619C104.233 114.244 103.771 113.72 103.438 113.045C103.108 112.371 102.943 111.583 102.943 110.682C102.943 109.773 103.108 108.979 103.438 108.301C103.771 107.623 104.233 107.097 104.824 106.722C105.419 106.347 106.11 106.159 106.898 106.159C107.686 106.159 108.375 106.347 108.966 106.722C109.561 107.097 110.023 107.623 110.352 108.301C110.686 108.979 110.852 109.773 110.852 110.682C110.852 111.583 110.686 112.371 110.352 113.045C110.023 113.72 109.561 114.244 108.966 114.619C108.375 114.994 107.686 115.182 106.898 115.182ZM106.898 113.977C107.496 113.977 107.989 113.824 108.375 113.517C108.761 113.21 109.047 112.807 109.233 112.307C109.419 111.807 109.511 111.265 109.511 110.682C109.511 110.098 109.419 109.555 109.233 109.051C109.047 108.547 108.761 108.14 108.375 107.83C107.989 107.519 107.496 107.364 106.898 107.364C106.299 107.364 105.807 107.519 105.42 107.83C105.034 108.14 104.748 108.547 104.562 109.051C104.377 109.555 104.284 110.098 104.284 110.682C104.284 111.265 104.377 111.807 104.562 112.307C104.748 112.807 105.034 113.21 105.42 113.517C105.807 113.824 106.299 113.977 106.898 113.977ZM116.195 115.182C115.467 115.182 114.825 114.998 114.268 114.631C113.712 114.259 113.276 113.737 112.962 113.062C112.647 112.384 112.49 111.583 112.49 110.659C112.49 109.742 112.647 108.947 112.962 108.273C113.276 107.598 113.714 107.078 114.274 106.71C114.835 106.343 115.482 106.159 116.217 106.159C116.786 106.159 117.234 106.254 117.564 106.443C117.897 106.629 118.151 106.841 118.325 107.08C118.503 107.314 118.642 107.508 118.74 107.659H118.854V103.364H120.195V115H118.899V113.659H118.74C118.642 113.818 118.501 114.019 118.32 114.261C118.138 114.5 117.878 114.714 117.541 114.903C117.204 115.089 116.755 115.182 116.195 115.182ZM116.376 113.977C116.914 113.977 117.369 113.837 117.74 113.557C118.111 113.273 118.393 112.881 118.587 112.381C118.78 111.877 118.876 111.295 118.876 110.636C118.876 109.985 118.782 109.415 118.592 108.926C118.403 108.434 118.123 108.051 117.751 107.778C117.38 107.502 116.922 107.364 116.376 107.364C115.808 107.364 115.335 107.509 114.956 107.801C114.581 108.089 114.299 108.481 114.109 108.977C113.924 109.47 113.831 110.023 113.831 110.636C113.831 111.258 113.926 111.822 114.115 112.33C114.308 112.833 114.592 113.235 114.967 113.534C115.346 113.83 115.816 113.977 116.376 113.977ZM127.337 115V106.273H128.678V115H127.337ZM128.018 104.818C127.757 104.818 127.532 104.729 127.342 104.551C127.157 104.373 127.064 104.159 127.064 103.909C127.064 103.659 127.157 103.445 127.342 103.267C127.532 103.089 127.757 103 128.018 103C128.28 103 128.503 103.089 128.689 103.267C128.878 103.445 128.973 103.659 128.973 103.909C128.973 104.159 128.878 104.373 128.689 104.551C128.503 104.729 128.28 104.818 128.018 104.818ZM134.929 106.273V107.409H130.406V106.273H134.929ZM131.724 104.182H133.065V112.5C133.065 112.879 133.12 113.163 133.23 113.352C133.344 113.538 133.488 113.663 133.662 113.727C133.84 113.788 134.027 113.818 134.224 113.818C134.372 113.818 134.493 113.811 134.588 113.795C134.683 113.777 134.759 113.761 134.815 113.75L135.088 114.955C134.997 114.989 134.87 115.023 134.707 115.057C134.545 115.095 134.338 115.114 134.088 115.114C133.709 115.114 133.338 115.032 132.974 114.869C132.615 114.706 132.315 114.458 132.077 114.125C131.842 113.792 131.724 113.371 131.724 112.864V104.182ZM140.511 115.182C139.67 115.182 138.945 114.996 138.335 114.625C137.729 114.25 137.261 113.727 136.932 113.057C136.606 112.383 136.443 111.598 136.443 110.705C136.443 109.811 136.606 109.023 136.932 108.341C137.261 107.655 137.72 107.121 138.307 106.739C138.898 106.352 139.587 106.159 140.375 106.159C140.83 106.159 141.278 106.235 141.722 106.386C142.165 106.538 142.568 106.784 142.932 107.125C143.295 107.462 143.585 107.909 143.801 108.466C144.017 109.023 144.125 109.708 144.125 110.523V111.091H137.398V109.932H142.761C142.761 109.439 142.663 109 142.466 108.614C142.273 108.227 141.996 107.922 141.636 107.699C141.28 107.475 140.86 107.364 140.375 107.364C139.841 107.364 139.379 107.496 138.989 107.761C138.602 108.023 138.305 108.364 138.097 108.784C137.888 109.205 137.784 109.655 137.784 110.136V110.909C137.784 111.568 137.898 112.127 138.125 112.585C138.356 113.04 138.676 113.386 139.085 113.625C139.494 113.86 139.97 113.977 140.511 113.977C140.864 113.977 141.182 113.928 141.466 113.83C141.754 113.727 142.002 113.576 142.21 113.375C142.419 113.17 142.58 112.917 142.693 112.614L143.989 112.977C143.852 113.417 143.623 113.803 143.301 114.136C142.979 114.466 142.581 114.723 142.108 114.909C141.634 115.091 141.102 115.182 140.511 115.182ZM146.165 115V106.273H147.46V107.636H147.574C147.756 107.17 148.049 106.809 148.455 106.551C148.86 106.29 149.347 106.159 149.915 106.159C150.491 106.159 150.97 106.29 151.352 106.551C151.739 106.809 152.04 107.17 152.256 107.636H152.347C152.57 107.186 152.905 106.828 153.352 106.562C153.799 106.294 154.335 106.159 154.96 106.159C155.741 106.159 156.379 106.403 156.875 106.892C157.371 107.377 157.619 108.133 157.619 109.159V115H156.278V109.159C156.278 108.515 156.102 108.055 155.75 107.778C155.398 107.502 154.983 107.364 154.506 107.364C153.892 107.364 153.417 107.549 153.08 107.92C152.742 108.288 152.574 108.754 152.574 109.318V115H151.21V109.023C151.21 108.527 151.049 108.127 150.727 107.824C150.405 107.517 149.991 107.364 149.483 107.364C149.134 107.364 148.809 107.456 148.506 107.642C148.206 107.828 147.964 108.085 147.778 108.415C147.597 108.741 147.506 109.117 147.506 109.545V115H146.165ZM166.253 108.227L165.048 108.568C164.973 108.367 164.861 108.172 164.713 107.983C164.569 107.79 164.372 107.631 164.122 107.506C163.872 107.381 163.552 107.318 163.162 107.318C162.628 107.318 162.183 107.441 161.827 107.688C161.474 107.93 161.298 108.239 161.298 108.614C161.298 108.947 161.42 109.21 161.662 109.403C161.904 109.597 162.283 109.758 162.798 109.886L164.094 110.205C164.874 110.394 165.455 110.684 165.838 111.074C166.221 111.46 166.412 111.958 166.412 112.568C166.412 113.068 166.268 113.515 165.98 113.909C165.696 114.303 165.298 114.614 164.787 114.841C164.276 115.068 163.681 115.182 163.003 115.182C162.113 115.182 161.376 114.989 160.793 114.602C160.209 114.216 159.84 113.652 159.685 112.909L160.957 112.591C161.079 113.061 161.308 113.413 161.645 113.648C161.986 113.883 162.431 114 162.98 114C163.605 114 164.101 113.867 164.469 113.602C164.84 113.333 165.026 113.011 165.026 112.636C165.026 112.333 164.92 112.08 164.707 111.875C164.495 111.667 164.17 111.511 163.73 111.409L162.276 111.068C161.476 110.879 160.889 110.585 160.514 110.188C160.143 109.786 159.957 109.284 159.957 108.682C159.957 108.189 160.096 107.754 160.372 107.375C160.652 106.996 161.033 106.699 161.514 106.483C161.999 106.267 162.548 106.159 163.162 106.159C164.026 106.159 164.704 106.348 165.196 106.727C165.692 107.106 166.045 107.606 166.253 108.227ZM170.43 113.409L170.339 114.023C170.275 114.455 170.177 114.917 170.044 115.409C169.915 115.902 169.781 116.366 169.641 116.801C169.5 117.237 169.385 117.583 169.294 117.841H168.271C168.321 117.598 168.385 117.278 168.464 116.881C168.544 116.483 168.624 116.038 168.703 115.545C168.786 115.057 168.855 114.557 168.908 114.045L168.976 113.409H170.43ZM180.938 118.455C180.29 118.455 179.733 118.371 179.267 118.205C178.801 118.042 178.413 117.826 178.102 117.557C177.795 117.292 177.551 117.008 177.369 116.705L178.438 115.955C178.559 116.114 178.712 116.295 178.898 116.5C179.083 116.708 179.337 116.888 179.659 117.04C179.985 117.195 180.411 117.273 180.938 117.273C181.642 117.273 182.223 117.102 182.682 116.761C183.14 116.42 183.369 115.886 183.369 115.159V113.386H183.256C183.157 113.545 183.017 113.742 182.835 113.977C182.657 114.208 182.4 114.415 182.062 114.597C181.729 114.775 181.278 114.864 180.71 114.864C180.006 114.864 179.373 114.697 178.812 114.364C178.256 114.03 177.814 113.545 177.489 112.909C177.167 112.273 177.006 111.5 177.006 110.591C177.006 109.697 177.163 108.919 177.477 108.256C177.792 107.589 178.229 107.074 178.79 106.71C179.35 106.343 179.998 106.159 180.733 106.159C181.301 106.159 181.752 106.254 182.085 106.443C182.422 106.629 182.68 106.841 182.858 107.08C183.04 107.314 183.18 107.508 183.278 107.659H183.415V106.273H184.71V115.25C184.71 116 184.54 116.61 184.199 117.08C183.862 117.553 183.407 117.9 182.835 118.119C182.267 118.343 181.634 118.455 180.938 118.455ZM180.892 113.659C181.43 113.659 181.884 113.536 182.256 113.29C182.627 113.044 182.909 112.689 183.102 112.227C183.295 111.765 183.392 111.212 183.392 110.568C183.392 109.939 183.297 109.384 183.108 108.903C182.919 108.422 182.638 108.045 182.267 107.773C181.896 107.5 181.438 107.364 180.892 107.364C180.324 107.364 179.85 107.508 179.472 107.795C179.097 108.083 178.814 108.47 178.625 108.955C178.439 109.439 178.347 109.977 178.347 110.568C178.347 111.174 178.441 111.71 178.631 112.176C178.824 112.638 179.108 113.002 179.483 113.267C179.862 113.528 180.331 113.659 180.892 113.659ZM187.165 115V106.273H188.46V107.591H188.551C188.71 107.159 188.998 106.809 189.415 106.54C189.831 106.271 190.301 106.136 190.824 106.136C190.922 106.136 191.045 106.138 191.193 106.142C191.341 106.146 191.453 106.152 191.528 106.159V107.523C191.483 107.511 191.379 107.494 191.216 107.472C191.057 107.445 190.888 107.432 190.71 107.432C190.286 107.432 189.907 107.521 189.574 107.699C189.244 107.873 188.983 108.116 188.79 108.426C188.6 108.733 188.506 109.083 188.506 109.477V115H187.165ZM196.398 115.182C195.61 115.182 194.919 114.994 194.324 114.619C193.733 114.244 193.271 113.72 192.938 113.045C192.608 112.371 192.443 111.583 192.443 110.682C192.443 109.773 192.608 108.979 192.938 108.301C193.271 107.623 193.733 107.097 194.324 106.722C194.919 106.347 195.61 106.159 196.398 106.159C197.186 106.159 197.875 106.347 198.466 106.722C199.061 107.097 199.523 107.623 199.852 108.301C200.186 108.979 200.352 109.773 200.352 110.682C200.352 111.583 200.186 112.371 199.852 113.045C199.523 113.72 199.061 114.244 198.466 114.619C197.875 114.994 197.186 115.182 196.398 115.182ZM196.398 113.977C196.996 113.977 197.489 113.824 197.875 113.517C198.261 113.21 198.547 112.807 198.733 112.307C198.919 111.807 199.011 111.265 199.011 110.682C199.011 110.098 198.919 109.555 198.733 109.051C198.547 108.547 198.261 108.14 197.875 107.83C197.489 107.519 196.996 107.364 196.398 107.364C195.799 107.364 195.307 107.519 194.92 107.83C194.534 108.14 194.248 108.547 194.062 109.051C193.877 109.555 193.784 110.098 193.784 110.682C193.784 111.265 193.877 111.807 194.062 112.307C194.248 112.807 194.534 113.21 194.92 113.517C195.307 113.824 195.799 113.977 196.398 113.977ZM205.945 115.182C205.126 115.182 204.422 114.989 203.831 114.602C203.24 114.216 202.786 113.684 202.467 113.006C202.149 112.328 201.99 111.553 201.99 110.682C201.99 109.795 202.153 109.013 202.479 108.335C202.808 107.653 203.267 107.121 203.854 106.739C204.445 106.352 205.134 106.159 205.922 106.159C206.536 106.159 207.089 106.273 207.581 106.5C208.073 106.727 208.477 107.045 208.791 107.455C209.106 107.864 209.301 108.341 209.376 108.886H208.036C207.933 108.489 207.706 108.136 207.354 107.83C207.005 107.519 206.536 107.364 205.945 107.364C205.422 107.364 204.964 107.5 204.57 107.773C204.179 108.042 203.875 108.422 203.655 108.915C203.439 109.403 203.331 109.977 203.331 110.636C203.331 111.311 203.437 111.898 203.649 112.398C203.865 112.898 204.168 113.286 204.558 113.562C204.952 113.839 205.414 113.977 205.945 113.977C206.293 113.977 206.609 113.917 206.893 113.795C207.178 113.674 207.418 113.5 207.615 113.273C207.812 113.045 207.952 112.773 208.036 112.455H209.376C209.301 112.97 209.113 113.434 208.814 113.847C208.518 114.256 208.126 114.581 207.638 114.824C207.153 115.062 206.589 115.182 205.945 115.182ZM214.996 115.182C214.155 115.182 213.429 114.996 212.82 114.625C212.214 114.25 211.746 113.727 211.416 113.057C211.09 112.383 210.928 111.598 210.928 110.705C210.928 109.811 211.09 109.023 211.416 108.341C211.746 107.655 212.204 107.121 212.791 106.739C213.382 106.352 214.071 106.159 214.859 106.159C215.314 106.159 215.763 106.235 216.206 106.386C216.649 106.538 217.053 106.784 217.416 107.125C217.78 107.462 218.07 107.909 218.286 108.466C218.501 109.023 218.609 109.708 218.609 110.523V111.091H211.882V109.932H217.246C217.246 109.439 217.147 109 216.95 108.614C216.757 108.227 216.481 107.922 216.121 107.699C215.765 107.475 215.344 107.364 214.859 107.364C214.325 107.364 213.863 107.496 213.473 107.761C213.087 108.023 212.789 108.364 212.581 108.784C212.373 109.205 212.268 109.655 212.268 110.136V110.909C212.268 111.568 212.382 112.127 212.609 112.585C212.84 113.04 213.161 113.386 213.57 113.625C213.979 113.86 214.454 113.977 214.996 113.977C215.348 113.977 215.666 113.928 215.95 113.83C216.238 113.727 216.486 113.576 216.695 113.375C216.903 113.17 217.064 112.917 217.178 112.614L218.473 112.977C218.337 113.417 218.107 113.803 217.786 114.136C217.464 114.466 217.066 114.723 216.592 114.909C216.119 115.091 215.587 115.182 214.996 115.182ZM220.649 115V106.273H221.945V107.591H222.036C222.195 107.159 222.482 106.809 222.899 106.54C223.316 106.271 223.786 106.136 224.308 106.136C224.407 106.136 224.53 106.138 224.678 106.142C224.825 106.146 224.937 106.152 225.013 106.159V107.523C224.967 107.511 224.863 107.494 224.7 107.472C224.541 107.445 224.373 107.432 224.195 107.432C223.77 107.432 223.392 107.521 223.058 107.699C222.729 107.873 222.467 108.116 222.274 108.426C222.085 108.733 221.99 109.083 221.99 109.477V115H220.649ZM226.602 115V106.273H227.943V115H226.602ZM227.284 104.818C227.023 104.818 226.797 104.729 226.608 104.551C226.422 104.373 226.33 104.159 226.33 103.909C226.33 103.659 226.422 103.445 226.608 103.267C226.797 103.089 227.023 103 227.284 103C227.545 103 227.769 103.089 227.955 103.267C228.144 103.445 228.239 103.659 228.239 103.909C228.239 104.159 228.144 104.373 227.955 104.551C227.769 104.729 227.545 104.818 227.284 104.818ZM234.058 115.182C233.217 115.182 232.492 114.996 231.882 114.625C231.276 114.25 230.808 113.727 230.479 113.057C230.153 112.383 229.99 111.598 229.99 110.705C229.99 109.811 230.153 109.023 230.479 108.341C230.808 107.655 231.267 107.121 231.854 106.739C232.445 106.352 233.134 106.159 233.922 106.159C234.376 106.159 234.825 106.235 235.268 106.386C235.712 106.538 236.115 106.784 236.479 107.125C236.842 107.462 237.132 107.909 237.348 108.466C237.564 109.023 237.672 109.708 237.672 110.523V111.091H230.945V109.932H236.308C236.308 109.439 236.21 109 236.013 108.614C235.82 108.227 235.543 107.922 235.183 107.699C234.827 107.475 234.407 107.364 233.922 107.364C233.388 107.364 232.926 107.496 232.536 107.761C232.149 108.023 231.852 108.364 231.643 108.784C231.435 109.205 231.331 109.655 231.331 110.136V110.909C231.331 111.568 231.445 112.127 231.672 112.585C231.903 113.04 232.223 113.386 232.632 113.625C233.041 113.86 233.517 113.977 234.058 113.977C234.411 113.977 234.729 113.928 235.013 113.83C235.301 113.727 235.549 113.576 235.757 113.375C235.965 113.17 236.126 112.917 236.24 112.614L237.536 112.977C237.399 113.417 237.17 113.803 236.848 114.136C236.526 114.466 236.128 114.723 235.655 114.909C235.181 115.091 234.649 115.182 234.058 115.182ZM245.893 108.227L244.689 108.568C244.613 108.367 244.501 108.172 244.354 107.983C244.21 107.79 244.013 107.631 243.763 107.506C243.513 107.381 243.193 107.318 242.803 107.318C242.268 107.318 241.823 107.441 241.467 107.688C241.115 107.93 240.939 108.239 240.939 108.614C240.939 108.947 241.06 109.21 241.303 109.403C241.545 109.597 241.924 109.758 242.439 109.886L243.734 110.205C244.515 110.394 245.096 110.684 245.479 111.074C245.861 111.46 246.053 111.958 246.053 112.568C246.053 113.068 245.909 113.515 245.621 113.909C245.337 114.303 244.939 114.614 244.428 114.841C243.916 115.068 243.321 115.182 242.643 115.182C241.753 115.182 241.017 114.989 240.433 114.602C239.85 114.216 239.481 113.652 239.325 112.909L240.598 112.591C240.719 113.061 240.948 113.413 241.286 113.648C241.626 113.883 242.071 114 242.621 114C243.246 114 243.742 113.867 244.109 113.602C244.481 113.333 244.666 113.011 244.666 112.636C244.666 112.333 244.56 112.08 244.348 111.875C244.136 111.667 243.81 111.511 243.371 111.409L241.916 111.068C241.117 110.879 240.53 110.585 240.155 110.188C239.784 109.786 239.598 109.284 239.598 108.682C239.598 108.189 239.736 107.754 240.013 107.375C240.293 106.996 240.674 106.699 241.155 106.483C241.64 106.267 242.189 106.159 242.803 106.159C243.666 106.159 244.344 106.348 244.837 106.727C245.333 107.106 245.685 107.606 245.893 108.227ZM250.071 113.409L249.98 114.023C249.916 114.455 249.817 114.917 249.685 115.409C249.556 115.902 249.421 116.366 249.281 116.801C249.141 117.237 249.026 117.583 248.935 117.841H247.912C247.961 117.598 248.026 117.278 248.105 116.881C248.185 116.483 248.264 116.038 248.344 115.545C248.427 115.057 248.495 114.557 248.548 114.045L248.616 113.409H250.071ZM257.237 115V103.364H258.578V107.659H258.692C258.79 107.508 258.927 107.314 259.101 107.08C259.279 106.841 259.533 106.629 259.862 106.443C260.196 106.254 260.646 106.159 261.214 106.159C261.949 106.159 262.597 106.343 263.158 106.71C263.718 107.078 264.156 107.598 264.47 108.273C264.785 108.947 264.942 109.742 264.942 110.659C264.942 111.583 264.785 112.384 264.47 113.062C264.156 113.737 263.72 114.259 263.163 114.631C262.607 114.998 261.964 115.182 261.237 115.182C260.677 115.182 260.228 115.089 259.891 114.903C259.554 114.714 259.294 114.5 259.112 114.261C258.93 114.019 258.79 113.818 258.692 113.659H258.533V115H257.237ZM258.555 110.636C258.555 111.295 258.652 111.877 258.845 112.381C259.038 112.881 259.321 113.273 259.692 113.557C260.063 113.837 260.518 113.977 261.055 113.977C261.616 113.977 262.084 113.83 262.459 113.534C262.838 113.235 263.122 112.833 263.311 112.33C263.504 111.822 263.601 111.258 263.601 110.636C263.601 110.023 263.506 109.47 263.317 108.977C263.131 108.481 262.849 108.089 262.47 107.801C262.095 107.509 261.624 107.364 261.055 107.364C260.51 107.364 260.052 107.502 259.68 107.778C259.309 108.051 259.029 108.434 258.839 108.926C258.65 109.415 258.555 109.985 258.555 110.636ZM270.652 115.182C269.811 115.182 269.086 114.996 268.476 114.625C267.87 114.25 267.402 113.727 267.072 113.057C266.747 112.383 266.584 111.598 266.584 110.705C266.584 109.811 266.747 109.023 267.072 108.341C267.402 107.655 267.86 107.121 268.447 106.739C269.038 106.352 269.728 106.159 270.516 106.159C270.97 106.159 271.419 106.235 271.862 106.386C272.305 106.538 272.709 106.784 273.072 107.125C273.436 107.462 273.726 107.909 273.942 108.466C274.158 109.023 274.266 109.708 274.266 110.523V111.091H267.538V109.932H272.902C272.902 109.439 272.804 109 272.607 108.614C272.413 108.227 272.137 107.922 271.777 107.699C271.421 107.475 271 107.364 270.516 107.364C269.982 107.364 269.519 107.496 269.129 107.761C268.743 108.023 268.446 108.364 268.237 108.784C268.029 109.205 267.925 109.655 267.925 110.136V110.909C267.925 111.568 268.038 112.127 268.266 112.585C268.497 113.04 268.817 113.386 269.226 113.625C269.635 113.86 270.11 113.977 270.652 113.977C271.004 113.977 271.322 113.928 271.607 113.83C271.894 113.727 272.143 113.576 272.351 113.375C272.559 113.17 272.72 112.917 272.834 112.614L274.129 112.977C273.993 113.417 273.764 113.803 273.442 114.136C273.12 114.466 272.722 114.723 272.249 114.909C271.775 115.091 271.243 115.182 270.652 115.182ZM278.874 115.205C278.321 115.205 277.819 115.1 277.368 114.892C276.917 114.68 276.559 114.375 276.294 113.977C276.029 113.576 275.896 113.091 275.896 112.523C275.896 112.023 275.995 111.617 276.192 111.307C276.389 110.992 276.652 110.746 276.982 110.568C277.311 110.39 277.675 110.258 278.072 110.17C278.474 110.08 278.877 110.008 279.283 109.955C279.813 109.886 280.243 109.835 280.572 109.801C280.906 109.763 281.148 109.701 281.3 109.614C281.455 109.527 281.533 109.375 281.533 109.159V109.114C281.533 108.553 281.379 108.117 281.072 107.807C280.769 107.496 280.309 107.341 279.692 107.341C279.052 107.341 278.55 107.481 278.186 107.761C277.822 108.042 277.567 108.341 277.419 108.659L276.146 108.205C276.374 107.674 276.677 107.261 277.055 106.966C277.438 106.667 277.855 106.458 278.305 106.341C278.76 106.22 279.207 106.159 279.646 106.159C279.927 106.159 280.249 106.193 280.612 106.261C280.98 106.326 281.334 106.46 281.675 106.665C282.019 106.869 282.305 107.178 282.533 107.591C282.76 108.004 282.874 108.557 282.874 109.25V115H281.533V113.818H281.464C281.374 114.008 281.222 114.21 281.01 114.426C280.798 114.642 280.516 114.826 280.163 114.977C279.811 115.129 279.381 115.205 278.874 115.205ZM279.078 114C279.608 114 280.055 113.896 280.419 113.688C280.786 113.479 281.063 113.21 281.249 112.881C281.438 112.551 281.533 112.205 281.533 111.841V110.614C281.476 110.682 281.351 110.744 281.158 110.801C280.968 110.854 280.749 110.902 280.499 110.943C280.252 110.981 280.012 111.015 279.777 111.045C279.546 111.072 279.358 111.095 279.214 111.114C278.866 111.159 278.54 111.233 278.237 111.335C277.938 111.434 277.696 111.583 277.51 111.784C277.328 111.981 277.237 112.25 277.237 112.591C277.237 113.057 277.41 113.409 277.754 113.648C278.103 113.883 278.544 114 279.078 114ZM290.821 111.432V106.273H292.162V115H290.821V113.523H290.73C290.526 113.966 290.207 114.343 289.776 114.653C289.344 114.96 288.798 115.114 288.139 115.114C287.594 115.114 287.109 114.994 286.685 114.756C286.26 114.513 285.927 114.15 285.685 113.665C285.442 113.176 285.321 112.561 285.321 111.818V106.273H286.662V111.727C286.662 112.364 286.84 112.871 287.196 113.25C287.556 113.629 288.014 113.818 288.571 113.818C288.904 113.818 289.243 113.733 289.588 113.562C289.937 113.392 290.228 113.131 290.463 112.778C290.702 112.426 290.821 111.977 290.821 111.432ZM298.413 106.273V107.409H293.891V106.273H298.413ZM295.209 104.182H296.55V112.5C296.55 112.879 296.605 113.163 296.714 113.352C296.828 113.538 296.972 113.663 297.146 113.727C297.324 113.788 297.512 113.818 297.709 113.818C297.857 113.818 297.978 113.811 298.072 113.795C298.167 113.777 298.243 113.761 298.3 113.75L298.572 114.955C298.482 114.989 298.355 115.023 298.192 115.057C298.029 115.095 297.822 115.114 297.572 115.114C297.194 115.114 296.822 115.032 296.459 114.869C296.099 114.706 295.8 114.458 295.561 114.125C295.326 113.792 295.209 113.371 295.209 112.864V104.182ZM301.294 118.273C301.067 118.273 300.864 118.254 300.686 118.216C300.508 118.182 300.385 118.148 300.317 118.114L300.658 116.932C300.983 117.015 301.271 117.045 301.521 117.023C301.771 117 301.993 116.888 302.186 116.688C302.383 116.491 302.563 116.17 302.726 115.727L302.976 115.045L299.749 106.273H301.203L303.612 113.227H303.703L306.112 106.273H307.567L303.862 116.273C303.696 116.723 303.489 117.097 303.243 117.392C302.997 117.691 302.711 117.913 302.385 118.057C302.063 118.201 301.699 118.273 301.294 118.273ZM316.405 115.205C315.852 115.205 315.35 115.1 314.899 114.892C314.448 114.68 314.09 114.375 313.825 113.977C313.56 113.576 313.428 113.091 313.428 112.523C313.428 112.023 313.526 111.617 313.723 111.307C313.92 110.992 314.183 110.746 314.513 110.568C314.842 110.39 315.206 110.258 315.604 110.17C316.005 110.08 316.409 110.008 316.814 109.955C317.344 109.886 317.774 109.835 318.104 109.801C318.437 109.763 318.679 109.701 318.831 109.614C318.986 109.527 319.064 109.375 319.064 109.159V109.114C319.064 108.553 318.911 108.117 318.604 107.807C318.301 107.496 317.84 107.341 317.223 107.341C316.583 107.341 316.081 107.481 315.717 107.761C315.354 108.042 315.098 108.341 314.95 108.659L313.678 108.205C313.905 107.674 314.208 107.261 314.587 106.966C314.969 106.667 315.386 106.458 315.837 106.341C316.291 106.22 316.738 106.159 317.178 106.159C317.458 106.159 317.78 106.193 318.143 106.261C318.511 106.326 318.865 106.46 319.206 106.665C319.551 106.869 319.837 107.178 320.064 107.591C320.291 108.004 320.405 108.557 320.405 109.25V115H319.064V113.818H318.996C318.905 114.008 318.753 114.21 318.541 114.426C318.329 114.642 318.047 114.826 317.695 114.977C317.342 115.129 316.912 115.205 316.405 115.205ZM316.609 114C317.14 114 317.587 113.896 317.95 113.688C318.318 113.479 318.594 113.21 318.78 112.881C318.969 112.551 319.064 112.205 319.064 111.841V110.614C319.007 110.682 318.882 110.744 318.689 110.801C318.5 110.854 318.28 110.902 318.03 110.943C317.784 110.981 317.543 111.015 317.308 111.045C317.077 111.072 316.89 111.095 316.746 111.114C316.397 111.159 316.071 111.233 315.768 111.335C315.469 111.434 315.227 111.583 315.041 111.784C314.859 111.981 314.768 112.25 314.768 112.591C314.768 113.057 314.941 113.409 315.286 113.648C315.634 113.883 316.075 114 316.609 114ZM324.193 109.75V115H322.852V106.273H324.148V107.636H324.261C324.466 107.193 324.777 106.837 325.193 106.568C325.61 106.295 326.148 106.159 326.807 106.159C327.398 106.159 327.915 106.28 328.358 106.523C328.801 106.761 329.146 107.125 329.392 107.614C329.638 108.098 329.761 108.712 329.761 109.455V115H328.42V109.545C328.42 108.86 328.242 108.326 327.886 107.943C327.53 107.557 327.042 107.364 326.42 107.364C325.992 107.364 325.61 107.456 325.273 107.642C324.939 107.828 324.676 108.098 324.483 108.455C324.29 108.811 324.193 109.242 324.193 109.75ZM335.507 115.182C334.78 115.182 334.138 114.998 333.581 114.631C333.024 114.259 332.589 113.737 332.274 113.062C331.96 112.384 331.803 111.583 331.803 110.659C331.803 109.742 331.96 108.947 332.274 108.273C332.589 107.598 333.026 107.078 333.587 106.71C334.147 106.343 334.795 106.159 335.53 106.159C336.098 106.159 336.547 106.254 336.876 106.443C337.21 106.629 337.464 106.841 337.638 107.08C337.816 107.314 337.954 107.508 338.053 107.659H338.166V103.364H339.507V115H338.212V113.659H338.053C337.954 113.818 337.814 114.019 337.632 114.261C337.45 114.5 337.191 114.714 336.854 114.903C336.517 115.089 336.068 115.182 335.507 115.182ZM335.689 113.977C336.227 113.977 336.681 113.837 337.053 113.557C337.424 113.273 337.706 112.881 337.899 112.381C338.092 111.877 338.189 111.295 338.189 110.636C338.189 109.985 338.094 109.415 337.905 108.926C337.715 108.434 337.435 108.051 337.064 107.778C336.693 107.502 336.234 107.364 335.689 107.364C335.121 107.364 334.647 107.509 334.268 107.801C333.893 108.089 333.611 108.481 333.422 108.977C333.236 109.47 333.143 110.023 333.143 110.636C333.143 111.258 333.238 111.822 333.428 112.33C333.621 112.833 333.905 113.235 334.28 113.534C334.659 113.83 335.128 113.977 335.689 113.977ZM4.77273 141.182C3.98485 141.182 3.29356 140.994 2.69886 140.619C2.10795 140.244 1.64583 139.72 1.3125 139.045C0.982955 138.371 0.818182 137.583 0.818182 136.682C0.818182 135.773 0.982955 134.979 1.3125 134.301C1.64583 133.623 2.10795 133.097 2.69886 132.722C3.29356 132.347 3.98485 132.159 4.77273 132.159C5.56061 132.159 6.25 132.347 6.84091 132.722C7.43561 133.097 7.89773 133.623 8.22727 134.301C8.56061 134.979 8.72727 135.773 8.72727 136.682C8.72727 137.583 8.56061 138.371 8.22727 139.045C7.89773 139.72 7.43561 140.244 6.84091 140.619C6.25 140.994 5.56061 141.182 4.77273 141.182ZM4.77273 139.977C5.37121 139.977 5.86364 139.824 6.25 139.517C6.63636 139.21 6.92235 138.807 7.10795 138.307C7.29356 137.807 7.38636 137.265 7.38636 136.682C7.38636 136.098 7.29356 135.555 7.10795 135.051C6.92235 134.547 6.63636 134.14 6.25 133.83C5.86364 133.519 5.37121 133.364 4.77273 133.364C4.17424 133.364 3.68182 133.519 3.29545 133.83C2.90909 134.14 2.62311 134.547 2.4375 135.051C2.25189 135.555 2.15909 136.098 2.15909 136.682C2.15909 137.265 2.25189 137.807 2.4375 138.307C2.62311 138.807 2.90909 139.21 3.29545 139.517C3.68182 139.824 4.17424 139.977 4.77273 139.977ZM14.5696 132.273V133.409H10.0469V132.273H14.5696ZM11.3651 130.182H12.706V138.5C12.706 138.879 12.7609 139.163 12.8707 139.352C12.9844 139.538 13.1283 139.663 13.3026 139.727C13.4806 139.788 13.6681 139.818 13.8651 139.818C14.0128 139.818 14.134 139.811 14.2287 139.795C14.3234 139.777 14.3991 139.761 14.456 139.75L14.7287 140.955C14.6378 140.989 14.5109 141.023 14.348 141.057C14.1851 141.095 13.9787 141.114 13.7287 141.114C13.3499 141.114 12.9787 141.032 12.6151 140.869C12.2552 140.706 11.956 140.458 11.7173 140.125C11.4825 139.792 11.3651 139.371 11.3651 138.864V130.182ZM18.1151 135.75V141H16.7741V129.364H18.1151V133.636H18.2287C18.4332 133.186 18.7401 132.828 19.1491 132.562C19.562 132.294 20.1113 132.159 20.7969 132.159C21.3916 132.159 21.9124 132.278 22.3594 132.517C22.8063 132.752 23.1529 133.114 23.3991 133.602C23.6491 134.087 23.7741 134.705 23.7741 135.455V141H22.4332V135.545C22.4332 134.852 22.2533 134.316 21.8935 133.938C21.5374 133.555 21.0431 133.364 20.4105 133.364C19.9711 133.364 19.5772 133.456 19.2287 133.642C18.884 133.828 18.6113 134.098 18.4105 134.455C18.2135 134.811 18.1151 135.242 18.1151 135.75ZM29.8864 141.182C29.0455 141.182 28.3201 140.996 27.7102 140.625C27.1042 140.25 26.6364 139.727 26.3068 139.057C25.9811 138.383 25.8182 137.598 25.8182 136.705C25.8182 135.811 25.9811 135.023 26.3068 134.341C26.6364 133.655 27.0947 133.121 27.6818 132.739C28.2727 132.352 28.9621 132.159 29.75 132.159C30.2045 132.159 30.6534 132.235 31.0966 132.386C31.5398 132.538 31.9432 132.784 32.3068 133.125C32.6705 133.462 32.9602 133.909 33.1761 134.466C33.392 135.023 33.5 135.708 33.5 136.523V137.091H26.7727V135.932H32.1364C32.1364 135.439 32.0379 135 31.8409 134.614C31.6477 134.227 31.3712 133.922 31.0114 133.699C30.6553 133.475 30.2348 133.364 29.75 133.364C29.2159 133.364 28.7538 133.496 28.3636 133.761C27.9773 134.023 27.6799 134.364 27.4716 134.784C27.2633 135.205 27.1591 135.655 27.1591 136.136V136.909C27.1591 137.568 27.2727 138.127 27.5 138.585C27.7311 139.04 28.0511 139.386 28.4602 139.625C28.8693 139.86 29.3447 139.977 29.8864 139.977C30.2386 139.977 30.5568 139.928 30.8409 139.83C31.1288 139.727 31.3769 139.576 31.5852 139.375C31.7936 139.17 31.9545 138.917 32.0682 138.614L33.3636 138.977C33.2273 139.417 32.9981 139.803 32.6761 140.136C32.3542 140.466 31.9564 140.723 31.483 140.909C31.0095 141.091 30.4773 141.182 29.8864 141.182ZM35.5398 141V132.273H36.8352V133.591H36.9261C37.0852 133.159 37.3731 132.809 37.7898 132.54C38.2064 132.271 38.6761 132.136 39.1989 132.136C39.2973 132.136 39.4205 132.138 39.5682 132.142C39.7159 132.146 39.8277 132.152 39.9034 132.159V133.523C39.858 133.511 39.7538 133.494 39.5909 133.472C39.4318 133.445 39.2633 133.432 39.0852 133.432C38.661 133.432 38.2822 133.521 37.9489 133.699C37.6193 133.873 37.358 134.116 37.1648 134.426C36.9754 134.733 36.8807 135.083 36.8807 135.477V141H35.5398ZM49.652 141.182C48.8111 141.182 48.0857 140.996 47.4759 140.625C46.8698 140.25 46.402 139.727 46.0724 139.057C45.7467 138.383 45.5838 137.598 45.5838 136.705C45.5838 135.811 45.7467 135.023 46.0724 134.341C46.402 133.655 46.8603 133.121 47.4474 132.739C48.0384 132.352 48.7277 132.159 49.5156 132.159C49.9702 132.159 50.419 132.235 50.8622 132.386C51.3054 132.538 51.7088 132.784 52.0724 133.125C52.4361 133.462 52.7259 133.909 52.9418 134.466C53.1577 135.023 53.2656 135.708 53.2656 136.523V137.091H46.5384V135.932H51.902C51.902 135.439 51.8035 135 51.6065 134.614C51.4134 134.227 51.1368 133.922 50.777 133.699C50.4209 133.475 50.0005 133.364 49.5156 133.364C48.9815 133.364 48.5194 133.496 48.1293 133.761C47.7429 134.023 47.4455 134.364 47.2372 134.784C47.0289 135.205 46.9247 135.655 46.9247 136.136V136.909C46.9247 137.568 47.0384 138.127 47.2656 138.585C47.4967 139.04 47.8168 139.386 48.2259 139.625C48.6349 139.86 49.1103 139.977 49.652 139.977C50.0043 139.977 50.3224 139.928 50.6065 139.83C50.8944 139.727 51.1425 139.576 51.3509 139.375C51.5592 139.17 51.7202 138.917 51.8338 138.614L53.1293 138.977C52.9929 139.417 52.7637 139.803 52.4418 140.136C52.1198 140.466 51.7221 140.723 51.2486 140.909C50.7751 141.091 50.2429 141.182 49.652 141.182ZM61.4872 134.227L60.2827 134.568C60.2069 134.367 60.0952 134.172 59.9474 133.983C59.8035 133.79 59.6065 133.631 59.3565 133.506C59.1065 133.381 58.7865 133.318 58.3963 133.318C57.8622 133.318 57.4171 133.441 57.0611 133.688C56.7088 133.93 56.5327 134.239 56.5327 134.614C56.5327 134.947 56.6539 135.21 56.8963 135.403C57.1387 135.597 57.5175 135.758 58.0327 135.886L59.3281 136.205C60.1084 136.394 60.6899 136.684 61.0724 137.074C61.455 137.46 61.6463 137.958 61.6463 138.568C61.6463 139.068 61.5024 139.515 61.2145 139.909C60.9304 140.303 60.5327 140.614 60.0213 140.841C59.5099 141.068 58.9152 141.182 58.2372 141.182C57.3471 141.182 56.6103 140.989 56.027 140.602C55.4437 140.216 55.0743 139.652 54.919 138.909L56.1918 138.591C56.313 139.061 56.5421 139.413 56.8793 139.648C57.2202 139.883 57.6652 140 58.2145 140C58.8395 140 59.3357 139.867 59.7031 139.602C60.0743 139.333 60.2599 139.011 60.2599 138.636C60.2599 138.333 60.1539 138.08 59.9418 137.875C59.7296 137.667 59.4039 137.511 58.9645 137.409L57.5099 137.068C56.7107 136.879 56.1236 136.585 55.7486 136.188C55.3774 135.786 55.1918 135.284 55.1918 134.682C55.1918 134.189 55.33 133.754 55.6065 133.375C55.8868 132.996 56.2675 132.699 56.7486 132.483C57.2334 132.267 57.7827 132.159 58.3963 132.159C59.2599 132.159 59.938 132.348 60.4304 132.727C60.9266 133.106 61.2789 133.606 61.4872 134.227ZM69.8466 134.227L68.642 134.568C68.5663 134.367 68.4545 134.172 68.3068 133.983C68.1629 133.79 67.9659 133.631 67.7159 133.506C67.4659 133.381 67.1458 133.318 66.7557 133.318C66.2216 133.318 65.7765 133.441 65.4205 133.688C65.0682 133.93 64.892 134.239 64.892 134.614C64.892 134.947 65.0133 135.21 65.2557 135.403C65.4981 135.597 65.8769 135.758 66.392 135.886L67.6875 136.205C68.4678 136.394 69.0492 136.684 69.4318 137.074C69.8144 137.46 70.0057 137.958 70.0057 138.568C70.0057 139.068 69.8617 139.515 69.5739 139.909C69.2898 140.303 68.892 140.614 68.3807 140.841C67.8693 141.068 67.2746 141.182 66.5966 141.182C65.7064 141.182 64.9697 140.989 64.3864 140.602C63.803 140.216 63.4337 139.652 63.2784 138.909L64.5511 138.591C64.6723 139.061 64.9015 139.413 65.2386 139.648C65.5795 139.883 66.0246 140 66.5739 140C67.1989 140 67.6951 139.867 68.0625 139.602C68.4337 139.333 68.6193 139.011 68.6193 138.636C68.6193 138.333 68.5133 138.08 68.3011 137.875C68.089 137.667 67.7633 137.511 67.3239 137.409L65.8693 137.068C65.0701 136.879 64.483 136.585 64.108 136.188C63.7367 135.786 63.5511 135.284 63.5511 134.682C63.5511 134.189 63.6894 133.754 63.9659 133.375C64.2462 132.996 64.6269 132.699 65.108 132.483C65.5928 132.267 66.142 132.159 66.7557 132.159C67.6193 132.159 68.2973 132.348 68.7898 132.727C69.286 133.106 69.6383 133.606 69.8466 134.227ZM75.6832 141.182C74.8423 141.182 74.117 140.996 73.5071 140.625C72.901 140.25 72.4332 139.727 72.1037 139.057C71.7779 138.383 71.6151 137.598 71.6151 136.705C71.6151 135.811 71.7779 135.023 72.1037 134.341C72.4332 133.655 72.8916 133.121 73.4787 132.739C74.0696 132.352 74.759 132.159 75.5469 132.159C76.0014 132.159 76.4503 132.235 76.8935 132.386C77.3366 132.538 77.7401 132.784 78.1037 133.125C78.4673 133.462 78.7571 133.909 78.973 134.466C79.1889 135.023 79.2969 135.708 79.2969 136.523V137.091H72.5696V135.932H77.9332C77.9332 135.439 77.8348 135 77.6378 134.614C77.4446 134.227 77.1681 133.922 76.8082 133.699C76.4522 133.475 76.0317 133.364 75.5469 133.364C75.0128 133.364 74.5507 133.496 74.1605 133.761C73.7741 134.023 73.4768 134.364 73.2685 134.784C73.0601 135.205 72.956 135.655 72.956 136.136V136.909C72.956 137.568 73.0696 138.127 73.2969 138.585C73.5279 139.04 73.848 139.386 74.2571 139.625C74.6662 139.86 75.1416 139.977 75.6832 139.977C76.0355 139.977 76.3537 139.928 76.6378 139.83C76.9257 139.727 77.1738 139.576 77.3821 139.375C77.5904 139.17 77.7514 138.917 77.8651 138.614L79.1605 138.977C79.0241 139.417 78.795 139.803 78.473 140.136C78.151 140.466 77.7533 140.723 77.2798 140.909C76.8063 141.091 76.2741 141.182 75.6832 141.182ZM82.6776 135.75V141H81.3366V132.273H82.6321V133.636H82.7457C82.9503 133.193 83.2609 132.837 83.6776 132.568C84.0942 132.295 84.6321 132.159 85.2912 132.159C85.8821 132.159 86.3991 132.28 86.8423 132.523C87.2855 132.761 87.6302 133.125 87.8764 133.614C88.1226 134.098 88.2457 134.712 88.2457 135.455V141H86.9048V135.545C86.9048 134.86 86.7268 134.326 86.3707 133.943C86.0147 133.557 85.526 133.364 84.9048 133.364C84.4768 133.364 84.0942 133.456 83.7571 133.642C83.4238 133.828 83.1605 134.098 82.9673 134.455C82.7741 134.811 82.6776 135.242 82.6776 135.75ZM94.4915 132.273V133.409H89.9688V132.273H94.4915ZM91.2869 130.182H92.6278V138.5C92.6278 138.879 92.6828 139.163 92.7926 139.352C92.9063 139.538 93.0502 139.663 93.2244 139.727C93.4025 139.788 93.59 139.818 93.7869 139.818C93.9347 139.818 94.0559 139.811 94.1506 139.795C94.2453 139.777 94.321 139.761 94.3778 139.75L94.6506 140.955C94.5597 140.989 94.4328 141.023 94.2699 141.057C94.107 141.095 93.9006 141.114 93.6506 141.114C93.2718 141.114 92.9006 141.032 92.5369 140.869C92.1771 140.706 91.8778 140.458 91.6392 140.125C91.4044 139.792 91.2869 139.371 91.2869 138.864V130.182ZM96.5085 141V132.273H97.8494V141H96.5085ZM97.1903 130.818C96.929 130.818 96.7036 130.729 96.5142 130.551C96.3286 130.373 96.2358 130.159 96.2358 129.909C96.2358 129.659 96.3286 129.445 96.5142 129.267C96.7036 129.089 96.929 129 97.1903 129C97.4517 129 97.6752 129.089 97.8608 129.267C98.0502 129.445 98.1449 129.659 98.1449 129.909C98.1449 130.159 98.0502 130.373 97.8608 130.551C97.6752 130.729 97.4517 130.818 97.1903 130.818ZM102.874 141.205C102.321 141.205 101.819 141.1 101.368 140.892C100.917 140.68 100.559 140.375 100.294 139.977C100.029 139.576 99.8963 139.091 99.8963 138.523C99.8963 138.023 99.9948 137.617 100.192 137.307C100.389 136.992 100.652 136.746 100.982 136.568C101.311 136.39 101.675 136.258 102.072 136.17C102.474 136.08 102.877 136.008 103.283 135.955C103.813 135.886 104.243 135.835 104.572 135.801C104.906 135.763 105.148 135.701 105.3 135.614C105.455 135.527 105.533 135.375 105.533 135.159V135.114C105.533 134.553 105.379 134.117 105.072 133.807C104.769 133.496 104.309 133.341 103.692 133.341C103.052 133.341 102.55 133.481 102.186 133.761C101.822 134.042 101.567 134.341 101.419 134.659L100.146 134.205C100.374 133.674 100.677 133.261 101.055 132.966C101.438 132.667 101.855 132.458 102.305 132.341C102.76 132.22 103.207 132.159 103.646 132.159C103.927 132.159 104.249 132.193 104.612 132.261C104.98 132.326 105.334 132.46 105.675 132.665C106.019 132.869 106.305 133.178 106.533 133.591C106.76 134.004 106.874 134.557 106.874 135.25V141H105.533V139.818H105.464C105.374 140.008 105.222 140.21 105.01 140.426C104.798 140.642 104.516 140.826 104.163 140.977C103.811 141.129 103.381 141.205 102.874 141.205ZM103.078 140C103.608 140 104.055 139.896 104.419 139.688C104.786 139.479 105.063 139.21 105.249 138.881C105.438 138.551 105.533 138.205 105.533 137.841V136.614C105.476 136.682 105.351 136.744 105.158 136.801C104.968 136.854 104.749 136.902 104.499 136.943C104.252 136.981 104.012 137.015 103.777 137.045C103.546 137.072 103.358 137.095 103.214 137.114C102.866 137.159 102.54 137.233 102.237 137.335C101.938 137.434 101.696 137.583 101.51 137.784C101.328 137.981 101.237 138.25 101.237 138.591C101.237 139.057 101.41 139.409 101.754 139.648C102.103 139.883 102.544 140 103.078 140ZM110.662 129.364V141H109.321V129.364H110.662ZM119.3 134.227L118.095 134.568C118.019 134.367 117.908 134.172 117.76 133.983C117.616 133.79 117.419 133.631 117.169 133.506C116.919 133.381 116.599 133.318 116.209 133.318C115.675 133.318 115.23 133.441 114.874 133.688C114.521 133.93 114.345 134.239 114.345 134.614C114.345 134.947 114.466 135.21 114.709 135.403C114.951 135.597 115.33 135.758 115.845 135.886L117.141 136.205C117.921 136.394 118.502 136.684 118.885 137.074C119.268 137.46 119.459 137.958 119.459 138.568C119.459 139.068 119.315 139.515 119.027 139.909C118.743 140.303 118.345 140.614 117.834 140.841C117.322 141.068 116.728 141.182 116.05 141.182C115.16 141.182 114.423 140.989 113.839 140.602C113.256 140.216 112.887 139.652 112.732 138.909L114.004 138.591C114.125 139.061 114.355 139.413 114.692 139.648C115.033 139.883 115.478 140 116.027 140C116.652 140 117.148 139.867 117.516 139.602C117.887 139.333 118.072 139.011 118.072 138.636C118.072 138.333 117.966 138.08 117.754 137.875C117.542 137.667 117.216 137.511 116.777 137.409L115.322 137.068C114.523 136.879 113.936 136.585 113.561 136.188C113.19 135.786 113.004 135.284 113.004 134.682C113.004 134.189 113.143 133.754 113.419 133.375C113.699 132.996 114.08 132.699 114.561 132.483C115.046 132.267 115.595 132.159 116.209 132.159C117.072 132.159 117.75 132.348 118.243 132.727C118.739 133.106 119.091 133.606 119.3 134.227ZM129.273 141.182C128.545 141.182 127.903 140.998 127.347 140.631C126.79 140.259 126.354 139.737 126.04 139.062C125.725 138.384 125.568 137.583 125.568 136.659C125.568 135.742 125.725 134.947 126.04 134.273C126.354 133.598 126.792 133.078 127.352 132.71C127.913 132.343 128.561 132.159 129.295 132.159C129.864 132.159 130.313 132.254 130.642 132.443C130.975 132.629 131.229 132.841 131.403 133.08C131.581 133.314 131.72 133.508 131.818 133.659H131.932V129.364H133.273V141H131.977V139.659H131.818C131.72 139.818 131.58 140.019 131.398 140.261C131.216 140.5 130.956 140.714 130.619 140.903C130.282 141.089 129.833 141.182 129.273 141.182ZM129.455 139.977C129.992 139.977 130.447 139.837 130.818 139.557C131.189 139.273 131.472 138.881 131.665 138.381C131.858 137.877 131.955 137.295 131.955 136.636C131.955 135.985 131.86 135.415 131.67 134.926C131.481 134.434 131.201 134.051 130.83 133.778C130.458 133.502 130 133.364 129.455 133.364C128.886 133.364 128.413 133.509 128.034 133.801C127.659 134.089 127.377 134.481 127.188 134.977C127.002 135.47 126.909 136.023 126.909 136.636C126.909 137.258 127.004 137.822 127.193 138.33C127.386 138.833 127.67 139.235 128.045 139.534C128.424 139.83 128.894 139.977 129.455 139.977ZM135.915 141V132.273H137.256V141H135.915ZM136.597 130.818C136.335 130.818 136.11 130.729 135.92 130.551C135.735 130.373 135.642 130.159 135.642 129.909C135.642 129.659 135.735 129.445 135.92 129.267C136.11 129.089 136.335 129 136.597 129C136.858 129 137.081 129.089 137.267 129.267C137.456 129.445 137.551 129.659 137.551 129.909C137.551 130.159 137.456 130.373 137.267 130.551C137.081 130.729 136.858 130.818 136.597 130.818ZM139.712 141V132.273H141.007V133.591H141.098C141.257 133.159 141.545 132.809 141.962 132.54C142.378 132.271 142.848 132.136 143.371 132.136C143.469 132.136 143.592 132.138 143.74 132.142C143.888 132.146 144 132.152 144.075 132.159V133.523C144.03 133.511 143.926 133.494 143.763 133.472C143.604 133.445 143.435 133.432 143.257 133.432C142.833 133.432 142.454 133.521 142.121 133.699C141.791 133.873 141.53 134.116 141.337 134.426C141.147 134.733 141.053 135.083 141.053 135.477V141H139.712ZM149.058 141.182C148.217 141.182 147.492 140.996 146.882 140.625C146.276 140.25 145.808 139.727 145.479 139.057C145.153 138.383 144.99 137.598 144.99 136.705C144.99 135.811 145.153 135.023 145.479 134.341C145.808 133.655 146.267 133.121 146.854 132.739C147.445 132.352 148.134 132.159 148.922 132.159C149.376 132.159 149.825 132.235 150.268 132.386C150.712 132.538 151.115 132.784 151.479 133.125C151.842 133.462 152.132 133.909 152.348 134.466C152.564 135.023 152.672 135.708 152.672 136.523V137.091H145.945V135.932H151.308C151.308 135.439 151.21 135 151.013 134.614C150.82 134.227 150.543 133.922 150.183 133.699C149.827 133.475 149.407 133.364 148.922 133.364C148.388 133.364 147.926 133.496 147.536 133.761C147.149 134.023 146.852 134.364 146.643 134.784C146.435 135.205 146.331 135.655 146.331 136.136V136.909C146.331 137.568 146.445 138.127 146.672 138.585C146.903 139.04 147.223 139.386 147.632 139.625C148.041 139.86 148.517 139.977 149.058 139.977C149.411 139.977 149.729 139.928 150.013 139.83C150.301 139.727 150.549 139.576 150.757 139.375C150.965 139.17 151.126 138.917 151.24 138.614L152.536 138.977C152.399 139.417 152.17 139.803 151.848 140.136C151.526 140.466 151.128 140.723 150.655 140.909C150.181 141.091 149.649 141.182 149.058 141.182ZM158.257 141.182C157.439 141.182 156.734 140.989 156.143 140.602C155.553 140.216 155.098 139.684 154.78 139.006C154.462 138.328 154.303 137.553 154.303 136.682C154.303 135.795 154.465 135.013 154.791 134.335C155.121 133.653 155.579 133.121 156.166 132.739C156.757 132.352 157.446 132.159 158.234 132.159C158.848 132.159 159.401 132.273 159.893 132.5C160.386 132.727 160.789 133.045 161.104 133.455C161.418 133.864 161.613 134.341 161.689 134.886H160.348C160.246 134.489 160.018 134.136 159.666 133.83C159.318 133.519 158.848 133.364 158.257 133.364C157.734 133.364 157.276 133.5 156.882 133.773C156.492 134.042 156.187 134.422 155.967 134.915C155.751 135.403 155.643 135.977 155.643 136.636C155.643 137.311 155.75 137.898 155.962 138.398C156.178 138.898 156.481 139.286 156.871 139.562C157.265 139.839 157.727 139.977 158.257 139.977C158.606 139.977 158.922 139.917 159.206 139.795C159.49 139.674 159.731 139.5 159.928 139.273C160.125 139.045 160.265 138.773 160.348 138.455H161.689C161.613 138.97 161.426 139.434 161.126 139.847C160.831 140.256 160.439 140.581 159.95 140.824C159.465 141.062 158.901 141.182 158.257 141.182ZM167.445 132.273V133.409H162.922V132.273H167.445ZM164.24 130.182H165.581V138.5C165.581 138.879 165.636 139.163 165.746 139.352C165.859 139.538 166.003 139.663 166.178 139.727C166.356 139.788 166.543 139.818 166.74 139.818C166.888 139.818 167.009 139.811 167.104 139.795C167.198 139.777 167.274 139.761 167.331 139.75L167.604 140.955C167.513 140.989 167.386 141.023 167.223 141.057C167.06 141.095 166.854 141.114 166.604 141.114C166.225 141.114 165.854 141.032 165.49 140.869C165.13 140.706 164.831 140.458 164.592 140.125C164.357 139.792 164.24 139.371 164.24 138.864V130.182ZM170.99 129.364V141H169.649V129.364H170.99ZM174.31 144.273C174.082 144.273 173.88 144.254 173.702 144.216C173.524 144.182 173.401 144.148 173.332 144.114L173.673 142.932C173.999 143.015 174.287 143.045 174.537 143.023C174.787 143 175.009 142.888 175.202 142.688C175.399 142.491 175.579 142.17 175.741 141.727L175.991 141.045L172.764 132.273H174.219L176.628 139.227H176.719L179.128 132.273H180.582L176.878 142.273C176.711 142.723 176.505 143.097 176.259 143.392C176.012 143.691 175.726 143.913 175.401 144.057C175.079 144.201 174.715 144.273 174.31 144.273ZM190.739 132.273V133.409H186.034V132.273H190.739ZM187.443 141V131.068C187.443 130.568 187.561 130.152 187.795 129.818C188.03 129.485 188.335 129.235 188.71 129.068C189.085 128.902 189.481 128.818 189.898 128.818C190.227 128.818 190.496 128.845 190.705 128.898C190.913 128.951 191.068 129 191.17 129.045L190.784 130.205C190.716 130.182 190.621 130.153 190.5 130.119C190.383 130.085 190.227 130.068 190.034 130.068C189.591 130.068 189.271 130.18 189.074 130.403C188.881 130.627 188.784 130.955 188.784 131.386V141H187.443ZM192.618 141V132.273H193.913V133.591H194.004C194.163 133.159 194.451 132.809 194.868 132.54C195.285 132.271 195.754 132.136 196.277 132.136C196.375 132.136 196.499 132.138 196.646 132.142C196.794 132.146 196.906 132.152 196.982 132.159V133.523C196.936 133.511 196.832 133.494 196.669 133.472C196.51 133.445 196.341 133.432 196.163 133.432C195.739 133.432 195.36 133.521 195.027 133.699C194.697 133.873 194.436 134.116 194.243 134.426C194.054 134.733 193.959 135.083 193.959 135.477V141H192.618ZM201.851 141.182C201.063 141.182 200.372 140.994 199.777 140.619C199.186 140.244 198.724 139.72 198.391 139.045C198.061 138.371 197.896 137.583 197.896 136.682C197.896 135.773 198.061 134.979 198.391 134.301C198.724 133.623 199.186 133.097 199.777 132.722C200.372 132.347 201.063 132.159 201.851 132.159C202.639 132.159 203.328 132.347 203.919 132.722C204.514 133.097 204.976 133.623 205.305 134.301C205.639 134.979 205.805 135.773 205.805 136.682C205.805 137.583 205.639 138.371 205.305 139.045C204.976 139.72 204.514 140.244 203.919 140.619C203.328 140.994 202.639 141.182 201.851 141.182ZM201.851 139.977C202.449 139.977 202.942 139.824 203.328 139.517C203.714 139.21 204 138.807 204.186 138.307C204.372 137.807 204.464 137.265 204.464 136.682C204.464 136.098 204.372 135.555 204.186 135.051C204 134.547 203.714 134.14 203.328 133.83C202.942 133.519 202.449 133.364 201.851 133.364C201.252 133.364 200.76 133.519 200.374 133.83C199.987 134.14 199.701 134.547 199.516 135.051C199.33 135.555 199.237 136.098 199.237 136.682C199.237 137.265 199.33 137.807 199.516 138.307C199.701 138.807 199.987 139.21 200.374 139.517C200.76 139.824 201.252 139.977 201.851 139.977ZM207.852 141V132.273H209.148V133.636H209.261C209.443 133.17 209.737 132.809 210.142 132.551C210.547 132.29 211.034 132.159 211.602 132.159C212.178 132.159 212.657 132.29 213.04 132.551C213.426 132.809 213.727 133.17 213.943 133.636H214.034C214.258 133.186 214.593 132.828 215.04 132.562C215.487 132.294 216.023 132.159 216.648 132.159C217.428 132.159 218.066 132.403 218.562 132.892C219.059 133.377 219.307 134.133 219.307 135.159V141H217.966V135.159C217.966 134.515 217.79 134.055 217.438 133.778C217.085 133.502 216.67 133.364 216.193 133.364C215.58 133.364 215.104 133.549 214.767 133.92C214.43 134.288 214.261 134.754 214.261 135.318V141H212.898V135.023C212.898 134.527 212.737 134.127 212.415 133.824C212.093 133.517 211.678 133.364 211.17 133.364C210.822 133.364 210.496 133.456 210.193 133.642C209.894 133.828 209.652 134.085 209.466 134.415C209.284 134.741 209.193 135.117 209.193 135.545V141H207.852ZM230.054 132.273V133.409H225.531V132.273H230.054ZM226.849 130.182H228.19V138.5C228.19 138.879 228.245 139.163 228.355 139.352C228.469 139.538 228.613 139.663 228.787 139.727C228.965 139.788 229.152 139.818 229.349 139.818C229.497 139.818 229.618 139.811 229.713 139.795C229.808 139.777 229.884 139.761 229.94 139.75L230.213 140.955C230.122 140.989 229.995 141.023 229.832 141.057C229.67 141.095 229.463 141.114 229.213 141.114C228.834 141.114 228.463 141.032 228.099 140.869C227.74 140.706 227.44 140.458 227.202 140.125C226.967 139.792 226.849 139.371 226.849 138.864V130.182ZM233.599 135.75V141H232.259V129.364H233.599V133.636H233.713C233.918 133.186 234.224 132.828 234.634 132.562C235.046 132.294 235.596 132.159 236.281 132.159C236.876 132.159 237.397 132.278 237.844 132.517C238.291 132.752 238.637 133.114 238.884 133.602C239.134 134.087 239.259 134.705 239.259 135.455V141H237.918V135.545C237.918 134.852 237.738 134.316 237.378 133.938C237.022 133.555 236.527 133.364 235.895 133.364C235.455 133.364 235.062 133.456 234.713 133.642C234.368 133.828 234.096 134.098 233.895 134.455C233.698 134.811 233.599 135.242 233.599 135.75ZM245.371 141.182C244.53 141.182 243.804 140.996 243.195 140.625C242.589 140.25 242.121 139.727 241.791 139.057C241.465 138.383 241.303 137.598 241.303 136.705C241.303 135.811 241.465 135.023 241.791 134.341C242.121 133.655 242.579 133.121 243.166 132.739C243.757 132.352 244.446 132.159 245.234 132.159C245.689 132.159 246.138 132.235 246.581 132.386C247.024 132.538 247.428 132.784 247.791 133.125C248.155 133.462 248.445 133.909 248.661 134.466C248.876 135.023 248.984 135.708 248.984 136.523V137.091H242.257V135.932H247.621C247.621 135.439 247.522 135 247.325 134.614C247.132 134.227 246.856 133.922 246.496 133.699C246.14 133.475 245.719 133.364 245.234 133.364C244.7 133.364 244.238 133.496 243.848 133.761C243.462 134.023 243.164 134.364 242.956 134.784C242.748 135.205 242.643 135.655 242.643 136.136V136.909C242.643 137.568 242.757 138.127 242.984 138.585C243.215 139.04 243.536 139.386 243.945 139.625C244.354 139.86 244.829 139.977 245.371 139.977C245.723 139.977 246.041 139.928 246.325 139.83C246.613 139.727 246.861 139.576 247.07 139.375C247.278 139.17 247.439 138.917 247.553 138.614L248.848 138.977C248.712 139.417 248.482 139.803 248.161 140.136C247.839 140.466 247.441 140.723 246.967 140.909C246.494 141.091 245.962 141.182 245.371 141.182ZM256.183 141H254.706L258.979 129.364H260.433L264.706 141H263.229L259.751 131.205H259.661L256.183 141ZM256.729 136.455H262.683V137.705H256.729V136.455ZM266.337 144.273V132.273H267.632V133.659H267.791C267.89 133.508 268.026 133.314 268.2 133.08C268.378 132.841 268.632 132.629 268.962 132.443C269.295 132.254 269.746 132.159 270.314 132.159C271.049 132.159 271.696 132.343 272.257 132.71C272.818 133.078 273.255 133.598 273.57 134.273C273.884 134.947 274.041 135.742 274.041 136.659C274.041 137.583 273.884 138.384 273.57 139.062C273.255 139.737 272.82 140.259 272.263 140.631C271.706 140.998 271.064 141.182 270.337 141.182C269.776 141.182 269.327 141.089 268.99 140.903C268.653 140.714 268.393 140.5 268.212 140.261C268.03 140.019 267.89 139.818 267.791 139.659H267.678V144.273H266.337ZM267.655 136.636C267.655 137.295 267.751 137.877 267.945 138.381C268.138 138.881 268.42 139.273 268.791 139.557C269.162 139.837 269.617 139.977 270.155 139.977C270.715 139.977 271.183 139.83 271.558 139.534C271.937 139.235 272.221 138.833 272.411 138.33C272.604 137.822 272.7 137.258 272.7 136.636C272.7 136.023 272.606 135.47 272.416 134.977C272.231 134.481 271.948 134.089 271.57 133.801C271.195 133.509 270.723 133.364 270.155 133.364C269.609 133.364 269.151 133.502 268.78 133.778C268.409 134.051 268.128 134.434 267.939 134.926C267.75 135.415 267.655 135.985 267.655 136.636ZM276.087 144.273V132.273H277.382V133.659H277.541C277.64 133.508 277.776 133.314 277.95 133.08C278.128 132.841 278.382 132.629 278.712 132.443C279.045 132.254 279.496 132.159 280.064 132.159C280.799 132.159 281.446 132.343 282.007 132.71C282.568 133.078 283.005 133.598 283.32 134.273C283.634 134.947 283.791 135.742 283.791 136.659C283.791 137.583 283.634 138.384 283.32 139.062C283.005 139.737 282.57 140.259 282.013 140.631C281.456 140.998 280.814 141.182 280.087 141.182C279.526 141.182 279.077 141.089 278.74 140.903C278.403 140.714 278.143 140.5 277.962 140.261C277.78 140.019 277.64 139.818 277.541 139.659H277.428V144.273H276.087ZM277.405 136.636C277.405 137.295 277.501 137.877 277.695 138.381C277.888 138.881 278.17 139.273 278.541 139.557C278.912 139.837 279.367 139.977 279.905 139.977C280.465 139.977 280.933 139.83 281.308 139.534C281.687 139.235 281.971 138.833 282.161 138.33C282.354 137.822 282.45 137.258 282.45 136.636C282.45 136.023 282.356 135.47 282.166 134.977C281.981 134.481 281.698 134.089 281.32 133.801C280.945 133.509 280.473 133.364 279.905 133.364C279.359 133.364 278.901 133.502 278.53 133.778C278.159 134.051 277.878 134.434 277.689 134.926C277.5 135.415 277.405 135.985 277.405 136.636ZM286.814 141.091C286.534 141.091 286.293 140.991 286.092 140.79C285.892 140.589 285.791 140.348 285.791 140.068C285.791 139.788 285.892 139.547 286.092 139.347C286.293 139.146 286.534 139.045 286.814 139.045C287.094 139.045 287.335 139.146 287.536 139.347C287.736 139.547 287.837 139.788 287.837 140.068C287.837 140.254 287.789 140.424 287.695 140.58C287.604 140.735 287.481 140.86 287.325 140.955C287.174 141.045 287.003 141.091 286.814 141.091Z" fill="#030D25"/>
</svg>
