<svg width="56" height="56" viewBox="0 0 56 56" fill="none" xmlns="http://www.w3.org/2000/svg">
<rect width="56" height="56" rx="28" fill="#DAF2FF"/>
<g clip-path="url(#clip0_23_1311)">
<path d="M12.9374 41.8116H14.8123C15.33 41.8116 15.7497 41.3919 15.7497 40.8742V30.5625H12.9374C12.4197 30.5625 12 30.9822 12 31.4999V40.8742C12 41.3918 12.4197 41.8116 12.9374 41.8116Z" fill="#2D9CDB"/>
<path d="M36.4982 13.6885C32.3563 13.6885 28.9988 17.046 28.9988 21.1879C28.9988 25.3296 32.3563 28.6873 36.4982 28.6873C40.64 28.6873 43.9976 25.3296 43.9976 21.1879C43.9976 17.046 40.64 13.6885 36.4982 13.6885ZM38.0692 24.5617C37.8661 24.6632 37.6533 24.7432 37.4355 24.8036V25.0627C37.4355 25.5804 37.0158 26.0001 36.4981 26.0001C35.9803 26.0001 35.5606 25.5804 35.5606 25.0627V24.833C35.1704 24.7347 34.8065 24.5695 34.4982 24.3384C34.0841 24.0278 34.0001 23.4402 34.3107 23.026C34.6214 22.6119 35.209 22.5278 35.6231 22.8385C35.9981 23.1197 36.7193 23.1406 37.2307 22.8849C37.4362 22.7821 37.5472 22.6583 37.5472 22.5941C37.5472 22.482 37.5472 22.4646 37.4224 22.3981C37.1778 22.2675 36.7454 22.1873 36.3271 22.1097C35.7687 22.0061 35.1913 21.899 34.691 21.632C33.9603 21.242 33.5741 20.6022 33.5741 19.7819C33.5741 18.9606 34.0666 18.2432 34.9254 17.8139C35.1289 17.7121 35.3423 17.6315 35.5606 17.571V17.3133C35.5606 16.7956 35.9803 16.3759 36.4981 16.3759C37.0158 16.3759 37.4355 16.7956 37.4355 17.3133V17.5429C37.8258 17.6412 38.1896 17.8065 38.4979 18.0376C38.9121 18.3483 38.996 18.9359 38.6854 19.35C38.3747 19.7642 37.7873 19.8482 37.373 19.5375C36.9975 19.2558 36.2756 19.235 35.7638 19.4908C35.5571 19.5941 35.449 19.7154 35.449 19.7818C35.449 19.894 35.449 19.9113 35.5737 19.9779C35.8183 20.1085 36.2508 20.1887 36.669 20.2663C37.2274 20.3699 37.8048 20.477 38.3052 20.744C39.0358 21.134 39.422 21.7738 39.422 22.5941C39.4221 23.4146 38.9289 24.1318 38.0692 24.5617Z" fill="#2D9CDB"/>
<path d="M28.9238 42.3113H29.13C32.2798 42.2738 35.2982 41.3802 37.9606 39.7677L43.1914 36.1118C44.0725 35.4931 44.2413 34.3307 43.6601 33.5058C43.0602 32.6433 41.8978 32.4371 41.0541 33.0371L36.0295 36.5618C34.4171 37.4992 32.4486 37.7055 30.6674 37.1055L24.8866 35.193C24.3992 35.0431 24.1366 34.4994 24.3054 34.012C24.4553 33.5433 24.9428 33.2808 25.4303 33.4121C25.449 33.4121 31.9235 35.5119 31.9235 35.5119C33.0138 35.8387 33.9824 35.2218 34.2858 34.312C34.6045 33.3183 34.0608 32.2683 33.0859 31.9497L24.2679 29.0624C22.3391 28.3603 19.74 28.5053 17.6246 29.6882V40.1825L24.9803 41.8489C26.3277 42.1453 27.6499 42.3113 28.9238 42.3113Z" fill="#2D9CDB"/>
</g>
<defs>
<clipPath id="clip0_23_1311">
<rect width="32" height="32" fill="white" transform="translate(12 12)"/>
</clipPath>
</defs>
</svg>
