<svg width="40" height="40" viewBox="0 0 40 40" fill="none" xmlns="http://www.w3.org/2000/svg">
<rect width="40" height="40" rx="20" fill="#DAF2FF"/>
<path d="M14.6421 9.49414L15.8754 8.81914L17.006 10.8849L15.7727 11.5599L14.6421 9.49414Z" fill="#2D9CDB"/>
<path d="M22.9683 10.8916L24.0989 8.82586L25.3322 9.50086L24.2015 11.5666L22.9683 10.8916Z" fill="#2D9CDB"/>
<path d="M19.2847 8H20.6909V9.74023H19.2847V8Z" fill="#2D9CDB"/>
<path d="M26.7847 12.25L28.015 11.0197L29.0092 12.0139L27.7789 13.2442L26.7847 12.25Z" fill="#2D9CDB"/>
<path d="M11.0459 12.0117L12.0401 11.0175L13.2705 12.2478L12.2762 13.2421L11.0459 12.0117Z" fill="#2D9CDB"/>
<path d="M10.9878 17.5312H17.7847V19.2969H10.9878V17.5312Z" fill="#2D9CDB"/>
<path d="M22.1909 17.5312H28.9878V19.2969H22.1909V17.5312Z" fill="#2D9CDB"/>
<path d="M19.1909 17.5312H20.7847V19.2969H19.1909V17.5312Z" fill="#2D9CDB"/>
<path d="M19.1909 20.7031H20.7847V32H19.1909V20.7031Z" fill="#2D9CDB"/>
<path d="M22.1909 20.7031H28.047V32H22.1909V20.7031Z" fill="#2D9CDB"/>
<path d="M23.5542 16.125C23.9528 15.7417 24.2011 15.2034 24.2011 14.6068C24.2009 13.4249 23.2235 12.4992 22.0943 12.5C20.9307 12.5 19.9875 13.4432 19.9875 14.6068C19.9875 13.4432 19.0443 12.5 17.8807 12.5C16.6988 12.5002 15.7731 13.4777 15.7739 14.6068C15.7741 15.2091 16.0283 15.7445 16.4267 16.125H23.5542Z" fill="#2D9CDB"/>
<path d="M11.9282 20.7031H17.7843V32H11.9282V20.7031Z" fill="#2D9CDB"/>
</svg>
