<svg width="40" height="40" viewBox="0 0 40 40" fill="none" xmlns="http://www.w3.org/2000/svg">
<rect width="40" height="40" rx="20" fill="#DAF2FF"/>
<path d="M27 11H22.82C22.4 9.84 21.3 9 20 9C18.7 9 17.6 9.84 17.18 11H13C11.9 11 11 11.9 11 13V27C11 28.1 11.9 29 13 29H27C28.1 29 29 28.1 29 27V13C29 11.9 28.1 11 27 11ZM20 11C20.55 11 21 11.45 21 12C21 12.55 20.55 13 20 13C19.45 13 19 12.55 19 12C19 11.45 19.45 11 20 11ZM22 25H15V23H22V25ZM25 21H15V19H25V21ZM25 17H15V15H25V17Z" fill="#2D9CDB"/>
</svg>
