<svg width="56" height="56" viewBox="0 0 56 56" fill="none" xmlns="http://www.w3.org/2000/svg">
<rect width="56" height="56" rx="28" fill="#E7F9E8"/>
<g clip-path="url(#clip0_23_1341)">
<path d="M29.6246 27.3764C29.6246 22.9035 33.2695 19.2646 37.7498 19.2646C37.7603 19.2646 37.7708 19.265 37.7813 19.265V16.0693C37.7813 15.5516 37.3616 15.1318 36.8438 15.1318H28.4268V22.8071C28.4268 23.3249 28.007 23.7446 27.4893 23.7446H22.2921C21.7744 23.7446 21.3546 23.3249 21.3546 22.8071V15.1318H12.9375C12.4197 15.1318 12 15.5516 12 16.0693V39.9311C12 40.4489 12.4197 40.8686 12.9375 40.8686H36.8438C37.3616 40.8686 37.7813 40.4489 37.7813 39.9311V35.4878C37.7708 35.4878 37.7603 35.4881 37.7498 35.4881C33.2695 35.4882 29.6246 31.8493 29.6246 27.3764Z" fill="#6FCF97"/>
<path d="M23.2297 15.1318H26.5519V21.8696H23.2297V15.1318Z" fill="#6FCF97"/>
<path d="M37.7497 21.1396C34.3033 21.1396 31.4995 23.9375 31.4995 27.3765C31.4995 30.8154 34.3033 33.6133 37.7497 33.6133C41.1961 33.6133 43.9999 30.8154 43.9999 27.3765C43.9999 23.9375 41.1961 21.1396 37.7497 21.1396ZM40.971 26.6561L37.7704 29.8508C37.5874 30.0335 37.3478 30.1248 37.1081 30.1248C36.8684 30.1248 36.6288 30.0335 36.4458 29.8508L34.5291 27.9378C34.1626 27.572 34.1621 26.9784 34.5278 26.612C34.8937 26.2455 35.4872 26.245 35.8536 26.6107L37.108 27.8627L39.6464 25.3291C40.0128 24.9633 40.6064 24.9638 40.9722 25.3303C41.338 25.6968 41.3375 26.2904 40.971 26.6561Z" fill="#6FCF97"/>
</g>
<defs>
<clipPath id="clip0_23_1341">
<rect width="32" height="32" fill="white" transform="translate(12 12)"/>
</clipPath>
</defs>
</svg>
