<svg width="57" height="56" viewBox="0 0 57 56" fill="none" xmlns="http://www.w3.org/2000/svg">
<rect x="0.5" width="56" height="56" rx="28" fill="#DAF2FF"/>
<g clip-path="url(#clip0_23_1331)">
<path d="M30.1246 27.3754C30.1246 22.9025 33.7695 19.2636 38.2498 19.2636C38.2603 19.2636 38.2708 19.264 38.2813 19.264V16.0684C38.2813 15.5506 37.8616 15.1309 37.3438 15.1309H28.9268V22.8062C28.9268 23.3239 28.507 23.7437 27.9893 23.7437H22.7921C22.2744 23.7437 21.8546 23.3239 21.8546 22.8062V15.1309H13.4375C12.9197 15.1309 12.5 15.5506 12.5 16.0684V39.9302C12.5 40.4479 12.9197 40.8677 13.4375 40.8677H37.3438C37.8616 40.8677 38.2813 40.4479 38.2813 39.9302V35.4868C38.2708 35.4869 38.2603 35.4872 38.2498 35.4872C33.7695 35.4872 30.1246 31.8483 30.1246 27.3754Z" fill="#2D9CDB"/>
<path d="M23.7305 15.1309H27.0526V21.8687H23.7305V15.1309Z" fill="#2D9CDB"/>
<path d="M38 33C34.6862 33 32 30.3138 32 27C32 23.6862 34.6862 21 38 21C41.3138 21 44 23.6862 44 27C44 30.3138 41.3138 33 38 33ZM37.4 26.4H35V27.6H37.4V30H38.6V27.6H41V26.4H38.6V24H37.4V26.4Z" fill="#2D9CDB"/>
</g>
<defs>
<clipPath id="clip0_23_1331">
<rect width="32" height="32" fill="white" transform="translate(12.5 12)"/>
</clipPath>
</defs>
</svg>
