<svg width="56" height="56" viewBox="0 0 56 56" fill="none" xmlns="http://www.w3.org/2000/svg">
<rect width="56" height="56" rx="28" fill="#FFF7DD"/>
<path d="M16 18.6667V37.3333C16 38.8 17.1867 40 18.6667 40H37.3333C38.8 40 40 38.8 40 37.3333V18.6667C40 17.2 38.8 16 37.3333 16H18.6667C17.1867 16 16 17.2 16 18.6667ZM32 24C32 26.2133 30.2133 28 28 28C25.7867 28 24 26.2133 24 24C24 21.7867 25.7867 20 28 20C30.2133 20 32 21.7867 32 24ZM20 34.6667C20 32 25.3333 30.5333 28 30.5333C30.6667 30.5333 36 32 36 34.6667V36H20V34.6667Z" fill="#F2C94C"/>
</svg>
