<svg width="56" height="56" viewBox="0 0 56 56" fill="none" xmlns="http://www.w3.org/2000/svg">
<rect width="56" height="56" rx="28" fill="#FFF7DD"/>
<path d="M28 12C19.1772 12 12 19.1772 12 28C12 36.8228 19.1772 44 28 44C36.8228 44 44 36.8228 44 28C44 19.1772 36.8228 12 28 12ZM35.6094 36.2759C35.3494 36.5359 35.0081 36.6667 34.6667 36.6667C34.3254 36.6667 33.9839 36.5359 33.7241 36.2759L27.0574 29.6094C26.8066 29.3601 26.6667 29.0212 26.6667 28.6667V20C26.6667 19.2627 27.2639 18.6667 28 18.6667C28.7361 18.6667 29.3333 19.2627 29.3333 20V28.1147L35.6094 34.3906C36.1306 34.9121 36.1306 35.7546 35.6094 36.2759Z" fill="#F2C94C"/>
</svg>
