<svg width="24" height="19" viewBox="0 0 24 19" fill="none" xmlns="http://www.w3.org/2000/svg">
<path d="M23.0168 2.74835H21.8911V1.81284C21.8911 1.07116 21.2877 0.467773 20.546 0.467773H19.4731C18.7314 0.467773 18.1281 1.07116 18.1281 1.81284V5.66393H16.3301V4.63C16.3301 3.87961 15.7196 3.2692 14.9693 3.2692C14.6745 3.2692 14.4015 3.36377 14.1786 3.52375C13.9593 3.06562 13.4912 2.74835 12.9503 2.74835C12.439 2.74835 11.9927 3.03184 11.7603 3.44992C11.5306 3.27281 11.2432 3.16689 10.9313 3.16689C10.458 3.16689 10.0408 3.41006 9.79698 3.77778C9.55887 3.57354 9.24989 3.44978 8.91238 3.44978C8.162 3.44978 7.55158 4.0602 7.55158 4.81058V5.66402H5.87206V4.67225C5.87206 4.47818 5.71476 4.32093 5.52073 4.32093C5.32671 4.32093 5.16941 4.47818 5.16941 4.67225V12.8339C5.16941 13.1881 4.88123 13.4762 4.52704 13.4762H3.45395C3.09972 13.4762 2.81159 13.1881 2.81159 12.8339V1.81284C2.81159 1.45861 3.09977 1.17042 3.45395 1.17042H4.5269C4.88113 1.17042 5.16927 1.45861 5.16927 1.81284V3.17495C5.16927 3.36902 5.32657 3.52627 5.52059 3.52627C5.71462 3.52627 5.87192 3.36902 5.87192 3.17495V1.81284C5.87192 1.07116 5.26853 0.467773 4.5269 0.467773H3.45395C2.71228 0.467773 2.10894 1.07116 2.10894 1.81284V2.74835H0.98315C0.441031 2.74835 0 3.18938 0 3.73145V10.9152C0 11.4573 0.441031 11.8983 0.98315 11.8983H2.10894V12.8338C2.10894 13.5755 2.71233 14.1788 3.45395 14.1788H4.5269C5.26857 14.1788 5.87192 13.5755 5.87192 12.8338V8.98274H7.07589V9.62426C7.07589 9.95394 7.19122 10.2758 7.4007 10.5304L8.49178 11.857V18.1812C8.49178 18.3752 8.64908 18.5325 8.8431 18.5325C9.03713 18.5325 9.19443 18.3752 9.19443 18.1812V11.731C9.19443 11.6496 9.16614 11.5707 9.11442 11.5078L7.94334 10.084C7.83705 9.95483 7.77849 9.79154 7.77849 9.62426V8.98274L14.4227 9.02335C14.6167 9.02335 14.774 8.8661 14.774 8.67203C14.774 8.47795 14.6167 8.3207 14.4227 8.3207H12.8241C12.4944 8.3207 12.226 8.05238 12.226 7.72265C12.226 7.39287 12.4944 7.12455 12.8241 7.12455H15.8449C16.0525 7.12455 16.2214 7.29338 16.2214 7.50094V9.62421C16.2214 9.79149 16.1628 9.95483 16.0565 10.084L14.8854 11.5078C14.8337 11.5707 14.8054 11.6495 14.8054 11.731V12.6576C14.8054 12.8517 14.9627 13.0089 15.1568 13.0089C15.3508 13.0089 15.5081 12.8517 15.5081 12.6576V11.8569L16.5992 10.5304C16.8086 10.2757 16.924 9.9539 16.924 9.62421V8.98269H18.1279V12.8338C18.1279 13.5754 18.7313 14.1788 19.473 14.1788H20.5459C21.2876 14.1788 21.8909 13.5754 21.8909 12.8338V11.8983H23.0167C23.5588 11.8983 23.9999 11.4572 23.9999 10.9151V3.73145C24 3.18938 23.559 2.74835 23.0168 2.74835ZM0.98315 11.1957C0.828473 11.1957 0.702652 11.0698 0.702652 10.9152V3.73145C0.702652 3.57677 0.828473 3.451 0.98315 3.451H2.10894V11.1957H0.98315ZM14.9692 3.97185C15.3322 3.97185 15.6274 4.2671 15.6274 4.63V5.93801C15.6274 6.12351 15.5487 6.29805 15.414 6.42195H14.5244C14.3897 6.29805 14.311 6.12351 14.311 5.93801V4.63C14.311 4.2671 14.6063 3.97185 14.9692 3.97185ZM12.2921 4.10915C12.2921 3.74625 12.5873 3.451 12.9502 3.451C13.3131 3.451 13.6084 3.74625 13.6084 4.10915V5.93801C13.6084 6.12351 13.5297 6.29805 13.395 6.42195H12.8242C12.7272 6.42195 12.6328 6.43296 12.5418 6.45319C12.3854 6.32971 12.292 6.14178 12.292 5.93801V4.10915H12.2921ZM10.2731 4.52765C10.2731 4.16475 10.5683 3.8695 10.9312 3.8695C11.2941 3.8695 11.5894 4.16475 11.5894 4.52765V5.93796C11.5894 6.30091 11.2942 6.59616 10.9312 6.59616C10.5683 6.59616 10.2731 6.30091 10.2731 5.93796V4.52765ZM8.25409 4.81053C8.25409 4.44764 8.54935 4.15238 8.91224 4.15238C9.27514 4.15238 9.57039 4.44764 9.57039 4.81053V5.93801C9.57039 6.30095 9.27514 6.59621 8.91224 6.59621C8.54935 6.59621 8.25409 6.30095 8.25409 5.93801V4.81053ZM5.87196 6.36658H7.62101C7.80102 6.90753 8.31167 7.29881 8.91229 7.29881C9.31243 7.29881 9.67275 7.12511 9.92196 6.8493C10.1712 7.12507 10.5312 7.29881 10.9313 7.29881C11.2211 7.29881 11.4894 7.20686 11.7103 7.05181C11.5918 7.2478 11.5235 7.47738 11.5235 7.72265C11.5235 7.92202 11.5687 8.11103 11.6493 8.28004H5.87196V6.36658ZM16.9241 8.28009V7.50099C16.9241 7.03555 16.6279 6.63804 16.2141 6.48697C16.2314 6.44767 16.2468 6.40747 16.2604 6.36658H18.1281V8.28009H16.9241ZM23.2973 10.9152C23.2973 11.0698 23.1715 11.1957 23.0168 11.1957H21.8911V10.1804C21.8911 9.98631 21.7338 9.82906 21.5397 9.82906C21.3457 9.82906 21.1884 9.98631 21.1884 10.1804V12.8338C21.1884 13.1881 20.9002 13.4762 20.546 13.4762H19.4731C19.1189 13.4762 18.8307 13.1881 18.8307 12.8338V1.81284C18.8307 1.45861 19.1189 1.17042 19.4731 1.17042H20.546C20.9003 1.17042 21.1884 1.45861 21.1884 1.81284V8.68313C21.1884 8.8772 21.3457 9.03445 21.5397 9.03445C21.7338 9.03445 21.8911 8.8772 21.8911 8.68313V3.451H23.0168C23.1715 3.451 23.2973 3.57682 23.2973 3.73145V10.9152Z" fill="#6E7191"/>
<path d="M15.156 13.8037C14.962 13.8037 14.8047 13.961 14.8047 14.155V18.1813C14.8047 18.3753 14.962 18.5326 15.156 18.5326C15.35 18.5326 15.5073 18.3753 15.5073 18.1813V14.155C15.5073 13.961 15.3501 13.8037 15.156 13.8037Z" fill="#6E7191"/>
</svg>
