<svg width="32" height="32" viewBox="0 0 32 32" fill="none" xmlns="http://www.w3.org/2000/svg">
<circle opacity="0.1" cx="16" cy="16" r="16" fill="white"/>
<path d="M15.9992 12.1472C13.8709 12.1472 12.1467 13.8722 12.1467 15.9997C12.1467 18.1281 13.8709 19.8531 15.9992 19.8531C18.1259 19.8531 19.8517 18.1281 19.8517 15.9997C19.8517 13.8722 18.1259 12.1472 15.9992 12.1472ZM15.9992 18.5031C14.6167 18.5031 13.4959 17.3822 13.4959 16.0006C13.4959 14.6181 14.6167 13.4981 15.9992 13.4981C17.3817 13.4981 18.5009 14.6181 18.5009 16.0006C18.5009 17.3822 17.3817 18.5031 15.9992 18.5031Z" fill="white"/>
<path d="M20.005 12.9039C20.5012 12.9039 20.9034 12.5017 20.9034 12.0056C20.9034 11.5094 20.5012 11.1072 20.005 11.1072C19.5089 11.1072 19.1067 11.5094 19.1067 12.0056C19.1067 12.5017 19.5089 12.9039 20.005 12.9039Z" fill="white"/>
<path d="M23.1109 11.0922C22.72 10.0847 21.9242 9.28807 20.9167 8.89891C20.3342 8.67974 19.7184 8.56224 19.095 8.54891C18.2925 8.51391 18.0384 8.50391 16.0034 8.50391C13.9684 8.50391 13.7075 8.50391 12.9117 8.54891C12.29 8.56141 11.6742 8.67891 11.0917 8.89891C10.0834 9.28807 9.28754 10.0847 8.89754 11.0922C8.67838 11.6756 8.56088 12.2906 8.54838 12.9139C8.51254 13.7156 8.50171 13.9697 8.50171 16.0056C8.50171 18.0406 8.50171 18.2997 8.54838 19.0972C8.56088 19.7206 8.67838 20.3356 8.89754 20.9197C9.28838 21.9264 10.0842 22.7231 11.0925 23.1131C11.6725 23.3397 12.2884 23.4681 12.9134 23.4881C13.7159 23.5231 13.97 23.5339 16.005 23.5339C18.04 23.5339 18.3009 23.5339 19.0967 23.4881C19.7192 23.4756 20.335 23.3572 20.9184 23.1389C21.9259 22.7481 22.7217 21.9522 23.1125 20.9447C23.3317 20.3614 23.4492 19.7464 23.4617 19.1231C23.4975 18.3214 23.5084 18.0672 23.5084 16.0314C23.5084 13.9956 23.5084 13.7372 23.4617 12.9397C23.4509 12.3081 23.3342 11.6822 23.1109 11.0922ZM22.0959 19.0356C22.09 19.5156 22.0034 19.9914 21.8367 20.4422C21.5825 21.0981 21.065 21.6164 20.41 21.8681C19.9642 22.0339 19.4942 22.1206 19.0184 22.1272C18.2267 22.1639 18.0034 22.1731 15.9734 22.1731C13.9417 22.1731 13.7342 22.1731 12.9275 22.1272C12.4534 22.1214 11.9817 22.0339 11.5367 21.8681C10.8792 21.6172 10.3584 21.0989 10.1042 20.4422C9.94088 19.9972 9.85254 19.5264 9.84504 19.0514C9.80921 18.2597 9.80088 18.0364 9.80088 16.0064C9.80088 13.9756 9.80088 13.7681 9.84504 12.9606C9.85088 12.4806 9.93754 12.0056 10.1042 11.5547C10.3584 10.8972 10.8792 10.3797 11.5367 10.1281C11.9817 9.96307 12.4534 9.87557 12.9275 9.86891C13.72 9.83307 13.9425 9.82307 15.9734 9.82307C18.0042 9.82307 18.2125 9.82307 19.0184 9.86891C19.4942 9.87474 19.9642 9.96224 20.41 10.1281C21.065 10.3806 21.5825 10.8989 21.8367 11.5547C22 11.9997 22.0884 12.4706 22.0959 12.9456C22.1317 13.7381 22.1409 13.9606 22.1409 15.9914C22.1409 18.0214 22.1409 18.2397 22.105 19.0364H22.0959V19.0356Z" fill="white"/>
</svg>
