<svg width="40" height="40" viewBox="0 0 40 40" fill="none" xmlns="http://www.w3.org/2000/svg">
<rect width="40" height="40" rx="20" fill="#FFF7DD"/>
<path d="M20 8C13.3829 8 8 13.3829 8 20C8 26.6171 13.3829 32 20 32C26.6171 32 32 26.6171 32 20C32 13.3829 26.6171 8 20 8ZM25.707 26.2069C25.512 26.4019 25.256 26.5001 25.0001 26.5001C24.7441 26.5001 24.4879 26.4019 24.2931 26.2069L19.293 21.207C19.105 21.0201 19.0001 20.7659 19.0001 20.5001V14C19.0001 13.447 19.4479 13.0001 20 13.0001C20.5521 13.0001 20.9999 13.447 20.9999 14V20.0861L25.707 24.793C26.098 25.1841 26.098 25.816 25.707 26.2069Z" fill="#F2C94C"/>
</svg>
