<svg width="48" height="48" viewBox="0 0 48 48" fill="none" xmlns="http://www.w3.org/2000/svg">
<path d="M0 24C0 10.7452 10.7452 0 24 0C37.2548 0 48 10.7452 48 24C48 37.2548 37.2548 48 24 48C10.7452 48 0 37.2548 0 24Z" fill="#FCE8E8"/>
<g clip-path="url(#clip0_42_1048)">
<path d="M35.3813 29.618C35.4446 29.2927 35.4238 28.9225 35.3168 28.5372C34.6154 26.0106 32.5166 20.8376 30.7725 18.7071C30.3148 18.148 29.4332 18.1963 28.922 18.7071C28.6971 18.9321 28.5722 19.2186 28.5455 19.5125C28.4086 19.3858 28.2349 19.2984 28.0433 19.2734C28.0433 19.2734 23.6197 18.7221 23.5661 18.7291H21.5544C20.8989 18.7291 20.7071 19.1093 20.7071 19.5765V26.0342H19.2307V19.1091C19.2307 18.7665 18.9519 18.4877 18.6093 18.4877H12.6214C12.2788 18.4877 12 18.7665 12 19.1091C12 19.1091 12.0021 28.8334 12.0021 29.4624C12.0021 30.1849 12.5879 30.7706 13.3104 30.7706H14.5941C14.5278 31.0407 14.492 31.3226 14.492 31.6129C14.492 33.562 16.0779 35.1476 18.0273 35.1476C19.9766 35.1476 21.5624 33.562 21.5624 31.6129C21.5624 31.3226 21.5265 31.0407 21.4603 30.7706H25.4169V31.6374C25.4169 32.3226 25.9743 32.8801 26.6596 32.8801H26.6834C27.0148 32.8801 27.326 32.7502 27.5595 32.5143C27.793 32.2784 27.9197 31.966 27.9164 31.6346L27.9076 30.7706H29.0318C28.9655 31.0407 28.9296 31.3226 28.9296 31.6129C28.9296 33.562 30.5156 35.1476 32.465 35.1476C34.4142 35.1476 36.0001 33.562 36.0001 31.6129C36 30.8733 35.7712 30.1862 35.3813 29.618ZM32.4649 30.2788C33.2005 30.2788 33.7989 30.8773 33.7989 31.6129C33.7989 32.3485 33.2005 32.947 32.4649 32.947C31.729 32.947 31.1303 32.3485 31.1303 31.6129C31.1303 30.8773 31.7289 30.2788 32.4649 30.2788ZM19.3613 31.6129C19.3613 32.3485 18.7629 32.947 18.0273 32.947C17.2914 32.947 16.6927 32.3485 16.6927 31.6129C16.6927 30.8773 17.2914 30.2788 18.0273 30.2788C18.7629 30.2788 19.3613 30.8773 19.3613 31.6129ZM27.861 26.2247C27.854 25.541 27.2921 24.9848 26.6084 24.9848H24.5405V20.7621L25.5517 20.8863C25.634 21.2645 25.9702 21.5479 26.373 21.5479H29.9125L30.1868 23.8337L27.8676 26.8701L27.861 26.2247Z" fill="#E93821"/>
<path d="M22.3162 17.8237C23.6868 17.8237 24.8019 16.7086 24.8019 15.338C24.8019 15.1637 24.7836 14.9936 24.7493 14.8294L25.2947 14.8186C25.6196 14.8122 25.9698 14.586 26.1093 14.2924L26.2922 13.9075C26.379 13.7247 26.3745 13.5337 26.2796 13.3836C26.1848 13.2337 26.0146 13.1476 25.8107 13.1476L23.5001 13.153C23.1479 12.9614 22.7445 12.8525 22.3162 12.8525C20.9456 12.8525 19.8306 13.9675 19.8306 15.3381C19.8306 16.7086 20.9457 17.8237 22.3162 17.8237Z" fill="#E93821"/>
</g>
<defs>
<clipPath id="clip0_42_1048">
<rect width="24" height="24" fill="white" transform="translate(12 12)"/>
</clipPath>
</defs>
</svg>
