<svg width="72" height="72" viewBox="0 0 72 72" fill="none" xmlns="http://www.w3.org/2000/svg">
<path d="M0 36C0 16.1177 16.1177 0 36 0V0C55.8823 0 72 16.1177 72 36V36C72 55.8823 55.8823 72 36 72V72C16.1177 72 0 55.8823 0 36V36Z" fill="#F4F5F7"/>
<path d="M36 26C32.13 26 29 29.13 29 33C29 38.25 36 46 36 46C36 46 43 38.25 43 33C43 29.13 39.87 26 36 26ZM36 35.5C34.62 35.5 33.5 34.38 33.5 33C33.5 31.62 34.62 30.5 36 30.5C37.38 30.5 38.5 31.62 38.5 33C38.5 34.38 37.38 35.5 36 35.5Z" fill="#030D25"/>
</svg>
