<svg width="72" height="72" viewBox="0 0 72 72" fill="none" xmlns="http://www.w3.org/2000/svg">
<path d="M0 36C0 16.1178 16.1178 0 36 0C55.8823 0 72 16.1178 72 36C72 55.8823 55.8823 72 36 72C16.1178 72 0 55.8823 0 36Z" fill="#F4F5F7"/>
<g clip-path="url(#clip0_303_1713)">
<path d="M47.3813 41.618C47.4446 41.2927 47.4238 40.9225 47.3168 40.5372C46.6154 38.0106 44.5166 32.8376 42.7725 30.7071C42.3148 30.148 41.4332 30.1963 40.922 30.7071C40.6971 30.9321 40.5722 31.2186 40.5455 31.5125C40.4086 31.3858 40.2349 31.2984 40.0433 31.2734C40.0433 31.2734 35.6197 30.7221 35.5661 30.7291H33.5544C32.8989 30.7291 32.7071 31.1093 32.7071 31.5765V38.0342H31.2307V31.1091C31.2307 30.7665 30.9519 30.4877 30.6093 30.4877H24.6214C24.2788 30.4877 24 30.7665 24 31.1091C24 31.1091 24.0021 40.8334 24.0021 41.4624C24.0021 42.1849 24.5879 42.7706 25.3104 42.7706H26.5941C26.5278 43.0407 26.492 43.3226 26.492 43.6129C26.492 45.562 28.0779 47.1476 30.0273 47.1476C31.9766 47.1476 33.5624 45.562 33.5624 43.6129C33.5624 43.3226 33.5265 43.0407 33.4603 42.7706H37.4169V43.6374C37.4169 44.3226 37.9743 44.8801 38.6596 44.8801H38.6834C39.0148 44.8801 39.326 44.7502 39.5595 44.5143C39.793 44.2784 39.9197 43.966 39.9164 43.6346L39.9076 42.7706H41.0318C40.9655 43.0407 40.9296 43.3226 40.9296 43.6129C40.9296 45.562 42.5156 47.1476 44.465 47.1476C46.4142 47.1476 48.0001 45.562 48.0001 43.6129C48 42.8733 47.7712 42.1862 47.3813 41.618ZM44.4649 42.2788C45.2005 42.2788 45.7989 42.8773 45.7989 43.6129C45.7989 44.3485 45.2005 44.947 44.4649 44.947C43.729 44.947 43.1303 44.3485 43.1303 43.6129C43.1303 42.8773 43.7289 42.2788 44.4649 42.2788ZM31.3613 43.6129C31.3613 44.3485 30.7629 44.947 30.0273 44.947C29.2914 44.947 28.6927 44.3485 28.6927 43.6129C28.6927 42.8773 29.2914 42.2788 30.0273 42.2788C30.7629 42.2788 31.3613 42.8773 31.3613 43.6129ZM39.861 38.2247C39.854 37.541 39.2921 36.9848 38.6084 36.9848H36.5405V32.7621L37.5517 32.8863C37.634 33.2645 37.9702 33.5479 38.373 33.5479H41.9125L42.1868 35.8337L39.8676 38.8701L39.861 38.2247Z" fill="#030D25"/>
<path d="M34.3162 29.8237C35.6868 29.8237 36.8019 28.7086 36.8019 27.338C36.8019 27.1637 36.7836 26.9936 36.7493 26.8294L37.2947 26.8186C37.6196 26.8122 37.9698 26.586 38.1093 26.2924L38.2922 25.9075C38.379 25.7247 38.3745 25.5337 38.2796 25.3836C38.1848 25.2337 38.0146 25.1476 37.8107 25.1476L35.5001 25.153C35.1479 24.9614 34.7445 24.8525 34.3162 24.8525C32.9456 24.8525 31.8306 25.9675 31.8306 27.3381C31.8306 28.7086 32.9457 29.8237 34.3162 29.8237Z" fill="#030D25"/>
</g>
<defs>
<clipPath id="clip0_303_1713">
<rect width="24" height="24" fill="white" transform="translate(24 24)"/>
</clipPath>
</defs>
</svg>
