<svg width="72" height="70" viewBox="0 0 72 70" fill="none" xmlns="http://www.w3.org/2000/svg">
<path d="M0 34C0 14.1177 16.1177 -2 36 -2V-2C55.8823 -2 72 14.1177 72 34V34C72 53.8823 55.8823 70 36 70V70C16.1177 70 0 53.8823 0 34V34Z" fill="#FCE8E8"/>
<path d="M42.06 44.99H43.72C44.56 44.99 45.25 44.35 45.35 43.53L47 27.05H42V23H40.03V27.05H35.06L35.36 29.39C37.07 29.86 38.67 30.71 39.63 31.65C41.07 33.07 42.06 34.54 42.06 36.94V44.99V44.99ZM25 43.99V43H40.03V43.99C40.03 44.54 39.58 44.99 39.02 44.99H26.01C25.45 44.99 25 44.54 25 43.99V43.99ZM40.03 36.99C40.03 28.99 25 28.99 25 36.99H40.03ZM25.02 39H40.02V41H25.02V39Z" fill="#E93821"/>
</svg>
