<svg width="72" height="72" viewBox="0 0 72 72" fill="none" xmlns="http://www.w3.org/2000/svg">
<path d="M0 36C0 16.1178 16.1178 0 36 0C55.8823 0 72 16.1178 72 36C72 55.8823 55.8823 72 36 72C16.1178 72 0 55.8823 0 36Z" fill="#F4F5F7"/>
<path d="M43 27H38.82C38.4 25.84 37.3 25 36 25C34.7 25 33.6 25.84 33.18 27H29C27.9 27 27 27.9 27 29V43C27 44.1 27.9 45 29 45H43C44.1 45 45 44.1 45 43V29C45 27.9 44.1 27 43 27ZM36 27C36.55 27 37 27.45 37 28C37 28.55 36.55 29 36 29C35.45 29 35 28.55 35 28C35 27.45 35.45 27 36 27ZM38 41H31V39H38V41ZM41 37H31V35H41V37ZM41 33H31V31H41V33Z" fill="#030D25"/>
</svg>
