<svg width="200" height="200" viewBox="0 0 200 200" fill="none" xmlns="http://www.w3.org/2000/svg">
<path d="M51.7725 70.024C57.4925 55.256 74.4805 45.808 90.0445 48.744C97.3725 50.124 104.896 53.884 111.916 51.368C117.392 49.408 120.892 44.108 123.492 38.904C126.092 33.7 128.32 28.072 132.672 24.212C138.672 18.908 147.76 18.124 155.276 20.852C161.276 23.028 166.556 27.348 169.38 33.06C173.432 41.248 171.936 51.5 166.884 59.108C161.832 66.716 153.684 71.872 144.988 74.708C132.218 78.8792 118.395 78.4876 105.88 73.6C98.6805 70.752 92.0245 66.444 84.5605 64.336C77.0965 62.228 68.1005 62.848 62.9045 68.608C61.3805 70.296 60.2765 72.324 58.7965 74.056C57.3165 75.788 55.2845 77.256 53.0085 77.256C50.7325 77.256 48.4365 75.164 48.8885 72.932" fill="#EBEBEB"/>
<path d="M71.696 25.2004C68.732 26.0964 66.58 29.2244 66.896 32.3004C67.212 35.3764 70.084 38.0004 73.176 38.0004C76.268 38.0004 79.156 35.2284 79.156 32.1324C79.156 27.7164 74.8 25.0044 71.696 25.2004Z" fill="#EBEBEB"/>
<path d="M186.908 165.668C186.908 165.724 147.456 165.772 98.8044 165.772C50.1524 165.772 10.6924 165.724 10.6924 165.668C10.6924 165.612 50.1364 165.564 98.8044 165.564C147.472 165.564 186.908 165.6 186.908 165.668Z" fill="#263238"/>
<path d="M52.3725 158C48.0245 157.552 34.0885 157.256 29.7885 158.024C25.4885 158.792 20.5445 162.712 18.7045 166.208C16.6365 170.132 16.9885 177.644 20.2645 180.836C23.5405 184.028 29.4165 183.076 34.2645 183.756C39.1125 184.436 44.0565 184.188 48.9685 184.06C79.8165 183.26 110.897 187.26 141.409 183.02C145.301 182.484 149.433 181.692 152.185 179.208C155.229 176.46 155.829 172.344 156.269 168.544C156.617 165.54 156.881 162.236 154.885 159.788C153.577 158.188 151.465 157.232 149.233 156.832C152.805 152.476 154.557 149.264 154.741 145.552C155.065 138.988 153.349 134.124 152.961 127.632C152.573 121.14 152.561 114.508 154.453 108.288C155.609 104.5 157.325 99.968 154.745 96.968C153.257 95.236 150.817 94.736 148.561 94.368C121.553 89.968 93.9965 89.888 66.7045 91.832C63.4485 92.064 59.8405 92.496 57.7245 94.98C56.0245 96.98 55.7445 99.832 56.0645 102.436C56.3845 105.04 57.2165 107.564 57.4405 110.176C58.5005 122.576 40.9005 143.796 52.3725 158Z" fill="#F2575D"/>
<g opacity="0.5">
<path opacity="0.5" d="M52.3725 158C48.0245 157.552 34.0885 157.256 29.7885 158.024C25.4885 158.792 20.5445 162.712 18.7045 166.208C16.6365 170.132 16.9885 177.644 20.2645 180.836C23.5405 184.028 29.4165 183.076 34.2645 183.756C39.1125 184.436 44.0565 184.188 48.9685 184.06C79.8165 183.26 110.897 187.26 141.409 183.02C145.301 182.484 149.433 181.692 152.185 179.208C155.229 176.46 155.829 172.344 156.269 168.544C156.617 165.54 156.881 162.236 154.885 159.788C153.577 158.188 151.465 157.232 149.233 156.832C152.805 152.476 154.557 149.264 154.741 145.552C155.065 138.988 153.349 134.124 152.961 127.632C152.573 121.14 152.561 114.508 154.453 108.288C155.609 104.5 157.325 99.968 154.745 96.968C153.257 95.236 150.817 94.736 148.561 94.368C121.553 89.968 93.9965 89.888 66.7045 91.832C63.4485 92.064 59.8405 92.496 57.7245 94.98C56.0245 96.98 55.7445 99.832 56.0645 102.436C56.3845 105.04 57.2165 107.564 57.4405 110.176C58.5005 122.576 40.9005 143.796 52.3725 158Z" fill="white"/>
</g>
<path d="M57.9521 94.7282C57.9521 94.7282 58.4121 94.4602 59.3361 94.0442C60.6872 93.4372 62.111 93.0069 63.5721 92.7642C65.4721 92.4282 67.8321 92.3642 70.5601 92.2122C73.2881 92.0602 76.3961 91.9482 79.8361 91.8322C86.7081 91.6002 94.9001 91.4722 103.996 91.5522C113.092 91.6322 123.088 91.9522 133.564 92.5802L137.468 92.8322C138.758 92.8848 140.043 93.0184 141.316 93.2322C142.589 93.432 143.802 93.9115 144.868 94.6362C145.385 95.0107 145.839 95.4659 146.212 95.9842C146.571 96.5056 146.854 97.0753 147.052 97.6762C147.432 98.8606 147.568 100.11 147.452 101.348C147.331 102.552 147.094 103.742 146.744 104.9C146.42 106.048 146.044 107.164 145.748 108.284C145.452 109.404 145.176 110.524 144.948 111.636C144.105 115.855 143.823 120.167 144.108 124.46C144.237 126.403 144.485 128.336 144.848 130.248C145.188 132.092 145.648 133.848 146.048 135.504C146.916 138.828 147.648 141.868 147.888 144.6C148.128 146.935 147.966 149.293 147.408 151.572C147.192 152.394 146.909 153.196 146.564 153.972C146.3 154.54 145.998 155.089 145.66 155.616L145.28 156.168L144.98 156.544C144.816 156.748 144.728 156.848 144.728 156.848C144.728 156.848 144.804 156.736 144.964 156.532C145.04 156.428 145.14 156.3 145.256 156.132L145.624 155.576C145.955 155.049 146.249 154.5 146.504 153.932C146.843 153.155 147.12 152.353 147.332 151.532C147.87 149.259 148.019 146.911 147.772 144.588C147.528 141.868 146.78 138.844 145.908 135.52C145.48 133.856 145.02 132.108 144.672 130.26C143.492 124.087 143.517 117.744 144.744 111.58C144.972 110.464 145.224 109.336 145.544 108.212C145.864 107.088 146.216 105.968 146.536 104.824C146.88 103.678 147.115 102.502 147.236 101.312C147.347 100.098 147.211 98.873 146.836 97.7122C146.648 97.1318 146.379 96.581 146.036 96.0762C145.677 95.5758 145.239 95.1368 144.74 94.7762C143.698 94.0696 142.512 93.6011 141.268 93.4042C140.003 93.1934 138.726 93.0598 137.444 93.0042L133.544 92.7522C123.068 92.1242 113.076 91.8002 103.984 91.7082C94.8921 91.6162 86.7041 91.7322 79.8321 91.9442C76.3961 92.0482 73.2881 92.1682 70.5561 92.2962C67.8241 92.4242 65.4721 92.4842 63.5761 92.8082C62.1198 93.0437 60.6983 93.4589 59.3441 94.0442C58.8801 94.2442 58.5441 94.4082 58.3001 94.5242L57.9521 94.7282Z" fill="#263238"/>
<path d="M156.496 171.016L156.148 171.116L155.116 171.38L151.148 172.4L148.276 173.12C147.224 173.368 146.072 173.604 144.84 173.876C142.368 174.396 139.568 175.076 136.44 175.596L131.532 176.492C130.68 176.66 129.804 176.772 128.912 176.912L126.188 177.312L123.368 177.736C122.888 177.804 122.408 177.884 121.924 177.948L120.452 178.12L114.348 178.844C105.988 179.692 96.7481 180.3 87.0521 180.408C77.3561 180.516 68.1041 180.008 59.7281 179.292L53.6001 178.664L52.1241 178.512C51.6361 178.46 51.1561 178.388 50.6761 178.324L47.8481 177.948L45.1161 177.584C44.2241 177.46 43.3441 177.364 42.4881 177.208L37.5681 176.408C34.4241 175.928 31.6121 175.308 29.1361 174.808C27.8961 174.556 26.7361 174.34 25.6841 174.108L22.8001 173.44L18.8001 172.5L17.7641 172.252C17.5321 172.196 17.4121 172.16 17.4121 172.16C17.4121 172.16 17.5361 172.18 17.7681 172.232L18.8081 172.46L22.8081 173.36L25.7121 174C26.7721 174.224 27.9281 174.436 29.1641 174.68C31.6441 175.148 34.4561 175.76 37.6001 176.228L42.5201 177.028C43.3761 177.18 44.2561 177.276 45.1481 177.4L47.8801 177.756L50.7041 178.128C51.1841 178.188 51.6641 178.26 52.1521 178.312L53.6281 178.46L59.7361 179.072C68.1081 179.772 77.3361 180.224 87.0441 180.172C96.7521 180.12 105.964 179.46 114.32 178.624L120.42 177.912L121.892 177.74C122.376 177.68 122.856 177.6 123.336 177.532L126.136 177.112L128.86 176.712C129.752 176.576 130.632 176.468 131.48 176.312L136.4 175.432C139.532 174.912 142.332 174.256 144.8 173.744C146.032 173.48 147.2 173.248 148.24 173.008L151.112 172.304L155.088 171.34L156.124 171.096L156.496 171.016Z" fill="#263238"/>
<path d="M52.3721 158H52.6201L53.3481 158.044L56.1481 158.236C57.3481 158.324 58.8441 158.436 60.5721 158.524C62.3001 158.612 64.2601 158.756 66.4321 158.836C68.6041 158.916 70.9841 159.044 73.5401 159.104C74.8161 159.14 76.1401 159.192 77.5001 159.212L81.7001 159.28C87.4481 159.344 93.7721 159.32 100.404 159.168C113.676 158.844 125.676 158.168 134.36 157.68L144.644 157.088L147.444 156.936L148.168 156.9H148.4L148.156 156.928L147.428 156.98L144.628 157.176L134.344 157.832C125.664 158.356 113.66 159.056 100.384 159.38C93.7481 159.532 87.4241 159.552 81.6721 159.476L77.4721 159.4C76.1081 159.376 74.7881 159.32 73.5081 159.284C70.9521 159.212 68.5721 159.088 66.4001 158.988C64.2281 158.888 62.2641 158.744 60.5401 158.644C58.8161 158.544 57.3401 158.42 56.1401 158.32L53.3401 158.092L52.6121 158.024L52.3721 158Z" fill="#263238"/>
<path d="M129.948 181.844C129.884 181.844 129.768 180.644 129.348 179.26C128.928 177.876 128.388 176.796 128.444 176.764C128.612 176.966 128.747 177.192 128.844 177.436C129.407 178.572 129.77 179.796 129.916 181.056C129.97 181.315 129.981 181.581 129.948 181.844Z" fill="#263238"/>
<path d="M133.484 180.192C133.36 179.464 133.188 178.745 132.968 178.04C132.679 177.36 132.344 176.702 131.964 176.068C132.493 176.61 132.902 177.258 133.164 177.968C133.426 178.679 133.535 179.437 133.484 180.192Z" fill="#263238"/>
<path d="M142.336 138.688C143.05 138.814 143.783 138.784 144.484 138.6C145.186 138.416 145.839 138.083 146.4 137.624C146.4 137.624 146.268 137.844 145.952 138.1C145.534 138.43 145.053 138.671 144.538 138.808C144.024 138.946 143.487 138.977 142.96 138.9C142.738 138.878 142.525 138.805 142.336 138.688Z" fill="#263238"/>
<path d="M142.092 133.889C142.124 133.833 142.832 134.197 143.772 134.429C144.712 134.661 145.504 134.685 145.504 134.749C144.3 134.885 143.087 134.579 142.092 133.889Z" fill="#263238"/>
<path d="M139.88 43.9037C144.625 43.9037 148.472 40.057 148.472 35.3117C148.472 30.5665 144.625 26.7197 139.88 26.7197C135.135 26.7197 131.288 30.5665 131.288 35.3117C131.288 40.057 135.135 43.9037 139.88 43.9037Z" fill="#F2575D"/>
<path d="M143.532 32.7033C141.932 30.3953 139.88 32.4073 139.88 32.4073C139.88 32.4073 137.832 30.4073 136.228 32.7033C134.536 35.1393 137.744 38.0153 139.88 39.0273C142.02 37.9993 145.224 35.1393 143.532 32.7033Z" fill="white"/>
<path d="M112.8 23.4037C112.353 23.2549 111.918 23.0704 111.5 22.8517C110.7 22.4877 109.612 21.9677 108.412 21.3837C108.394 21.3753 108.379 21.362 108.369 21.3453C108.358 21.3287 108.353 21.3094 108.353 21.2897C108.353 21.27 108.358 21.2507 108.369 21.2341C108.379 21.2174 108.394 21.2041 108.412 21.1957L108.464 21.1717C109.7 20.6277 110.824 20.1477 111.64 19.8117C112.074 19.6078 112.524 19.438 112.984 19.3037C112.571 19.5457 112.142 19.7595 111.7 19.9437C110.9 20.3197 109.784 20.8197 108.548 21.3637L108.496 21.3877V21.1997C109.696 21.7877 110.776 22.3277 111.556 22.7237C111.986 22.9205 112.402 23.1478 112.8 23.4037Z" fill="#263238"/>
<path d="M118.076 35.9511C118.052 35.9271 118.328 35.5911 118.704 34.9991C119.69 33.4556 120.249 31.6776 120.324 29.8471C120.352 29.1471 120.324 28.7111 120.352 28.7071C120.38 28.7031 120.388 28.8111 120.416 29.0111C120.454 29.2882 120.473 29.5675 120.472 29.8471C120.478 31.7193 119.904 33.5473 118.828 35.0791C118.667 35.3102 118.492 35.5307 118.304 35.7391C118.168 35.8831 118.088 35.9591 118.076 35.9511Z" fill="white"/>
<path d="M156.768 64.3163C156.768 64.3163 156.768 64.2363 156.744 64.0843C156.72 63.9323 156.72 63.6843 156.7 63.3963C156.7 63.2483 156.68 63.0763 156.668 62.8923C156.656 62.7083 156.612 62.4923 156.576 62.2923C156.513 61.7882 156.413 61.2895 156.276 60.8003C155.94 59.4518 155.4 58.1623 154.676 56.9763C153.629 55.2296 152.225 53.7247 150.554 52.5608C148.883 51.3969 146.985 50.6006 144.984 50.2243C144.384 50.1138 143.777 50.0443 143.168 50.0163C142.86 50.0163 142.548 49.9763 142.236 49.9803L141.284 50.0283C141.128 50.0283 140.964 50.0283 140.808 50.0603L140.328 50.1323C140.008 50.1883 139.684 50.2243 139.364 50.2883C138.715 50.4364 138.077 50.6248 137.452 50.8523C136.811 51.0824 136.187 51.3563 135.584 51.6723C135.28 51.8363 134.988 52.0283 134.692 52.2083C134.387 52.3838 134.097 52.5831 133.824 52.8043C133.253 53.2288 132.711 53.6897 132.2 54.1843C131.695 54.7052 131.226 55.2598 130.796 55.8443L130.464 56.2883L130.176 56.7563L129.888 57.2323C129.787 57.3875 129.698 57.5507 129.624 57.7203C129.46 58.0563 129.3 58.3923 129.136 58.7323C128.972 59.0723 128.876 59.4363 128.736 59.7923C127.749 62.7263 127.749 65.9024 128.736 68.8363C128.864 69.1923 128.992 69.5443 129.136 69.8963C129.28 70.2483 129.46 70.5723 129.62 70.9083C129.696 71.0777 129.786 71.2408 129.888 71.3963L130.176 71.8723L130.464 72.3443L130.8 72.8003C131.23 73.3861 131.699 73.942 132.204 74.4643C132.715 74.9589 133.257 75.4199 133.828 75.8443C134.1 76.0646 134.389 76.2638 134.692 76.4403C134.992 76.6203 135.284 76.8123 135.588 76.9763C136.191 77.2855 136.815 77.5528 137.456 77.7763C138.08 78.0044 138.719 78.1915 139.368 78.3363C139.688 78.4043 140.012 78.4403 140.332 78.4963L140.812 78.5683C140.972 78.5683 141.132 78.5683 141.288 78.6003L142.24 78.6483C142.552 78.6483 142.864 78.6243 143.176 78.6123C143.784 78.5841 144.389 78.5146 144.988 78.4043C147.183 77.9962 149.252 77.0782 151.028 75.7243C152.495 74.6132 153.737 73.2309 154.684 71.6523C155.408 70.4646 155.947 69.1739 156.284 67.8243C156.42 67.3361 156.522 66.8389 156.588 66.3363C156.62 66.1203 156.66 65.9363 156.676 65.7363C156.692 65.5363 156.7 65.3803 156.708 65.2323C156.728 64.9363 156.744 64.7083 156.752 64.5443C156.76 64.3803 156.776 64.3123 156.776 64.3123C156.776 64.3123 156.776 64.3923 156.776 64.5443C156.776 64.6963 156.776 64.9443 156.752 65.2323C156.752 65.3843 156.752 65.5523 156.728 65.7403C156.704 65.9283 156.676 66.1403 156.648 66.3443C156.589 66.8505 156.495 67.3518 156.364 67.8443C156.038 69.2062 155.506 70.5105 154.788 71.7123C153.738 73.4815 152.325 75.0079 150.642 76.1904C148.959 77.373 147.044 78.1848 145.024 78.5723C144.421 78.6888 143.812 78.765 143.2 78.8003C142.888 78.8003 142.572 78.8403 142.252 78.8363L141.292 78.7923C141.132 78.7923 140.968 78.7923 140.808 78.7603L140.324 78.6883C140 78.6323 139.672 78.5963 139.344 78.5283C138.686 78.384 138.04 78.1956 137.408 77.9643C136.758 77.7317 136.124 77.4551 135.512 77.1363C135.204 76.9683 134.908 76.7763 134.604 76.5963C134.298 76.4157 134.005 76.2139 133.728 75.9923C132.539 75.1417 131.499 74.0996 130.652 72.9083L130.316 72.4643L130 72.0003L129.704 71.5203C129.603 71.3616 129.513 71.1958 129.436 71.0243L128.944 70.0003L128.544 68.9203C127.544 65.9447 127.544 62.7239 128.544 59.7483C128.676 59.3883 128.808 59.0283 128.944 58.6723L129.44 57.6483C129.515 57.4751 129.606 57.3091 129.712 57.1523L130.004 56.6683L130.296 56.1923L130.632 55.7443C131.478 54.5529 132.517 53.5118 133.708 52.6643C133.984 52.4414 134.277 52.2395 134.584 52.0603C134.888 51.8803 135.184 51.6883 135.492 51.5203C136.104 51.2016 136.738 50.9249 137.388 50.6923C138.02 50.4611 138.666 50.2726 139.324 50.1283C139.652 50.0603 139.98 50.0243 140.304 49.9683L140.788 49.8963C140.948 49.8963 141.112 49.8963 141.272 49.8643L142.232 49.8203C142.552 49.8203 142.868 49.8443 143.18 49.8563C143.796 49.8885 144.409 49.962 145.016 50.0763C147.036 50.4609 148.952 51.2716 150.635 52.4545C152.318 53.6374 153.73 55.1652 154.776 56.9363C155.497 58.1372 156.03 59.4417 156.356 60.8043C156.486 61.2955 156.581 61.7955 156.64 62.3003C156.668 62.5203 156.704 62.7243 156.72 62.9083C156.736 63.0923 156.72 63.2643 156.744 63.4163C156.744 63.7123 156.752 63.9403 156.768 64.1003C156.772 64.2363 156.768 64.3163 156.768 64.3163Z" fill="#F2575D"/>
<path d="M119.974 28.496C119.974 28.496 119.974 28.416 119.95 28.264C119.926 28.112 119.926 27.864 119.906 27.576C119.906 27.428 119.886 27.256 119.874 27.072C119.862 26.888 119.818 26.672 119.782 26.472C119.719 25.9679 119.619 25.4692 119.482 24.98C119.146 23.6314 118.606 22.342 117.882 21.156C116.835 19.4093 115.431 17.9044 113.76 16.7405C112.089 15.5766 110.191 14.7803 108.19 14.404C107.59 14.2934 106.983 14.224 106.374 14.196C106.066 14.196 105.754 14.156 105.442 14.16L104.49 14.208C104.334 14.208 104.17 14.208 104.014 14.24L103.534 14.312C103.214 14.368 102.89 14.404 102.57 14.468C101.921 14.6161 101.283 14.8044 100.658 15.032C100.017 15.262 99.3928 15.536 98.7898 15.852C98.4858 16.016 98.1938 16.208 97.8978 16.388C97.5932 16.5635 97.303 16.7628 97.0298 16.984C96.4592 17.4084 95.9167 17.8694 95.4058 18.364C94.9007 18.8849 94.4317 19.4395 94.0018 20.024L93.6698 20.468L93.3818 20.936L93.0938 21.412C92.9926 21.5672 92.9043 21.7304 92.8298 21.9C92.6658 22.236 92.5058 22.572 92.3418 22.912C92.1778 23.252 92.0818 23.616 91.9418 23.972C90.9552 26.906 90.9552 30.082 91.9418 33.016C92.0698 33.372 92.1978 33.724 92.3418 34.076C92.4858 34.428 92.6658 34.752 92.8258 35.088C92.9024 35.2573 92.992 35.4205 93.0938 35.576L93.3818 36.052L93.6698 36.524L94.0058 36.98C94.4356 37.5658 94.9047 38.1217 95.4098 38.644C95.9207 39.1386 96.4632 39.5996 97.0338 40.024C97.3063 40.2443 97.5951 40.4435 97.8978 40.62C98.1978 40.8 98.4898 40.992 98.7938 41.156C99.3974 41.4652 100.022 41.7325 100.662 41.956C101.286 42.1841 101.925 42.3711 102.574 42.516C102.894 42.584 103.218 42.62 103.538 42.676L104.018 42.748C104.178 42.748 104.338 42.748 104.494 42.78L105.446 42.828C105.758 42.828 106.07 42.804 106.382 42.792C106.99 42.7638 107.595 42.6943 108.194 42.584C110.389 42.1759 112.458 41.2579 114.234 39.904C115.702 38.7928 116.943 37.4106 117.89 35.832C118.614 34.6443 119.153 33.3536 119.49 32.004C119.626 31.5158 119.728 31.0186 119.794 30.516C119.826 30.3 119.866 30.116 119.882 29.916C119.898 29.716 119.906 29.56 119.914 29.412C119.934 29.116 119.95 28.888 119.958 28.724C119.966 28.56 119.982 28.492 119.982 28.492C119.982 28.492 119.982 28.572 119.982 28.724C119.982 28.876 119.982 29.124 119.958 29.412C119.958 29.564 119.958 29.732 119.934 29.92C119.91 30.108 119.882 30.32 119.854 30.524C119.795 31.0302 119.701 31.5315 119.57 32.024C119.244 33.3859 118.712 34.6902 117.994 35.892C116.944 37.6612 115.531 39.1876 113.848 40.3701C112.165 41.5527 110.25 42.3645 108.23 42.752C107.628 42.8685 107.018 42.9447 106.406 42.98C106.094 42.98 105.778 43.02 105.458 43.016L104.498 42.972C104.338 42.972 104.174 42.972 104.014 42.94L103.53 42.868C103.206 42.812 102.878 42.776 102.55 42.708C101.893 42.5637 101.246 42.3753 100.614 42.144C99.9637 41.9114 99.3302 41.6347 98.7178 41.316C98.4098 41.148 98.1138 40.956 97.8098 40.776C97.504 40.5954 97.2113 40.3936 96.9338 40.172C95.7447 39.3214 94.7053 38.2793 93.8578 37.088L93.5218 36.644L93.2058 36.18L92.9098 35.7C92.8088 35.5413 92.7192 35.3755 92.6418 35.204L92.1498 34.18L91.7498 33.1C90.7501 30.1244 90.7501 26.9036 91.7498 23.928C91.8818 23.568 92.0138 23.208 92.1498 22.852L92.6458 21.828C92.7213 21.6548 92.8123 21.4888 92.9178 21.332L93.2098 20.848L93.5018 20.372L93.8378 19.924C94.6838 18.7326 95.7235 17.6915 96.9138 16.844C97.1903 16.6211 97.4831 16.4192 97.7898 16.24C98.0938 16.06 98.3898 15.868 98.6978 15.7C99.3102 15.3813 99.9437 15.1046 100.594 14.872C101.226 14.6407 101.873 14.4523 102.53 14.308C102.858 14.24 103.186 14.204 103.51 14.148L103.994 14.076C104.154 14.076 104.318 14.076 104.478 14.044L105.438 14C105.758 14 106.074 14.024 106.386 14.036C107.002 14.0682 107.615 14.1417 108.222 14.256C110.243 14.6406 112.158 15.4513 113.841 16.6342C115.524 17.817 116.936 19.3449 117.982 21.116C118.703 22.3169 119.236 23.6214 119.562 24.984C119.692 25.4752 119.787 25.9752 119.846 26.48C119.874 26.7 119.91 26.904 119.926 27.088C119.942 27.272 119.926 27.444 119.95 27.596C119.95 27.892 119.958 28.12 119.974 28.28C119.978 28.416 119.974 28.496 119.974 28.496Z" fill="#F2575D"/>
<path d="M114.344 75.232C114.895 74.1136 115.831 73.2316 116.98 72.748C117.555 72.5183 118.181 72.4457 118.793 72.5378C119.405 72.6299 119.982 72.8833 120.464 73.272C120.929 73.6804 121.237 74.2392 121.333 74.8511C121.428 75.4629 121.306 76.089 120.988 76.62C121.586 76.5 122.205 76.5319 122.788 76.7127C123.371 76.8934 123.899 77.2174 124.324 77.6549C124.75 78.0924 125.059 78.6296 125.223 79.2173C125.387 79.805 125.402 80.4245 125.265 81.0192C125.128 81.6139 124.845 82.1649 124.44 82.6217C124.036 83.0786 123.523 83.4268 122.949 83.6346C122.375 83.8423 121.759 83.903 121.155 83.811C120.552 83.719 119.982 83.4773 119.496 83.108C119.403 83.5634 119.196 83.9876 118.893 84.3402C118.59 84.6928 118.202 84.9621 117.766 85.1225C117.33 85.2828 116.86 85.3289 116.401 85.2564C115.942 85.1838 115.509 84.9951 115.144 84.708C113.304 83.268 113.724 79.908 111.676 78.784" fill="#263238"/>
<path d="M112.908 80.64C113.665 79.8417 114.23 78.8803 114.558 77.8298C114.886 76.7793 114.969 75.6675 114.8 74.58C114.71 74.2895 114.71 73.9785 114.8 73.688C115.032 73.208 115.78 73.192 116.18 73.548C116.552 73.9425 116.768 74.4584 116.788 75C116.972 76.4202 116.836 77.8636 116.388 79.224C116.224 79.7723 115.952 80.2823 115.588 80.724C115.406 80.9442 115.18 81.1238 114.924 81.2512C114.669 81.3787 114.389 81.4512 114.104 81.464C113.837 81.4826 113.572 81.4116 113.35 81.2623C113.129 81.1131 112.963 80.894 112.88 80.64" fill="#F2575D"/>
<path d="M111.676 59.6362C110.912 57.5162 107.276 55.7002 105.3 54.6402C102.328 53.0602 99.6317 53.4882 98.0157 55.0402C94.9157 52.6122 90.8717 50.3162 87.0997 51.4402C83.3277 52.5642 80.3677 56.5562 81.1997 60.4002C81.6837 62.6682 83.3317 64.6602 83.3157 66.9802C83.3157 68.5602 82.5157 70.0122 81.8997 71.4682C81.2837 72.9242 80.8237 74.6082 81.4677 76.0522C82.0677 77.3962 83.4677 78.2002 84.2677 79.4442C84.9037 80.4562 85.0877 81.6842 85.5117 82.8042C87.0837 86.9562 92.1197 89.1442 96.4717 88.2602C100.824 87.3762 104.356 83.9602 106.292 79.9642C108.228 75.9682 108.76 71.4402 108.852 67.0002" fill="#263238"/>
<path d="M95.3602 58.7722C94.4014 58.6423 93.4263 58.707 92.493 58.9624C91.5598 59.2177 90.6876 59.6586 89.9286 60.2586C89.1695 60.8586 88.5392 61.6054 88.0752 62.4545C87.6113 63.3035 87.3232 64.2374 87.2282 65.2002C86.7602 70.0482 86.3642 76.1402 86.8282 79.8362C87.7442 87.0362 93.2282 88.1282 93.2282 88.1282C93.2282 88.1282 93.1842 90.8082 93.1242 93.9362C93.0867 95.9446 93.8278 97.8896 95.1923 99.3638C96.5568 100.838 98.4389 101.727 100.444 101.844C101.505 101.907 102.566 101.751 103.564 101.387C104.562 101.023 105.475 100.458 106.246 99.7274C107.017 98.9968 107.63 98.1159 108.047 97.1392C108.465 96.1624 108.677 95.1104 108.672 94.0482L108.508 62.8002" fill="#FFBE9D"/>
<path d="M93.2002 88.1285C96.5963 88.2255 99.9565 87.412 102.932 85.7725C102.932 85.7725 100.352 90.8005 93.2002 89.8965V88.1285Z" fill="#EB996E"/>
<path d="M97.704 65.9363C97.796 66.2083 98.788 66.1123 99.944 66.2883C101.1 66.4643 102.032 66.8083 102.192 66.5723C102.264 66.4603 102.112 66.2003 101.74 65.9283C101.247 65.5886 100.681 65.3707 100.088 65.2923C99.495 65.2002 98.8886 65.2524 98.32 65.4443C97.888 65.6003 97.668 65.8083 97.704 65.9363Z" fill="#263238"/>
<path d="M88.5683 66.4799C88.7363 66.7119 89.4243 66.4999 90.2443 66.5159C91.0643 66.5319 91.7563 66.7119 91.9203 66.4839C91.9963 66.3679 91.8923 66.1399 91.5963 65.9199C91.1966 65.6513 90.7259 65.5078 90.2443 65.5078C89.7627 65.5078 89.292 65.6513 88.8923 65.9199C88.5963 66.1399 88.4963 66.3679 88.5683 66.4799Z" fill="#263238"/>
<path d="M97.4484 74.0202C97.4492 74.0728 97.4657 74.1238 97.4958 74.1669C97.5258 74.21 97.5681 74.2432 97.6171 74.2622C97.6661 74.2811 97.7196 74.285 97.7708 74.2734C97.8221 74.2617 97.8687 74.2351 97.9047 74.1968C97.9407 74.1585 97.9644 74.1104 97.9729 74.0585C97.9813 74.0067 97.9742 73.9535 97.9522 73.9057C97.9303 73.858 97.8946 73.8179 97.8497 73.7905C97.8049 73.7632 97.7529 73.7498 97.7004 73.7522C97.6662 73.7533 97.6326 73.761 97.6015 73.775C97.5703 73.7891 97.5422 73.8091 97.5188 73.834C97.4954 73.8589 97.4772 73.8881 97.4651 73.9201C97.453 73.952 97.4473 73.9861 97.4484 74.0202Z" fill="#EB996E"/>
<path d="M90 72.9843C90.0005 73.0186 90.0079 73.0525 90.0218 73.0839C90.0356 73.1153 90.0557 73.1436 90.0807 73.1671C90.1057 73.1906 90.1351 73.2089 90.1673 73.2207C90.1995 73.2326 90.2338 73.2379 90.268 73.2363C90.3025 73.2358 90.3366 73.2284 90.3682 73.2146C90.3998 73.2008 90.4283 73.1809 90.4522 73.1559C90.476 73.131 90.4946 73.1016 90.507 73.0693C90.5193 73.0371 90.5251 73.0028 90.524 72.9683C90.5286 72.9312 90.5253 72.8935 90.5142 72.8578C90.5032 72.822 90.4846 72.7891 90.4599 72.761C90.4351 72.733 90.4046 72.7106 90.3705 72.6952C90.3364 72.6798 90.2994 72.6719 90.262 72.6719C90.2246 72.6719 90.1877 72.6798 90.1536 72.6952C90.1195 72.7106 90.089 72.733 90.0642 72.761C90.0395 72.7891 90.0209 72.822 90.0099 72.8578C89.9988 72.8935 89.9955 72.9312 90 72.9683V72.9843Z" fill="#EB996E"/>
<path d="M88.5597 73.7165C88.5628 73.7858 88.5931 73.8511 88.644 73.8983C88.6949 73.9454 88.7623 73.9706 88.8317 73.9685C88.8956 73.9606 88.9544 73.9296 88.9971 73.8813C89.0397 73.833 89.0633 73.7709 89.0633 73.7065C89.0633 73.6421 89.0397 73.5799 88.9971 73.5316C88.9544 73.4834 88.8956 73.4524 88.8317 73.4445C88.7957 73.4434 88.7598 73.4496 88.7263 73.4629C88.6928 73.4762 88.6624 73.4962 88.6369 73.5217C88.6114 73.5471 88.5914 73.5776 88.5781 73.6111C88.5649 73.6446 88.5586 73.6804 88.5597 73.7165Z" fill="#EB996E"/>
<path d="M88.0841 72.6325C88.085 72.6851 88.1015 72.7362 88.1315 72.7793C88.1616 72.8224 88.2038 72.8555 88.2528 72.8745C88.3018 72.8934 88.3553 72.8973 88.4066 72.8857C88.4578 72.874 88.5044 72.8474 88.5404 72.8091C88.5764 72.7708 88.6001 72.7227 88.6086 72.6708C88.6171 72.619 88.6099 72.5658 88.5879 72.518C88.566 72.4703 88.5303 72.4302 88.4855 72.4028C88.4406 72.3755 88.3886 72.3621 88.3361 72.3645C88.302 72.3656 88.2683 72.3733 88.2372 72.3874C88.206 72.4014 88.178 72.4214 88.1546 72.4463C88.1312 72.4712 88.1129 72.5004 88.1008 72.5324C88.0887 72.5644 88.083 72.5984 88.0841 72.6325Z" fill="#EB996E"/>
<path d="M98.6836 75.14C98.6836 75.21 98.7114 75.2771 98.7609 75.3267C98.8104 75.3762 98.8776 75.404 98.9476 75.404C99.0176 75.404 99.0848 75.3762 99.1343 75.3267C99.1838 75.2771 99.2116 75.21 99.2116 75.14C99.2116 75.07 99.1838 75.0028 99.1343 74.9533C99.0848 74.9038 99.0176 74.876 98.9476 74.876C98.8776 74.876 98.8104 74.9038 98.7609 74.9533C98.7114 75.0028 98.6836 75.07 98.6836 75.14Z" fill="#EB996E"/>
<path d="M99.6318 74.0521C99.6318 74.1221 99.6597 74.1893 99.7092 74.2388C99.7587 74.2883 99.8258 74.3161 99.8958 74.3161C99.9658 74.3161 100.033 74.2883 100.083 74.2388C100.132 74.1893 100.16 74.1221 100.16 74.0521C100.16 74.0174 100.153 73.9831 100.14 73.9511C100.126 73.919 100.107 73.8899 100.083 73.8654C100.058 73.8409 100.029 73.8214 99.9969 73.8082C99.9648 73.7949 99.9305 73.7881 99.8958 73.7881C99.8612 73.7881 99.8268 73.7949 99.7948 73.8082C99.7628 73.8214 99.7337 73.8409 99.7092 73.8654C99.6846 73.8899 99.6652 73.919 99.6519 73.9511C99.6387 73.9831 99.6318 74.0174 99.6318 74.0521Z" fill="#EB996E"/>
<path d="M95.6963 57.648C96.1595 60.4922 97.4156 63.148 99.3203 65.3103C101.225 67.4727 103.701 69.0538 106.464 69.872C104.78 72.476 106.064 77.28 106.144 81.32C106.228 85.08 106.264 86.152 108.764 87.988C110.792 88.388 111.768 82.856 113.212 81.268C114.656 79.68 116.012 77.732 115.84 75.592C115.752 74.592 115.328 73.648 115.24 72.648C115.144 71.54 115.464 70.44 115.64 69.34C116.348 64.464 113.664 59.34 109.356 56.94C105.048 54.54 99.4203 54.908 95.3203 57.64" fill="#263238"/>
<path d="M115.056 72.1164C115.119 72.0521 115.176 71.9825 115.228 71.9084C115.374 71.6925 115.479 71.451 115.536 71.1964C115.693 70.2441 115.513 69.2666 115.028 68.4324C114.725 67.8443 114.319 67.3158 113.828 66.8724C113.29 66.3436 112.699 65.8717 112.064 65.4644C111.358 65.017 110.595 64.6672 109.796 64.4244C108.968 64.1724 108.092 63.9804 107.2 63.7884C106.308 63.5964 105.436 63.4084 104.62 63.1524C103.832 62.9092 103.065 62.6056 102.324 62.2444C100.215 61.2147 98.346 59.7523 96.8397 57.9524C96.6237 57.7004 96.4637 57.4924 96.3557 57.3564C96.3041 57.2814 96.2451 57.2117 96.1797 57.1484C96.2229 57.2282 96.2724 57.3045 96.3277 57.3764C96.4277 57.5204 96.5797 57.7324 96.7917 57.9924C97.3808 58.7351 98.0368 59.422 98.7517 60.0444C99.815 60.9697 100.993 61.7547 102.256 62.3804C103.002 62.7494 103.776 63.0583 104.572 63.3044C105.396 63.5684 106.272 63.7564 107.164 63.9524C108.056 64.1484 108.928 64.3284 109.748 64.5764C110.541 64.8137 111.299 65.1582 112 65.6004C112.63 65.998 113.219 66.459 113.756 66.9764C114.244 67.4068 114.65 67.9217 114.956 68.4964C115.441 69.3061 115.636 70.2571 115.508 71.1924C115.422 71.5282 115.268 71.8427 115.056 72.1164Z" fill="#455A64"/>
<path d="M96.1836 57.1484C96.231 57.211 96.2832 57.2698 96.3396 57.3244C96.4436 57.4404 96.6036 57.5964 96.8116 57.8004C97.4013 58.3742 98.028 58.9086 98.6876 59.4004C99.6622 60.147 100.74 60.748 101.888 61.1844C102.575 61.4136 103.282 61.5796 104 61.6804C104.74 61.8044 105.512 61.8924 106.3 61.9844C107.786 62.1129 109.258 62.3712 110.7 62.7564C111.86 63.0961 112.946 63.6526 113.9 64.3964C114.548 64.8973 115.092 65.5212 115.5 66.2324C115.606 66.4282 115.7 66.6299 115.784 66.8364C115.808 66.9102 115.84 66.9812 115.88 67.0484C115.864 66.9717 115.841 66.8967 115.812 66.8244C115.742 66.6116 115.657 66.4043 115.556 66.2044C115.171 65.4686 114.637 64.8213 113.988 64.3044C113.029 63.5359 111.93 62.9612 110.752 62.6124C109.312 62.2127 107.839 61.9449 106.352 61.8124C105.552 61.7204 104.796 61.6284 104.06 61.5124C103.352 61.4127 102.655 61.2521 101.976 61.0324C100.842 60.603 99.7731 60.0188 98.7996 59.2964C98.1394 58.8129 97.5052 58.2948 96.8996 57.7444L96.4076 57.2884C96.3373 57.2351 96.2623 57.1883 96.1836 57.1484Z" fill="#455A64"/>
<path d="M87.9639 51.1727C87.9639 51.2127 88.5799 51.2127 89.5639 51.4327C89.8263 51.4921 90.0853 51.5656 90.3399 51.6527C90.6199 51.7367 90.8999 51.8607 91.2039 51.9847C91.8471 52.2776 92.4595 52.634 93.0319 53.0487C93.5954 53.4748 94.1141 53.9573 94.5799 54.4887C94.7821 54.7224 94.9717 54.9667 95.1479 55.2207C95.3079 55.4376 95.4535 55.6647 95.5839 55.9007C96.0759 56.7567 96.2559 57.3487 96.2919 57.3367C96.2653 57.1992 96.2237 57.065 96.1679 56.9367C96.1177 56.7752 96.0562 56.6175 95.9839 56.4647C95.896 56.2569 95.7972 56.054 95.6879 55.8567C95.5598 55.616 95.4168 55.3836 95.2599 55.1607C95.0868 54.8992 94.8984 54.6481 94.6959 54.4087C93.7666 53.3029 92.5912 52.4302 91.2639 51.8607C90.9751 51.7384 90.68 51.6316 90.3799 51.5407C90.1183 51.4542 89.8509 51.386 89.5799 51.3367C89.361 51.2869 89.1392 51.2508 88.9159 51.2287C88.7479 51.2015 88.578 51.1882 88.4079 51.1887C88.2609 51.1669 88.112 51.1615 87.9639 51.1727Z" fill="#455A64"/>
<path d="M83.7878 78.6004L83.7398 78.5364L83.5838 78.3684C83.4438 78.2164 83.2398 78.0004 83.0038 77.6964C82.7095 77.3394 82.4807 76.9331 82.3278 76.4964C82.2394 76.223 82.2081 75.9344 82.2358 75.6484C82.2699 75.3289 82.3693 75.0199 82.5278 74.7404C82.9361 74.1125 83.3892 73.5149 83.8838 72.9524C84.405 72.2538 84.8326 71.49 85.1558 70.6804C85.5187 69.7848 85.7517 68.842 85.8478 67.8804C85.9122 66.8544 85.9029 65.8251 85.8198 64.8004C85.7352 63.785 85.7958 62.7627 85.9998 61.7644C86.2256 60.8454 86.6656 59.9929 87.2838 59.2764C87.8341 58.6224 88.5154 58.0909 89.2838 57.7164C89.9546 57.3886 90.6828 57.1943 91.4278 57.1444C92.5123 57.0679 93.5985 57.2688 94.5838 57.7284C94.8506 57.8548 95.1085 57.9991 95.3558 58.1604L95.5478 58.2884C95.5918 58.3164 95.6158 58.3284 95.6158 58.3244C95.3116 58.0634 94.974 57.8441 94.6118 57.6724C93.6203 57.18 92.5165 56.9579 91.4118 57.0284C90.6505 57.0744 89.905 57.2658 89.2158 57.5924C88.3845 57.9933 87.6507 58.5707 87.0655 59.2843C86.4804 59.998 86.058 60.8307 85.8278 61.7244C85.6212 62.7372 85.5593 63.7742 85.6438 64.8044C85.7261 65.8224 85.7368 66.8449 85.6758 67.8644C85.4945 69.6697 84.8329 71.3934 83.7598 72.8564C83.269 73.4298 82.8186 74.0366 82.4118 74.6724C82.2503 74.9678 82.1509 75.2932 82.1198 75.6284C82.0971 75.9273 82.1338 76.2278 82.2278 76.5124C82.3897 76.9587 82.6309 77.372 82.9398 77.7324C83.1321 77.968 83.3392 78.1911 83.5598 78.4004L83.7278 78.5604C83.7459 78.5764 83.7661 78.5899 83.7878 78.6004Z" fill="#455A64"/>
<path d="M114.696 72.5277C114.696 72.5277 114.72 72.5277 114.772 72.4917L114.984 72.3677C115.256 72.203 115.513 72.0143 115.752 71.8037C116.643 71.0279 117.311 70.0281 117.688 68.9077C118.115 67.5713 118.104 66.1332 117.657 64.8033C117.209 63.4735 116.348 62.3215 115.2 61.5157C114.286 60.8889 113.267 60.4323 112.192 60.1677C111.122 59.8981 110.029 59.736 108.928 59.6837C107.864 59.6197 106.836 59.6037 105.86 59.5717C104.939 59.5468 104.02 59.4734 103.108 59.3517C102.322 59.244 101.549 59.0591 100.8 58.7997C99.6938 58.4356 98.6771 57.8427 97.8156 57.0597C97.5893 56.8395 97.3782 56.6043 97.1836 56.3557L97.0316 56.1597C97.0152 56.1364 96.9965 56.115 96.9756 56.0957C97.1972 56.4651 97.4661 56.804 97.7756 57.1037C98.6287 57.9149 99.6484 58.5305 100.764 58.9077C101.528 59.1768 102.317 59.3697 103.12 59.4837C104.037 59.6115 104.961 59.689 105.888 59.7157C107.836 59.8077 110.004 59.7517 112.18 60.3237C113.238 60.5808 114.241 61.0281 115.14 61.6437C115.976 62.2223 116.662 62.9932 117.14 63.8917C117.545 64.6481 117.796 65.4781 117.875 66.3327C117.955 67.1874 117.863 68.0494 117.604 68.8677C117.242 69.9742 116.6 70.968 115.74 71.7517C115.505 71.9625 115.256 72.1576 114.996 72.3357L114.792 72.4757C114.756 72.4853 114.723 72.5031 114.696 72.5277Z" fill="#263238"/>
<path d="M88.5757 70.884C88.6837 71.008 89.3757 70.484 90.3757 70.528C91.3757 70.572 92.0757 71.056 92.1877 70.928C92.2397 70.876 92.1277 70.656 91.8197 70.42C91.3981 70.1149 90.8921 69.9486 90.3717 69.944C89.8594 69.9323 89.3565 70.0836 88.9357 70.376C88.6277 70.616 88.5197 70.828 88.5757 70.884Z" fill="#263238"/>
<path d="M98.6522 71.0483C98.7642 71.1683 99.4722 70.6483 100.456 70.6883C101.44 70.7283 102.156 71.2203 102.268 71.0883C102.32 71.0363 102.208 70.8203 101.896 70.5843C101.476 70.2788 100.972 70.1111 100.452 70.1043C99.9378 70.0915 99.433 70.2443 99.0122 70.5403C98.7082 70.7763 98.6002 70.9923 98.6522 71.0483Z" fill="#263238"/>
<path d="M94.9277 76.9998C94.9277 76.9438 94.3237 76.8278 93.3277 76.6798C93.0757 76.6478 92.8357 76.5958 92.7997 76.4198C92.7822 76.1605 92.8451 75.9021 92.9797 75.6798C93.2317 75.0718 93.4917 74.4398 93.7797 73.7758C94.8677 71.0638 95.6637 68.8318 95.5517 68.7878C95.4397 68.7438 94.4717 70.9078 93.3837 73.6198C93.1197 74.2878 92.8717 74.9278 92.6317 75.5358C92.4673 75.8373 92.4136 76.1868 92.4797 76.5238C92.5143 76.6122 92.5682 76.6918 92.6373 76.7568C92.7065 76.8219 92.7893 76.8707 92.8797 76.8998C93.0192 76.9392 93.1629 76.962 93.3077 76.9678C94.3037 77.0398 94.9237 77.0558 94.9277 76.9998Z" fill="#263238"/>
<path d="M95.3001 79.3882C95.4911 79.1557 95.7384 78.976 96.0185 78.8661C96.2985 78.7562 96.602 78.7197 96.9001 78.7602C97.1184 78.7824 97.3297 78.8493 97.521 78.9566C97.7123 79.0639 97.8794 79.2095 98.0121 79.3842C98.1402 79.5513 98.2138 79.7537 98.2231 79.964C98.2324 80.1743 98.1769 80.3824 98.0641 80.5602C97.9014 80.7332 97.6911 80.8541 97.4597 80.9075C97.2282 80.9609 96.9862 80.9444 96.7641 80.8602C96.3013 80.6881 95.8781 80.4242 95.5201 80.0842C95.4112 80.0027 95.3177 79.9025 95.2441 79.7882C95.2078 79.7337 95.1885 79.6696 95.1885 79.6042C95.1885 79.5387 95.2078 79.4747 95.2441 79.4202" fill="#EB996E"/>
<path d="M97.8201 77.7403C97.6601 77.7403 97.6361 78.8003 96.7041 79.5403C95.7721 80.2803 94.6321 80.1443 94.6241 80.2923C94.6041 80.3603 94.8721 80.5083 95.3521 80.5283C95.9793 80.5516 96.5944 80.3518 97.0881 79.9643C97.5633 79.5926 97.8747 79.0501 97.9561 78.4523C98.0001 78.0003 97.8921 77.7363 97.8201 77.7403Z" fill="#263238"/>
<path d="M89.4839 144.689L78.5359 148.401L77.6559 151.141C77.6559 151.141 47.1119 140.145 44.9439 138.989C42.7759 137.833 31.5999 135.281 27.9279 144.461C24.8279 152.181 30.9879 159.921 40.8119 164.253C50.6359 168.585 69.7079 170.465 69.7079 170.465L82.2559 172.637L110.012 173.001C114.065 173.05 118.079 172.21 121.771 170.54C125.464 168.869 128.745 166.409 131.384 163.333C135.76 158.233 140.28 152.461 141.136 149.449C142.804 143.597 141.296 136.013 132.572 135.281C123.848 134.549 109.7 144.517 109.7 144.517L104.328 143.045L89.4839 144.689Z" fill="#263238"/>
<path d="M88.6236 162.493C88.6338 162.429 88.6485 162.366 88.6676 162.305C88.7073 162.121 88.6848 161.93 88.6036 161.761C88.3956 161.301 87.7036 160.889 86.7756 160.653C84.8916 159.889 82.0556 158.701 78.6996 157.033C75.3436 155.365 71.4476 153.273 67.2836 151.033C64.2716 149.433 61.3996 147.893 58.7396 146.601C56.0796 145.309 53.6516 144.201 51.5716 143.401C51.0516 143.193 50.5596 143.001 50.0876 142.805L48.7516 142.317L47.5996 141.873L46.6116 141.553L45.2396 141.105L44.8876 140.981L44.7676 140.933L44.8916 140.961L45.2516 141.065L46.6356 141.465L47.6316 141.773L48.8036 142.173L50.1476 142.645C50.6236 142.821 51.1156 143.045 51.6356 143.225C53.7276 144.025 56.1636 145.125 58.8356 146.425C61.5076 147.725 64.3836 149.225 67.3956 150.849C71.5596 153.089 75.4396 155.201 78.7876 156.869C82.1356 158.537 84.9556 159.765 86.8236 160.557C87.7636 160.813 88.4676 161.245 88.6756 161.737C88.754 161.917 88.7681 162.119 88.7156 162.309C88.692 162.373 88.6611 162.435 88.6236 162.493Z" fill="#455A64"/>
<path d="M129.48 137.2L129.356 137.22L128.992 137.268C128.525 137.306 128.062 137.383 127.608 137.496C125.928 137.895 124.325 138.563 122.86 139.476C121.839 140.088 120.864 140.774 119.944 141.528C118.88 142.385 117.874 143.311 116.932 144.3C114.809 146.618 112.569 148.825 110.22 150.912C108.968 152.02 107.708 153.064 106.432 153.996C105.225 154.931 103.892 155.689 102.472 156.248C101.15 156.622 99.8003 156.889 98.4358 157.048C97.2554 157.197 96.0898 157.446 94.9518 157.792C94.0154 158.084 93.1252 158.507 92.3078 159.048C91.69 159.455 91.1784 160.004 90.8158 160.648C90.5961 161.06 90.4602 161.512 90.4158 161.976C90.4158 162.136 90.4158 162.26 90.4158 162.34C90.4218 162.383 90.4218 162.426 90.4158 162.468C90.4109 162.427 90.4109 162.386 90.4158 162.344C90.4158 162.26 90.4158 162.136 90.4158 161.976C90.4465 161.502 90.5716 161.038 90.7838 160.612C91.1404 159.946 91.6555 159.377 92.2838 158.956C93.1033 158.397 93.9992 157.959 94.9438 157.656C96.0874 157.298 97.2597 157.038 98.4478 156.88C99.8011 156.714 101.139 156.438 102.448 156.056C103.846 155.496 105.158 154.744 106.348 153.82C107.616 152.896 108.868 151.852 110.12 150.748C112.608 148.528 114.868 146.288 116.832 144.16C117.782 143.169 118.798 142.241 119.872 141.384C120.804 140.632 121.79 139.95 122.824 139.344C124.305 138.436 125.927 137.781 127.624 137.408C128.084 137.304 128.553 137.241 129.024 137.22L129.392 137.192L129.48 137.2Z" fill="#455A64"/>
<path d="M91.5284 159.2C91.4525 159.036 91.3922 158.864 91.3484 158.688C91.2863 158.484 91.2382 158.275 91.2044 158.064C91.1468 157.788 91.1041 157.509 91.0764 157.228C90.9973 156.498 90.9666 155.763 90.9844 155.028C91.0087 154.13 91.0821 153.234 91.2044 152.344C91.4066 150.72 91.8083 149.127 92.4004 147.6C92.5324 147.316 92.6404 147.052 92.7604 146.832C92.8804 146.612 92.9844 146.432 93.0884 146.28C93.1874 146.128 93.3027 145.987 93.4324 145.86C93.3566 146.024 93.2641 146.18 93.1564 146.324C93.0684 146.472 92.9804 146.668 92.8644 146.884C92.7484 147.1 92.6604 147.372 92.5364 147.652C91.9936 149.18 91.6155 150.761 91.4084 152.368C91.2724 153.304 91.2164 154.208 91.1764 155.028C91.1519 155.755 91.1679 156.483 91.2244 157.208C91.3204 158.456 91.5684 159.2 91.5284 159.2Z" fill="#455A64"/>
<path d="M88.6243 162.492C88.6243 162.492 109.296 167.692 110.124 167.984C111.372 168.384 111.268 172.928 109.324 172.9C108.412 172.9 93.5603 173.812 91.6803 173.74C89.8003 173.668 84.6963 171.78 84.6963 171.78L87.8243 164.4L88.6243 162.492Z" fill="#F2575D"/>
<path d="M97.3604 170.136C97.4644 170.136 97.5764 169.06 98.2164 167.912C98.8564 166.764 99.6924 166.068 99.6244 165.988C99.5564 165.908 98.5804 166.512 97.9124 167.744C97.2444 168.976 97.2724 170.148 97.3604 170.136Z" fill="#263238"/>
<path d="M95.2 169.2C95.3 169.2 95.488 168.24 96 167.156C96.512 166.072 97.152 165.304 97.076 165.236C97 165.168 96.232 165.86 95.692 167.008C95.152 168.156 95.108 169.2 95.2 169.2Z" fill="#263238"/>
<path d="M93.1755 168.72C93.2795 168.72 93.1755 167.688 93.6075 166.54C94.0395 165.392 94.7555 164.668 94.6795 164.596C94.6035 164.524 93.7315 165.172 93.2835 166.424C92.8355 167.676 93.0915 168.752 93.1755 168.72Z" fill="#263238"/>
<path d="M93.4797 166.06C93.6489 165.568 93.7116 165.046 93.6637 164.528C93.6477 163.963 93.5658 163.402 93.4197 162.856C93.3313 162.533 93.2217 162.217 93.0917 161.908C93.0223 161.717 92.9053 161.546 92.7517 161.412C92.6468 161.337 92.5189 161.302 92.3903 161.311C92.2617 161.321 92.1405 161.375 92.0477 161.464C91.89 161.621 91.7971 161.831 91.7877 162.052C91.7739 162.233 91.7739 162.415 91.7877 162.596C91.8004 162.934 91.8501 163.269 91.9357 163.596C92.0865 164.143 92.3112 164.666 92.6037 165.152C92.8441 165.608 93.1669 166.015 93.5557 166.352C93.6037 166.32 93.2477 165.848 92.8197 165.02C92.5675 164.54 92.3741 164.031 92.2437 163.504C92.172 163.197 92.1318 162.884 92.1237 162.568C92.1237 162.252 92.1237 161.86 92.2957 161.704C92.3278 161.665 92.3739 161.641 92.424 161.635C92.4741 161.63 92.5243 161.645 92.5637 161.676C92.6705 161.772 92.7517 161.893 92.7997 162.028C92.9284 162.321 93.0392 162.622 93.1317 162.928C93.2852 163.451 93.3883 163.986 93.4397 164.528C93.5037 165.468 93.4237 166.052 93.4797 166.06Z" fill="#263238"/>
<path d="M93.4484 165.853C93.0267 165.686 92.5714 165.623 92.1204 165.669C91.6295 165.679 91.1417 165.75 90.6684 165.881C90.3752 165.949 90.0936 166.059 89.8324 166.209C89.666 166.297 89.5331 166.438 89.4537 166.609C89.3743 166.78 89.3528 166.972 89.3924 167.157C89.4425 167.333 89.5391 167.492 89.6721 167.618C89.8052 167.744 89.9697 167.832 90.1484 167.873C90.4521 167.941 90.7679 167.934 91.0684 167.853C91.5515 167.718 92.0011 167.483 92.3884 167.165C92.7574 166.904 93.0748 166.577 93.3244 166.201C92.9462 166.43 92.5852 166.687 92.2444 166.969C91.8689 167.238 91.4452 167.432 90.9964 167.541C90.7469 167.603 90.4859 167.603 90.2364 167.541C90.1166 167.513 90.0062 167.455 89.9163 167.372C89.8264 167.288 89.7602 167.182 89.7244 167.065C89.7022 166.949 89.7188 166.83 89.7716 166.725C89.8245 166.62 89.9105 166.535 90.0164 166.485C90.2479 166.349 90.4969 166.245 90.7564 166.177C91.2043 166.038 91.6655 165.947 92.1324 165.905C92.9364 165.837 93.4404 165.909 93.4484 165.853Z" fill="#263238"/>
<path d="M100.52 170.284C100.624 170.284 100.5 169.396 100.884 168.424C101.268 167.452 101.92 166.872 101.852 166.792C101.784 166.712 100.968 167.216 100.564 168.3C100.16 169.384 100.44 170.324 100.52 170.284Z" fill="#263238"/>
<path d="M86.208 171.56C86.4634 171.702 86.7312 171.819 87.008 171.912C87.76 172.185 88.5298 172.405 89.312 172.572C91.8983 173.077 94.5362 173.266 97.168 173.136C100.248 173.032 103.016 172.828 105.028 172.704L107.404 172.524C107.698 172.515 107.99 172.476 108.276 172.408C107.983 172.379 107.689 172.379 107.396 172.408L105.016 172.48L97.16 172.812C94.551 172.936 91.9364 172.781 89.36 172.352C87.392 171.972 86.232 171.492 86.208 171.56Z" fill="#263238"/>
<path d="M85.5996 172.041C85.6316 172.089 86.1836 171.745 87.1236 171.309C88.3207 170.708 89.6616 170.453 90.9956 170.573C92.5476 170.777 93.6716 171.793 94.3996 172.497C94.7721 172.923 95.173 173.324 95.5996 173.697C95.3174 173.201 94.9688 172.746 94.5636 172.345C94.15 171.877 93.6828 171.459 93.1716 171.101C92.5364 170.65 91.8027 170.358 91.0316 170.249C89.6327 170.111 88.2255 170.41 87.0036 171.105C86.4903 171.343 86.0168 171.658 85.5996 172.041Z" fill="#263238"/>
<path d="M106.239 172.46C106.275 172.436 106.095 172.168 105.919 171.692C105.696 171.076 105.63 170.413 105.727 169.764C105.84 169.117 106.115 168.508 106.527 167.996C106.843 167.596 107.099 167.4 107.071 167.364C106.799 167.466 106.56 167.641 106.379 167.868C105.895 168.38 105.576 169.026 105.464 169.721C105.351 170.417 105.452 171.13 105.751 171.768C105.971 172.252 106.215 172.48 106.239 172.46Z" fill="#263238"/>
<path d="M137.244 154.12C137.193 154.219 137.132 154.313 137.064 154.4L136.508 155.176C136.26 155.508 135.972 155.928 135.608 156.376L134.328 157.92C133.852 158.488 133.276 159.06 132.684 159.704C132.092 160.348 131.388 160.956 130.684 161.64C129.091 163.054 127.4 164.353 125.624 165.528C123.837 166.696 121.965 167.727 120.024 168.612C118.441 169.323 116.811 169.92 115.144 170.4C114.432 170.608 113.772 170.748 113.2 170.88C112.628 171.012 112.12 171.08 111.712 171.14L110.76 171.24C110.544 171.26 110.428 171.268 110.428 171.264C110.535 171.231 110.644 171.21 110.756 171.2L111.7 171.06C112.1 170.988 112.6 170.88 113.176 170.768C113.752 170.656 114.396 170.472 115.104 170.26C116.762 169.763 118.385 169.154 119.96 168.436C121.883 167.545 123.738 166.516 125.512 165.356C127.278 164.185 128.963 162.895 130.556 161.496C131.26 160.82 131.96 160.208 132.556 159.58C133.152 158.952 133.732 158.38 134.216 157.82L135.512 156.304C135.884 155.852 136.18 155.44 136.44 155.104L137.024 154.352C137.092 154.27 137.165 154.192 137.244 154.12Z" fill="#455A64"/>
<path d="M84.484 159.96C84.456 159.96 84.128 159.46 83.548 158.668C82.793 157.634 81.9599 156.659 81.056 155.752C80.1479 154.851 79.1732 154.019 78.14 153.264C77.34 152.684 76.832 152.36 76.848 152.332C76.9893 152.378 77.1239 152.442 77.248 152.524C77.492 152.656 77.832 152.868 78.244 153.144C79.3038 153.869 80.2935 154.691 81.2 155.6C82.1159 156.51 82.9411 157.506 83.664 158.576C83.944 158.976 84.156 159.324 84.288 159.568C84.3704 159.689 84.4363 159.821 84.484 159.96Z" fill="#455A64"/>
<path d="M109.452 148.512C109.452 148.544 109 148.84 108.288 149.384C107.365 150.099 106.515 150.903 105.748 151.784C104.99 152.665 104.32 153.619 103.748 154.632C103.304 155.408 103.076 155.916 103.044 155.9C103.069 155.771 103.111 155.646 103.168 155.528C103.302 155.198 103.453 154.874 103.62 154.56C104.716 152.463 106.29 150.654 108.216 149.28C108.588 149.02 108.896 148.824 109.116 148.7C109.219 148.623 109.332 148.56 109.452 148.512Z" fill="#455A64"/>
<path d="M114.68 142.18C120.256 137.72 130.744 135.6 130.744 135.6C130.744 135.6 130.156 115.248 128.564 105.896C128.524 105.672 128.484 105.448 128.44 105.228C127.008 98.0278 120.616 93.6718 113.332 92.6598L108.4 91.9678L93.8242 92.4958L84.9242 95.1998C84.9242 95.1998 74.4002 97.5558 72.8002 112.328C71.2002 126.812 69.3202 138.78 69.6002 143.04C69.8082 146.052 72.5882 148.196 74.1282 148.548C75.5242 148.864 77.2962 149.164 78.8042 148.252C78.2991 149.113 77.9663 150.064 77.8242 151.052H86.7242L93.6962 144.92L100.068 149.492L108.604 145.892L114.468 141.892L114.68 142.18ZM84.2762 141.6C84.2762 141.6 84.2762 141.564 84.2762 141.544C85.2682 136.636 85.3882 135.196 85.3882 135.196C85.3882 135.196 80.1482 134.536 80.9882 127.56L81.7882 121.524L87.0162 139.1C87.0162 139.1 85.8282 140.08 84.2762 141.6Z" fill="#F2575D"/>
<g opacity="0.2">
<path opacity="0.2" d="M102.772 134.828L104.4 130.712C102.6 129.944 101.956 129.912 100 129.68C94.7575 129.075 89.4781 130.454 85.2002 133.544L86.2722 136.64H86.3122C87.118 136.838 87.9587 136.846 88.7682 136.664C89.4364 136.442 90.148 136.382 90.8442 136.488C91.7362 136.708 92.3762 137.48 93.1762 137.932C94.0009 138.358 94.9571 138.453 95.8493 138.197C96.7416 137.941 97.5024 137.354 97.9762 136.556C98.3482 135.876 98.6882 134.932 99.4602 134.956C99.8402 135.011 100.189 135.197 100.448 135.48L103.216 137.908C104.324 138.88 105.432 139.856 106.62 140.732C108.016 141.76 109.62 142.684 111.352 142.628C111.816 142.63 112.262 142.453 112.599 142.134C112.936 141.816 113.137 141.379 113.16 140.916L102.772 134.828Z" fill="black"/>
</g>
<path d="M93.1476 91.9996L92.8916 96.1956C92.8039 97.6448 93.0276 99.0961 93.5476 100.452L98.6756 113.808C98.6756 113.808 97.8756 106.012 101.184 103.136C104.492 100.26 108.604 100.548 108.66 96.0996C108.66 95.3596 108.66 90.4996 108.66 90.4996L101.58 89.0996L93.1476 91.9996Z" fill="#FFBE9D"/>
<path d="M119.36 94.1924C119.277 94.2524 119.187 94.3021 119.092 94.3404C118.834 94.4723 118.583 94.6178 118.34 94.7764C117.463 95.388 116.721 96.1736 116.16 97.0844C115.328 98.4346 114.843 99.9694 114.748 101.552C114.732 102.488 114.776 103.423 114.88 104.352C114.972 105.328 115.068 106.352 115.164 107.368C115.564 111.496 116.032 115.228 116.388 117.924C116.564 119.272 116.72 120.364 116.832 121.124C116.884 121.484 116.928 121.772 116.96 121.988C116.983 122.088 116.995 122.19 116.996 122.292C116.961 122.196 116.936 122.097 116.92 121.996C116.876 121.8 116.824 121.508 116.752 121.136C116.616 120.388 116.436 119.3 116.24 117.936C115.84 115.244 115.376 111.512 114.956 107.38C114.852 106.348 114.756 105.34 114.676 104.364C114.576 103.424 114.535 102.478 114.556 101.532C114.659 99.9209 115.168 98.3617 116.036 97.0004C116.615 96.0798 117.386 95.2952 118.296 94.7004C118.544 94.5457 118.805 94.4119 119.076 94.3004C119.167 94.2556 119.262 94.2195 119.36 94.1924Z" fill="#263238"/>
<path d="M117.484 143.2C117.484 143.2 117.456 143.2 117.404 143.176L117.176 143.076C116.976 142.988 116.68 142.856 116.308 142.676C115.556 142.312 114.484 141.74 113.16 141.008C110.504 139.544 106.844 137.408 102.716 134.912L102.64 134.868L102.676 134.784L104.16 131.224C104.664 130 105.148 128.8 105.6 127.624C105.828 127.04 106.044 126.464 106.244 125.896C106.344 125.616 106.444 125.332 106.528 125.052C106.572 124.912 106.612 124.772 106.648 124.652C106.648 124.58 106.68 124.512 106.692 124.444C106.693 124.414 106.693 124.383 106.692 124.352V124.316C106.692 124.316 106.712 124.344 106.728 124.34L106.796 124.16C108.584 124.96 110.176 125.82 111.596 126.596C113.016 127.372 114.248 128.072 115.284 128.624C116.32 129.176 117.152 129.6 117.724 129.884L118.384 130.2L118.608 130.32C118.525 130.298 118.445 130.269 118.368 130.232C118.216 130.168 117.988 130.072 117.7 129.94C117.116 129.676 116.272 129.272 115.228 128.74C114.184 128.208 112.936 127.516 111.516 126.74C110.096 125.964 108.504 125.14 106.716 124.34L106.788 124.16C106.817 124.172 106.842 124.193 106.86 124.22C106.861 124.239 106.861 124.258 106.86 124.276C106.861 124.3 106.861 124.324 106.86 124.348C106.862 124.389 106.862 124.431 106.86 124.472C106.86 124.548 106.832 124.62 106.816 124.692C106.78 124.84 106.736 124.98 106.696 125.124C106.608 125.408 106.512 125.692 106.412 125.976C106.208 126.548 106.012 127.124 105.768 127.708C105.316 128.88 104.832 130.08 104.328 131.308C103.824 132.536 103.32 133.708 102.84 134.868L102.8 134.74C106.92 137.244 110.568 139.4 113.2 140.896C114.516 141.644 115.576 142.232 116.316 142.616C116.684 142.816 116.972 142.956 117.168 143.056L117.388 143.168L117.484 143.2Z" fill="#263238"/>
<path d="M81.6475 121.508C81.5789 121.322 81.5306 121.129 81.5035 120.932C81.4235 120.56 81.3235 120.016 81.2195 119.332C80.6865 115.809 80.5844 112.235 80.9155 108.688C80.9835 108.008 81.0475 107.46 81.1075 107.088C81.1247 106.89 81.1623 106.694 81.2195 106.504C81.2241 106.702 81.2134 106.9 81.1875 107.096C81.1555 107.476 81.1115 108.024 81.0635 108.696C80.9675 110.056 80.8915 111.936 80.9515 114.012C81.0115 116.088 81.1915 117.96 81.3515 119.308C81.4395 119.984 81.5155 120.528 81.5715 120.908C81.6125 121.106 81.6379 121.306 81.6475 121.508Z" fill="#263238"/>
<path d="M80.7997 124.86C80.6884 125.038 80.5626 125.207 80.4237 125.364L79.3437 126.688L75.7437 131.04L72.1837 135.412L71.0997 136.732C70.9727 136.9 70.8322 137.056 70.6797 137.2C70.7812 137.016 70.9004 136.842 71.0357 136.68C71.2757 136.356 71.6277 135.88 72.0677 135.32C72.9517 134.176 74.1877 132.612 75.5837 130.92C76.9797 129.228 78.2637 127.696 79.2117 126.604C79.6837 126.06 80.0717 125.62 80.3397 125.324C80.4786 125.156 80.6326 125.001 80.7997 124.86Z" fill="#263238"/>
<path d="M84.8001 137.809C84.8203 137.976 84.8203 138.145 84.8001 138.313C84.7896 138.51 84.7669 138.706 84.7321 138.901C84.6921 139.129 84.6641 139.393 84.5881 139.673C84.443 140.338 84.2437 140.991 83.9921 141.625C83.6763 142.4 83.2935 143.147 82.8481 143.857C82.3918 144.557 81.8766 145.216 81.3081 145.829C80.8366 146.323 80.327 146.779 79.7841 147.193C79.5601 147.377 79.3361 147.513 79.1441 147.645C78.9818 147.758 78.8135 147.862 78.6401 147.957C78.4978 148.046 78.3479 148.122 78.1921 148.185C78.1681 148.149 78.7961 147.785 79.6921 147.077C80.2156 146.652 80.7089 146.19 81.1681 145.697C81.7212 145.086 82.2242 144.432 82.6721 143.741C83.1109 143.044 83.4922 142.312 83.8121 141.553C84.0685 140.931 84.281 140.292 84.4481 139.641C84.7081 138.521 84.7641 137.805 84.8001 137.809Z" fill="#263238"/>
<path d="M109.492 91.4883C109.547 91.5773 109.596 91.6694 109.64 91.7643C109.728 91.9483 109.872 92.2163 110.04 92.5643C110.455 93.5834 110.76 94.6442 110.948 95.7283C111.215 97.3444 111.227 98.9924 110.984 100.612C110.701 102.6 110.031 104.514 109.012 106.244C108.812 106.552 108.612 106.86 108.424 107.152L107.776 108L107.724 108.072L107.644 108.024C106.904 107.59 106.076 107.327 105.22 107.253C104.365 107.18 103.504 107.299 102.7 107.6C102.007 107.864 101.369 108.256 100.82 108.756C100.225 109.26 99.7352 109.877 99.3789 110.571C99.0227 111.265 98.807 112.023 98.7443 112.8C98.6803 113.452 98.6963 113.812 98.6763 113.812C98.6635 113.726 98.6568 113.639 98.6562 113.552C98.6563 113.376 98.6562 113.124 98.6562 112.796C98.715 111.854 98.9887 110.937 99.4563 110.116C99.7924 109.55 100.215 109.04 100.708 108.604C101.27 108.089 101.923 107.683 102.632 107.404C103.463 107.089 104.355 106.965 105.24 107.042C106.126 107.118 106.983 107.392 107.748 107.844L107.612 107.868L108.232 107.044C108.428 106.752 108.632 106.448 108.812 106.148C109.815 104.437 110.482 102.55 110.776 100.588C111.023 98.9884 111.023 97.3601 110.776 95.7603C110.604 94.6817 110.324 93.6231 109.94 92.6003C109.8 92.2403 109.668 91.9683 109.596 91.8003C109.551 91.7001 109.516 91.5956 109.492 91.4883Z" fill="#263238"/>
<path d="M97.8516 112.024C97.7994 111.954 97.7564 111.878 97.7236 111.796L97.3916 111.132C97.1076 110.552 96.7116 109.704 96.1916 108.68C95.5867 107.478 94.8298 106.358 93.9396 105.348C93.4025 104.771 92.7741 104.286 92.0796 103.912C91.3246 103.534 90.499 103.318 89.6556 103.276C89.3076 103.276 88.9676 103.276 88.6476 103.3H88.5156V103.18C88.7698 101.656 89.147 100.156 89.6436 98.6925C90.0326 97.5083 90.4866 96.3465 91.0036 95.2125C91.3537 94.4517 91.7546 93.7153 92.2036 93.0085C92.3596 92.7605 92.4916 92.5765 92.6036 92.4525C92.646 92.387 92.6956 92.3266 92.7516 92.2725C92.7716 92.2725 92.5756 92.5445 92.2836 93.0525C91.8699 93.7707 91.4973 94.5119 91.1676 95.2725C90.6717 96.4095 90.2338 97.571 89.8556 98.7525C89.3618 100.203 88.9833 101.69 88.7236 103.2L88.6116 103.08C88.9396 103.08 89.2916 103.048 89.6476 103.056C90.5214 103.102 91.3765 103.326 92.1596 103.716C92.8715 104.105 93.5148 104.607 94.0636 105.204C94.9598 106.233 95.7145 107.376 96.3076 108.604C96.8276 109.636 97.2036 110.492 97.4636 111.084C97.5876 111.364 97.6836 111.592 97.7596 111.768C97.7994 111.85 97.8302 111.936 97.8516 112.024Z" fill="#263238"/>
<g opacity="0.2">
<path opacity="0.2" d="M98.6718 113.552C99.1198 112.148 99.6798 111.648 100.444 110.916C100.814 110.535 101.257 110.232 101.747 110.025C102.237 109.819 102.764 109.714 103.296 109.716C104.184 109.768 105.02 110.22 105.908 110.236C106.944 110.26 107.908 109.688 108.684 109.008C110.27 107.575 111.361 105.674 111.797 103.58C112.233 101.487 111.993 99.3087 111.112 97.3604C111.279 101.199 110.042 104.967 107.632 107.96C106.69 107.435 105.624 107.171 104.546 107.197C103.468 107.222 102.416 107.535 101.5 108.104C100.599 108.693 99.8656 109.504 99.3702 110.459C98.8747 111.414 98.6342 112.481 98.6718 113.556" fill="black"/>
</g>
<path d="M116.924 121.888C116.976 122.07 117.012 122.256 117.032 122.444C117.088 122.844 117.16 123.356 117.248 123.968C117.42 125.26 117.648 127.04 117.88 129.012C117.924 129.384 117.968 129.748 118.008 130.1L117.928 130.012C119.359 130.316 120.717 130.895 121.928 131.716C122.286 131.959 122.626 132.226 122.948 132.516C123.071 132.613 123.183 132.724 123.28 132.848C123.256 132.876 122.772 132.424 121.856 131.84C120.638 131.076 119.295 130.534 117.888 130.24H117.816V130.168C117.776 129.816 117.732 129.452 117.684 129.08C117.448 127.112 117.248 125.324 117.112 124.032C117.052 123.416 117 122.9 116.96 122.5C116.927 122.298 116.914 122.092 116.924 121.888Z" fill="#263238"/>
<path d="M104.376 140.024C104.309 140.051 104.239 140.073 104.168 140.088L103.564 140.24C103.036 140.36 102.264 140.508 101.304 140.64C98.7972 140.96 96.259 140.945 93.756 140.596C92.3789 140.405 91.0178 140.112 89.684 139.72C89.072 139.524 88.484 139.36 87.956 139.132C87.4516 138.927 87.018 138.58 86.708 138.132C86.462 137.765 86.2794 137.359 86.168 136.932C86.0814 136.613 86.0173 136.288 85.976 135.96C85.936 135.692 85.92 135.484 85.908 135.34C85.8991 135.268 85.8991 135.196 85.908 135.124C85.908 135.124 85.964 135.416 86.06 135.948C86.1153 136.27 86.1901 136.588 86.284 136.9C86.4031 137.311 86.5882 137.7 86.832 138.052C87.1332 138.471 87.5504 138.792 88.032 138.976C88.548 139.188 89.136 139.352 89.744 139.536C91.0684 139.92 92.4185 140.208 93.784 140.4C96.2716 140.744 98.7922 140.777 101.288 140.5C102.244 140.392 103.016 140.264 103.544 140.168L104.156 140.056C104.227 140.034 104.302 140.024 104.376 140.024Z" fill="#263238"/>
<path d="M96.0201 140.664C96.0201 140.7 95.7441 140.78 95.3441 141.012C94.8225 141.324 94.3802 141.752 94.0521 142.264C93.7266 142.776 93.5227 143.357 93.4561 143.96C93.4121 144.424 93.4561 144.716 93.4241 144.724C93.3255 144.479 93.2871 144.215 93.3121 143.952C93.3366 143.313 93.5312 142.691 93.8757 142.152C94.2202 141.613 94.7022 141.175 95.2721 140.884C95.4999 140.751 95.7566 140.676 96.0201 140.664Z" fill="#263238"/>
<path d="M98 113.468C98.0262 113.558 98.0423 113.65 98.048 113.744C98.072 113.948 98.1 114.216 98.14 114.544C98.212 115.24 98.308 116.248 98.396 117.5C98.572 119.996 98.708 123.46 98.616 127.284C98.568 129.196 98.476 131.016 98.356 132.668C98.2812 134.138 98.0602 135.597 97.696 137.024C97.4392 137.988 97.0228 138.902 96.464 139.728C96.307 139.948 96.136 140.158 95.952 140.356C95.8907 140.428 95.8239 140.494 95.752 140.556C95.732 140.556 96.008 140.26 96.396 139.684C96.921 138.852 97.3111 137.942 97.552 136.988C97.8948 135.567 98.0998 134.116 98.164 132.656C98.276 131.004 98.36 129.188 98.408 127.28C98.5 123.464 98.408 120.004 98.248 117.508C98.18 116.256 98.108 115.248 98.06 114.548C98.036 114.216 98.02 113.948 98.004 113.748C97.9938 113.655 97.9925 113.561 98 113.468Z" fill="#263238"/>
<path d="M79.8755 111.32C78.7651 111.509 77.6445 111.632 76.5195 111.688C75.4001 111.813 74.2737 111.867 73.1475 111.848C74.2578 111.658 75.3785 111.535 76.5035 111.48C77.6232 111.359 78.7493 111.305 79.8755 111.32Z" fill="white"/>
<path d="M97.84 118.4C97.6256 118.462 97.4061 118.503 97.184 118.524C96.764 118.596 96.148 118.664 95.384 118.724C94.4883 118.789 93.5898 118.809 92.692 118.784C91.5919 118.754 90.4943 118.663 89.404 118.512C88.3158 118.353 87.2369 118.135 86.172 117.86C85.192 117.596 84.32 117.32 83.604 117.06C82.888 116.8 82.312 116.552 81.928 116.368C81.7213 116.284 81.522 116.182 81.332 116.064C81.5464 116.126 81.7563 116.202 81.96 116.292C82.36 116.456 82.932 116.672 83.652 116.92C84.372 117.168 85.252 117.436 86.22 117.684C87.188 117.932 88.284 118.152 89.42 118.316C90.556 118.48 91.68 118.564 92.684 118.608C93.688 118.652 94.6 118.628 95.36 118.588C96.12 118.548 96.74 118.504 97.164 118.456C97.3878 118.422 97.6137 118.403 97.84 118.4Z" fill="white"/>
<path d="M114.684 112.4C114.503 112.536 114.312 112.656 114.112 112.76C113.74 112.984 113.184 113.284 112.484 113.624C111.784 113.964 110.932 114.336 109.968 114.7C107.869 115.474 105.69 116.011 103.472 116.3C102.448 116.432 101.524 116.508 100.744 116.532C99.9635 116.556 99.3355 116.56 98.8995 116.532C98.6744 116.535 98.4496 116.517 98.2275 116.48C98.4505 116.454 98.6752 116.445 98.8995 116.452C99.3355 116.452 99.9635 116.428 100.736 116.38C101.508 116.332 102.432 116.244 103.444 116.104C104.456 115.964 105.568 115.748 106.716 115.464C107.864 115.18 108.936 114.836 109.916 114.496C110.896 114.156 111.732 113.792 112.436 113.468C113.14 113.144 113.708 112.868 114.092 112.668C114.282 112.565 114.48 112.476 114.684 112.4Z" fill="white"/>
<path d="M128.06 104.088C127.885 104.128 127.707 104.148 127.528 104.148C127.188 104.172 126.692 104.216 126.084 104.28C122.908 104.628 119.812 105.497 116.92 106.852C116.368 107.112 115.924 107.332 115.62 107.492C115.465 107.583 115.302 107.658 115.132 107.716C115.272 107.604 115.422 107.505 115.58 107.42C115.872 107.24 116.308 106.996 116.856 106.72C118.292 106.002 119.794 105.422 121.34 104.988C122.886 104.553 124.471 104.268 126.072 104.136C126.684 104.088 127.184 104.064 127.528 104.068C127.705 104.056 127.884 104.063 128.06 104.088Z" fill="white"/>
<path d="M129.892 120.86C129.717 120.871 129.541 120.863 129.368 120.836C129.032 120.804 128.548 120.764 127.948 120.728C126.387 120.624 124.821 120.624 123.26 120.728C121.7 120.84 120.149 121.053 118.616 121.364C118.028 121.484 117.552 121.592 117.224 121.668C117.055 121.717 116.883 121.751 116.708 121.768C116.865 121.694 117.03 121.638 117.2 121.6C117.52 121.496 118 121.368 118.58 121.228C121.651 120.514 124.816 120.294 127.956 120.576C128.556 120.632 129.04 120.696 129.376 120.752C129.551 120.771 129.724 120.807 129.892 120.86Z" fill="white"/>
<path d="M117.256 140.692C117.224 140.692 117.412 140.108 117.62 139.16C117.888 137.926 118.022 136.667 118.02 135.404C118.007 134.142 117.856 132.885 117.568 131.656C117.348 130.712 117.144 130.144 117.168 130.132C117.245 130.256 117.304 130.391 117.344 130.532C117.444 130.784 117.568 131.16 117.7 131.632C118.364 134.108 118.384 136.713 117.76 139.2C117.669 139.575 117.557 139.945 117.424 140.308C117.386 140.443 117.329 140.572 117.256 140.692Z" fill="white"/>
<path d="M78.7516 126.764C78.3704 126.824 77.9854 126.856 77.5996 126.86C76.6744 126.926 75.7531 127.039 74.8396 127.2C73.9263 127.366 73.0224 127.579 72.1316 127.84C71.7673 127.97 71.3944 128.074 71.0156 128.152C71.3555 127.963 71.7149 127.812 72.0876 127.7C73.8635 127.091 75.7227 126.759 77.5996 126.716C77.9842 126.689 78.3707 126.705 78.7516 126.764Z" fill="white"/>
<path d="M81.5563 143.56C81.5563 143.56 81.5043 143.56 81.4043 143.56C81.2591 143.569 81.1135 143.569 80.9683 143.56C80.4319 143.518 79.902 143.416 79.3883 143.256C77.6664 142.746 76.1714 141.661 75.1524 140.182C74.1334 138.703 73.652 136.919 73.7883 135.128C73.821 134.586 73.9149 134.049 74.0683 133.528C74.1083 133.393 74.155 133.259 74.2083 133.128C74.2222 133.078 74.2453 133.03 74.2763 132.988C74.0993 133.691 73.9855 134.409 73.9363 135.132C73.8384 136.887 74.3258 138.625 75.3219 140.072C76.318 141.52 77.7666 142.596 79.4403 143.132C80.131 143.34 80.8393 143.483 81.5563 143.56Z" fill="white"/>
<path d="M90.6522 146.188C89.3672 145.971 88.0947 145.685 86.8402 145.332C85.568 145.044 84.3117 144.691 83.0762 144.272C84.3624 144.49 85.6362 144.776 86.8922 145.128C88.1629 145.417 89.4179 145.771 90.6522 146.188Z" fill="white"/>
<path d="M112.02 142.244C111.856 142.352 111.684 142.445 111.504 142.524C111.168 142.696 110.672 142.924 110.056 143.2C108.442 143.907 106.786 144.512 105.096 145.012C103.409 145.516 101.692 145.917 99.9561 146.212C99.2921 146.324 98.7561 146.4 98.3761 146.44C98.1816 146.47 97.9849 146.485 97.7881 146.484C97.9753 146.423 98.1683 146.382 98.3641 146.36C98.7321 146.296 99.2721 146.196 99.9321 146.068C101.252 145.812 103.068 145.404 105.04 144.816C107.012 144.228 108.752 143.58 109.996 143.072C110.62 142.816 111.124 142.604 111.468 142.456C111.644 142.365 111.829 142.294 112.02 142.244Z" fill="white"/>
<path d="M97.8235 130.849C97.6756 130.913 97.5214 130.961 97.3635 130.993C97.0635 131.077 96.6195 131.177 96.0715 131.281C94.6396 131.54 93.1867 131.666 91.7315 131.657C90.2756 131.649 88.8238 131.503 87.3955 131.221C86.8475 131.113 86.4075 131.009 86.1075 130.921C85.9484 130.889 85.7939 130.838 85.6475 130.769C85.8096 130.775 85.9705 130.8 86.1275 130.841C86.4315 130.905 86.8715 130.989 87.4195 131.077C88.845 131.312 90.2866 131.437 91.7315 131.449C93.1761 131.454 94.619 131.348 96.0475 131.133C96.5955 131.053 97.0395 130.973 97.3435 130.917C97.5003 130.876 97.6614 130.853 97.8235 130.849Z" fill="white"/>
<path d="M104.112 130.912C103.886 131.056 103.637 131.161 103.376 131.224C102.761 131.413 102.126 131.533 101.484 131.58C100.842 131.628 100.196 131.601 99.5601 131.5C99.2934 131.477 99.0325 131.409 98.7881 131.3C99.6792 131.377 100.574 131.401 101.468 131.372C102.358 131.271 103.241 131.118 104.112 130.912Z" fill="white"/>
<path d="M90.2242 96.5239C90.2242 96.5599 89.6522 96.6199 88.7362 96.7759C87.5404 96.9711 86.3591 97.2463 85.2002 97.5999C84.0449 97.9615 82.9144 98.3984 81.8162 98.9079C80.9722 99.3079 80.4642 99.5719 80.4482 99.5439C80.5487 99.4511 80.6618 99.373 80.7842 99.3119C81.0042 99.1719 81.3362 98.9879 81.7522 98.7759C83.9311 97.6661 86.2836 96.9369 88.7082 96.6199C89.1722 96.5639 89.5482 96.5279 89.8122 96.5159C89.9494 96.5029 90.0877 96.5056 90.2242 96.5239Z" fill="white"/>
<path d="M92.9244 98.1202C92.615 99.7416 92.0321 101.298 91.2004 102.724C91.1484 102.696 91.6004 101.692 92.0724 100.424C92.5444 99.1562 92.8644 98.1082 92.9244 98.1202Z" fill="white"/>
<path d="M105.484 101.052C105.544 101.052 105.272 102.396 105.084 104.06C104.896 105.724 104.876 107.08 104.812 107.08C104.756 106.786 104.737 106.486 104.756 106.188C104.759 105.469 104.801 104.75 104.88 104.036C104.956 103.322 105.072 102.613 105.228 101.912C105.277 101.616 105.363 101.327 105.484 101.052Z" fill="white"/>
<path d="M110.268 101.2C110.208 101.2 109.988 100.512 109.524 99.7444C109.06 98.9764 108.544 98.4444 108.588 98.4004C109.058 98.7114 109.442 99.1367 109.704 99.6364C110.022 100.101 110.216 100.639 110.268 101.2Z" fill="white"/>
<path d="M82.0278 127.2C82.2606 125.895 82.2471 124.559 81.9878 123.26C81.7921 122.483 81.7285 121.678 81.7998 120.88C81.9158 120.08 82.5998 119.24 83.3998 119.28L84.8358 124.956L82.0278 127.2Z" fill="#FFBE9D"/>
<path d="M82 113.724L87.08 133.792L97.008 132.752L93.2 112.848C93.1466 112.596 93.004 112.371 92.7982 112.215C92.5925 112.06 92.3375 111.983 92.08 112L82.992 112.4C82.8346 112.409 82.6809 112.452 82.5419 112.527C82.4029 112.601 82.2819 112.705 82.1874 112.831C82.0928 112.957 82.0271 113.103 81.9947 113.257C81.9623 113.411 81.9641 113.571 82 113.724Z" fill="#263238"/>
<path d="M93.4198 118.496C93.3415 118.306 93.2813 118.109 93.2398 117.908L92.8398 116.284C92.6718 115.584 92.4758 114.768 92.2638 113.884C92.2318 113.772 92.2118 113.644 92.1758 113.556C92.1358 113.458 92.071 113.373 91.9878 113.308C91.9049 113.24 91.8056 113.194 91.6998 113.176C91.5828 113.164 91.4648 113.164 91.3478 113.176L89.7758 113.236C87.6198 113.32 85.6678 113.38 84.2558 113.416L82.5838 113.448C82.3789 113.467 82.1727 113.467 81.9678 113.448C82.1697 113.41 82.3744 113.389 82.5798 113.384L84.2478 113.288C85.6598 113.216 87.6118 113.132 89.7678 113.048L91.3398 112.992C91.4727 112.978 91.6068 112.978 91.7398 112.992C91.8789 113.019 92.0093 113.079 92.1198 113.168C92.2254 113.256 92.3078 113.369 92.3598 113.496C92.3993 113.614 92.43 113.734 92.4518 113.856L92.9878 116.28C93.1238 116.944 93.2398 117.48 93.3278 117.916C93.3726 118.107 93.4034 118.301 93.4198 118.496Z" fill="#455A64"/>
<path d="M87.9039 114.312C87.8608 114.213 87.7861 114.131 87.6914 114.078C87.5967 114.026 87.4873 114.006 87.3802 114.022C87.2731 114.038 87.1743 114.089 87.099 114.167C87.0238 114.244 86.9763 114.345 86.9639 114.452C86.9625 114.554 86.9894 114.654 87.0417 114.741C87.094 114.828 87.1696 114.898 87.2599 114.944C87.3506 114.99 87.453 115.007 87.5537 114.994C87.6543 114.98 87.7485 114.936 87.8239 114.868C87.8956 114.797 87.9422 114.704 87.9566 114.604C87.9711 114.504 87.9526 114.401 87.9039 114.312Z" fill="#FAFAFA"/>
<path d="M87.8961 120.432C87.6721 120.5 82.5201 123.448 82.5201 123.448L79.9001 126.464C79.9001 126.464 78.9801 128.188 79.9001 130.768C80.8201 133.348 82.1681 134.212 85.2281 134.828L90.9121 133.676L94.9121 131.184L93.7321 126.66L89.7961 129.808L87.5681 130.208L87.2001 129.488L90.4001 127.64L95.4241 123.392L93.8521 121.688L89.2001 124.696L85.2001 126.66L85.7721 125.024L90.4001 121.284C90.4001 121.284 90.7161 119.6 87.8961 120.432Z" fill="#FFBE9D"/>
<path d="M88.2797 117.636C88.2797 117.636 89.3477 116.96 91.2037 117.636C93.0597 118.312 95.4357 119.348 95.4357 119.348L98.9717 120.196L98.5237 119.348C98.5237 119.348 95.0877 119.848 95.1437 117.348H97.2277L98.9717 116.356L102.632 119.62L104.264 123.728L106.516 125.444L103.772 132.456L97.9597 131.496L93.0077 132L90.3997 130.072L89.9997 127.512L87.4397 125.112C87.4397 125.112 87.0717 123.872 88.1997 123.704C89.3277 123.536 92.1637 126.104 92.1637 126.104L94.8957 126.052C94.8957 126.052 95.3477 125.604 94.9517 125.376C94.5557 125.148 86.3397 121.548 85.9477 120.676C85.5557 119.804 85.1477 119.244 85.9477 118.96C86.7477 118.676 88.0877 119.072 88.0877 119.072C88.0877 119.072 87.6797 117.852 88.2797 117.636Z" fill="#FFBE9D"/>
<path d="M95.144 122.284C93.8993 121.844 92.6789 121.338 91.488 120.768C90.2683 120.264 89.0759 119.695 87.916 119.064C89.1604 119.505 90.3808 120.011 91.572 120.58C92.7918 121.085 93.9841 121.654 95.144 122.284Z" fill="#EB996E"/>
<path d="M97.0442 128.641C96.9167 128.705 96.7826 128.754 96.6442 128.789C96.3802 128.869 95.9962 128.985 95.5122 129.093C94.9415 129.223 94.3577 129.289 93.7722 129.289C93.0481 129.28 92.3345 129.115 91.6802 128.805C90.5147 128.219 89.4899 127.388 88.6762 126.369C88.3562 125.993 88.1082 125.677 87.9442 125.453C87.8496 125.344 87.7678 125.224 87.7002 125.097C88.081 125.47 88.4428 125.863 88.7842 126.273C89.6145 127.242 90.627 128.038 91.7642 128.617C92.3918 128.91 93.072 129.073 93.7642 129.097C94.3371 129.106 94.9095 129.057 95.4722 128.949C96.4442 128.765 97.0362 128.605 97.0442 128.641Z" fill="#EB996E"/>
<path d="M106.516 125.428L106.364 125.328L105.924 125.004L104.24 123.744C103.808 122.676 103.252 121.292 102.588 119.644V119.664L98.9241 116.4H99.0121L97.2681 117.4H95.1641L95.2481 117.32C95.2375 117.67 95.3218 118.015 95.4921 118.32C95.6845 118.622 95.9632 118.859 96.2921 119C97.0039 119.267 97.7714 119.351 98.5241 119.244H98.5921L98.6201 119.296C98.7601 119.556 98.9121 119.848 99.0721 120.144L99.1681 120.324L98.9681 120.276L95.4281 119.436C94.3321 118.964 93.1921 118.488 92.0121 118.032C91.4326 117.779 90.826 117.592 90.2041 117.476C89.5802 117.368 88.9382 117.454 88.3641 117.72C88.1761 117.784 88.1041 118.028 88.1121 118.28C88.125 118.543 88.1735 118.803 88.2561 119.052L88.3161 119.236L88.1281 119.184C87.7361 119.076 87.3339 119.009 86.9281 118.984C86.5355 118.93 86.1358 119.007 85.7921 119.204C85.7249 119.26 85.678 119.337 85.6585 119.422C85.639 119.507 85.648 119.597 85.6841 119.676C85.7462 119.875 85.8251 120.068 85.9201 120.252C85.9883 120.443 86.0869 120.621 86.2121 120.78C86.3692 120.92 86.5378 121.045 86.7161 121.156C88.1952 122.031 89.7201 122.825 91.2841 123.536L93.5601 124.6L94.6801 125.116L94.9561 125.248C95.0746 125.291 95.1748 125.373 95.2401 125.48C95.2679 125.54 95.2823 125.605 95.2823 125.67C95.2823 125.736 95.2679 125.801 95.2401 125.86C95.192 125.963 95.1271 126.056 95.0481 126.136L95.0201 126.164H94.9801L92.2481 126.216H92.2081L92.1801 126.188C91.3572 125.434 90.4607 124.764 89.5041 124.188C89.0401 123.94 88.5201 123.668 88.0521 123.856C87.94 123.896 87.8395 123.963 87.7594 124.051C87.6792 124.139 87.6217 124.245 87.5921 124.36C87.5341 124.598 87.5341 124.847 87.5921 125.084L87.5681 125.04L90.1241 127.44L90.1481 127.46V127.492C90.2787 128.375 90.4121 129.228 90.5481 130.052L90.5161 130L93.1041 131.92H93.0561L98.0121 131.432L102.312 132.168L103.436 132.368L103.72 132.424L103.816 132.444H103.72L103.432 132.404L102.304 132.232L97.9961 131.544L93.0481 132.064H93.0201H92.9961L90.4001 130.156H90.3721V130.124C90.2441 129.324 90.1121 128.448 89.9721 127.564L89.9961 127.612C89.1801 126.852 88.3254 126.052 87.4321 125.212L87.4121 125.192V125.168C87.344 124.898 87.344 124.615 87.4121 124.344C87.4513 124.198 87.5208 124.062 87.6161 123.944C87.7171 123.837 87.8417 123.755 87.9801 123.704C88.2556 123.606 88.5565 123.606 88.8321 123.704C89.0957 123.793 89.3503 123.907 89.5921 124.044C90.563 124.626 91.4729 125.304 92.3081 126.068L92.2401 126.044L94.9721 125.988L94.9001 126.016C95.0201 125.896 95.1321 125.7 95.0721 125.592C95.0121 125.484 94.7801 125.412 94.6081 125.324L93.4881 124.808L91.2121 123.748C89.6379 123.032 88.1037 122.231 86.6161 121.348C86.4275 121.231 86.2495 121.097 86.0841 120.948C85.9975 120.865 85.9294 120.764 85.8841 120.652L85.7441 120.36C85.6466 120.163 85.5651 119.959 85.5001 119.748C85.4677 119.63 85.4596 119.506 85.4761 119.384C85.5003 119.256 85.5717 119.142 85.6761 119.064C86.0592 118.831 86.5113 118.736 86.9561 118.796C87.3746 118.822 87.789 118.893 88.1921 119.008L88.0641 119.14C87.9742 118.87 87.923 118.589 87.9121 118.304C87.906 118.158 87.9278 118.011 87.9761 117.872C88.0039 117.799 88.0467 117.731 88.1018 117.675C88.1568 117.619 88.223 117.574 88.2961 117.544H88.2761C88.8904 117.251 89.5811 117.155 90.2521 117.272C90.8887 117.392 91.5099 117.583 92.1041 117.84C93.3041 118.3 94.4281 118.776 95.5281 119.256L99.0641 120.104L98.9601 120.24L98.5121 119.392L98.6041 119.44C97.8169 119.552 97.0144 119.461 96.2721 119.176C95.9115 119.019 95.6054 118.759 95.3921 118.428C95.2075 118.093 95.1163 117.715 95.1281 117.332V117.248H95.2161H97.3001H97.2601L99.0081 116.26L99.0561 116.232L99.0961 116.268L102.744 119.544L104.344 123.664L106.004 124.952L106.432 125.292L106.516 125.428Z" fill="#EB996E"/>
<path d="M38.5 70.1674L66.236 57.3594L58.96 84.4874L52.748 79.3514L48.528 82.1434L46.276 81.7154L43.94 72.9634L38.5 70.1674Z" fill="#F2575D"/>
<g opacity="0.5">
<path opacity="0.5" d="M46.3884 81.4354L66.2364 57.3594L43.9404 72.9634L46.3884 81.4354Z" fill="black"/>
</g>
<path d="M66.3199 57.0197C66.3679 57.0477 63.5199 61.9357 59.9759 67.9317C56.4319 73.9277 53.5039 78.7677 53.4519 78.7317C53.3999 78.6957 56.2519 73.8197 59.7959 67.8197C63.3399 61.8197 66.2679 56.9917 66.3199 57.0197Z" fill="#263238"/>
<path d="M57.3679 62C57.3919 62.052 53.6239 63.872 48.9679 66.064C44.3119 68.256 40.4919 69.988 40.4679 69.936C40.4439 69.884 44.2079 68.064 48.8679 65.872C53.5279 63.68 57.3439 61.932 57.3679 62Z" fill="white"/>
<path d="M59.384 61.1553C59.408 61.2073 59.244 61.3353 59.016 61.4393C58.788 61.5433 58.5839 61.5833 58.5599 61.5313C58.5359 61.4793 58.7 61.3553 58.928 61.2473C59.156 61.1393 59.36 61.1033 59.384 61.1553Z" fill="white"/>
<path d="M58.5123 71.3916C58.3642 71.7963 58.1781 72.1861 57.9563 72.5556C57.5803 73.2556 57.0323 74.2076 56.3803 75.2276C55.7283 76.2476 55.0843 77.1436 54.6043 77.7756C54.3588 78.1282 54.0831 78.4588 53.7803 78.7636C53.9868 78.3873 54.2222 78.0276 54.4843 77.6876C54.9323 77.0356 55.5483 76.1316 56.2043 75.1156C56.8603 74.0996 57.4043 73.1596 57.8283 72.4796C58.0328 72.1027 58.2613 71.7393 58.5123 71.3916Z" fill="white"/>
<path d="M43.7765 83.4517C43.7485 83.3997 44.0045 83.2077 44.3645 83.0517C44.7245 82.8957 45.0365 82.8277 45.0565 82.8837C45.0765 82.9397 44.7965 83.0837 44.4485 83.2397C44.1005 83.3957 43.8045 83.5037 43.7765 83.4517Z" fill="#263238"/>
<path d="M39.7119 87.0913C40.119 86.2527 40.7451 85.5396 41.5239 85.0273C41.2606 85.4031 40.9634 85.7539 40.6359 86.0753C40.3593 86.4413 40.0501 86.7814 39.7119 87.0913Z" fill="#263238"/>
<path d="M37.7322 92.1716C37.6888 91.7068 37.7433 91.2381 37.8922 90.7956C37.9753 90.3363 38.1553 89.8999 38.4202 89.5156C38.3485 89.9677 38.2402 90.4131 38.0962 90.8476C38.0143 91.2989 37.8925 91.7419 37.7322 92.1716Z" fill="#263238"/>
<path d="M38.4645 97.5679C38.1976 97.1844 38.0125 96.75 37.9205 96.2919C37.7644 95.8524 37.7044 95.3846 37.7445 94.9199C37.9082 95.3481 38.0341 95.7898 38.1205 96.2399C38.2768 96.6708 38.392 97.1154 38.4645 97.5679Z" fill="#263238"/>
<path d="M41.6441 102C41.2345 101.778 40.875 101.475 40.5881 101.108C40.2435 100.789 39.9708 100.4 39.7881 99.9678C40.1315 100.272 40.4461 100.606 40.7281 100.968C41.0642 101.283 41.3708 101.629 41.6441 102Z" fill="#263238"/>
<path d="M46.4998 104.468C46.4998 104.496 46.3398 104.468 46.0998 104.444C45.7764 104.393 45.4588 104.31 45.1518 104.196C44.7008 104.07 44.2819 103.849 43.9238 103.548C44.3607 103.664 44.7875 103.815 45.1998 104C45.5518 104.128 45.8798 104.228 46.1158 104.3C46.3518 104.372 46.5078 104.44 46.4998 104.468Z" fill="#263238"/>
<path d="M51.8161 103.656C51.4875 103.994 51.0725 104.236 50.6161 104.356C50.1831 104.538 49.7119 104.611 49.2441 104.568C49.2441 104.508 49.8441 104.404 50.5481 104.168C51.2521 103.932 51.7801 103.6 51.8161 103.656Z" fill="#263238"/>
<path d="M53.7127 98.8555C53.9132 99.2845 53.9881 99.7616 53.9287 100.231C53.9306 100.707 53.7913 101.172 53.5287 101.567C53.4687 101.543 53.6687 100.963 53.7087 100.219C53.7487 99.4755 53.6527 98.8715 53.7127 98.8555Z" fill="#263238"/>
<path d="M50.4004 94.7354C50.8671 94.8146 51.3015 95.0255 51.6524 95.3434C52.045 95.6044 52.3601 95.9664 52.5644 96.3913C52.5164 96.4313 52.1164 95.9633 51.5284 95.5074C50.9404 95.0514 50.3604 94.7994 50.4004 94.7354Z" fill="#263238"/>
<path d="M45.0283 94.9636C45.4057 94.6851 45.8424 94.4975 46.3043 94.4156C46.749 94.2692 47.2223 94.2322 47.6843 94.3076C47.2464 94.4362 46.8018 94.5404 46.3523 94.6196C45.9192 94.7639 45.4769 94.8788 45.0283 94.9636Z" fill="#263238"/>
<path d="M41.0127 98.5961C41.1542 98.15 41.3917 97.7404 41.7087 97.3961C41.9904 97.0249 42.3358 96.7066 42.7287 96.4561C42.4881 96.8469 42.2006 97.2069 41.8727 97.5281C41.6155 97.9068 41.3279 98.264 41.0127 98.5961Z" fill="#263238"/>
<path d="M39.3601 103.803C39.3226 102.874 39.5121 101.95 39.9121 101.111C39.8794 101.57 39.8003 102.024 39.6761 102.467C39.621 102.923 39.515 103.371 39.3601 103.803Z" fill="#263238"/>
<path d="M39.5447 109.288C39.2511 108.408 39.1542 107.474 39.2607 106.552C39.3775 106.998 39.4433 107.455 39.4567 107.916C39.5388 108.368 39.5683 108.829 39.5447 109.288Z" fill="#263238"/>
<path d="M41.1764 114.528C40.8933 114.159 40.6792 113.741 40.5444 113.296C40.3468 112.876 40.2275 112.423 40.1924 111.96C40.4238 112.358 40.6078 112.783 40.7404 113.224C40.9352 113.64 41.0815 114.078 41.1764 114.528Z" fill="#263238"/>
<path d="M44.0398 119.2C43.678 118.909 43.3718 118.556 43.1358 118.156C42.8418 117.8 42.6154 117.393 42.4678 116.956C42.7879 117.286 43.0684 117.653 43.3038 118.048C43.5948 118.401 43.842 118.788 44.0398 119.2Z" fill="#263238"/>
<path d="M47.952 123.068C47.5275 122.873 47.1425 122.602 46.816 122.268C46.4447 121.988 46.1264 121.644 45.876 121.252C46.2695 121.494 46.6322 121.783 46.956 122.112C47.3252 122.389 47.6596 122.71 47.952 123.068Z" fill="#263238"/>
<path d="M52.7043 125.808C52.2455 125.734 51.8046 125.576 51.4043 125.34C50.9725 125.166 50.5766 124.913 50.2363 124.596C50.6758 124.733 51.0985 124.92 51.4963 125.152C51.9214 125.326 52.3264 125.546 52.7043 125.808Z" fill="#263238"/>
<path d="M58.068 126.884C57.6123 126.979 57.1428 126.987 56.684 126.908C56.2179 126.898 55.7584 126.796 55.332 126.608C55.7913 126.592 56.251 126.622 56.704 126.7C57.1641 126.711 57.6215 126.772 58.068 126.884Z" fill="#263238"/>
<path d="M63.5284 126.324C63.1062 126.516 62.6544 126.635 62.1924 126.676C61.7418 126.782 61.2762 126.809 60.8164 126.756C61.2506 126.604 61.7021 126.507 62.1604 126.468C62.6084 126.361 63.0681 126.313 63.5284 126.324Z" fill="#263238"/>
<path d="M68.8005 124.8C68.4045 125.041 67.9743 125.22 67.5245 125.332C67.0987 125.51 66.6481 125.622 66.1885 125.664C66.5837 125.424 67.0124 125.245 67.4605 125.132C67.8888 124.957 68.3401 124.845 68.8005 124.8Z" fill="#263238"/>
<path d="M73.8562 122.592C73.4913 122.875 73.087 123.105 72.6562 123.272C72.2537 123.499 71.8196 123.665 71.3682 123.764C71.7306 123.476 72.1354 123.247 72.5682 123.084C72.9703 122.856 73.4045 122.69 73.8562 122.592Z" fill="#263238"/>
<path d="M78.6204 119.836C78.2905 120.157 77.9143 120.427 77.5044 120.636C77.13 120.909 76.7158 121.122 76.2764 121.268C76.6081 120.949 76.9839 120.68 77.3924 120.468C77.7685 120.198 78.1823 119.985 78.6204 119.836Z" fill="#263238"/>
<path d="M81.9644 117.379C82.0004 117.423 81.7844 117.655 81.4804 117.895C81.1764 118.135 80.9004 118.296 80.8684 118.248C80.8364 118.2 81.0484 117.971 81.3524 117.731C81.6564 117.491 81.9284 117.335 81.9644 117.379Z" fill="#263238"/>
<path d="M153.345 71.8621H132.655C131.741 71.8621 131 71.121 131 70.2069C131 69.2929 131.741 68.5518 132.655 68.5518H153.345C154.259 68.5518 155 69.2929 155 70.2069C155 71.1209 154.259 71.8621 153.345 71.8621Z" fill="#556080"/>
<path d="M152.517 68.5521H142.586V59.4487C142.586 58.9915 142.956 58.6211 143.414 58.6211H151.689C152.147 58.6211 152.517 58.9915 152.517 59.4487V68.5521Z" fill="#C69666"/>
<path d="M141.759 56.9653H139.276V56.554C139.276 56.3244 139.089 56.1377 138.86 56.1377H136.382C136.152 56.1377 135.965 56.3243 135.965 56.554V56.9653H133.483C133.026 56.9653 132.655 57.3357 132.655 57.7929V68.5515H142.586V57.7929C142.586 57.3357 142.216 56.9653 141.759 56.9653Z" fill="#A98258"/>
<path d="M138.778 60.6034L137.621 59.4468L136.464 60.6034C136.28 60.7875 135.966 60.6572 135.966 60.3969V56.554C135.966 56.3244 136.152 56.1377 136.382 56.1377H138.86C139.09 56.1377 139.276 56.3243 139.276 56.554V60.3969C139.276 60.6571 138.962 60.7875 138.778 60.6034Z" fill="#E8D5B2"/>
<path d="M147.139 66.8968H150.449V64.4141H147.139V66.8968Z" fill="#E8D5B2"/>
<path d="M133.483 70.2068C133.483 69.9784 133.298 69.793 133.069 69.793C132.841 69.793 132.655 69.9784 132.655 70.2068C132.655 70.4352 132.841 70.6206 133.069 70.6206C133.298 70.6206 133.483 70.4352 133.483 70.2068Z" fill="#738CBF"/>
<path d="M135.138 70.2068C135.138 69.9784 134.953 69.793 134.724 69.793C134.496 69.793 134.311 69.9784 134.311 70.2068C134.311 70.4352 134.496 70.6206 134.724 70.6206C134.953 70.6206 135.138 70.4352 135.138 70.2068Z" fill="#738CBF"/>
<path d="M136.793 70.2068C136.793 69.9784 136.608 69.793 136.38 69.793C136.151 69.793 135.966 69.9784 135.966 70.2068C135.966 70.4352 136.151 70.6206 136.38 70.6206C136.608 70.6206 136.793 70.4352 136.793 70.2068Z" fill="#738CBF"/>
<path d="M138.449 70.2068C138.449 69.9784 138.263 69.793 138.035 69.793C137.806 69.793 137.621 69.9784 137.621 70.2068C137.621 70.4352 137.806 70.6206 138.035 70.6206C138.263 70.6206 138.449 70.4352 138.449 70.2068Z" fill="#738CBF"/>
<path d="M140.104 70.2068C140.104 69.9784 139.919 69.793 139.69 69.793C139.462 69.793 139.276 69.9784 139.276 70.2068C139.276 70.4352 139.462 70.6206 139.69 70.6206C139.919 70.6206 140.104 70.4352 140.104 70.2068Z" fill="#738CBF"/>
<path d="M141.758 70.2068C141.758 69.9784 141.573 69.793 141.344 69.793C141.116 69.793 140.931 69.9784 140.931 70.2068C140.931 70.4352 141.116 70.6206 141.344 70.6206C141.573 70.6206 141.758 70.4352 141.758 70.2068Z" fill="#738CBF"/>
<path d="M143.414 70.2068C143.414 69.9784 143.228 69.793 143 69.793C142.771 69.793 142.586 69.9784 142.586 70.2068C142.586 70.4352 142.771 70.6206 143 70.6206C143.228 70.6206 143.414 70.4352 143.414 70.2068Z" fill="#738CBF"/>
<path d="M145.069 70.2068C145.069 69.9784 144.883 69.793 144.655 69.793C144.427 69.793 144.241 69.9784 144.241 70.2068C144.241 70.4352 144.427 70.6206 144.655 70.6206C144.883 70.6206 145.069 70.4352 145.069 70.2068Z" fill="#738CBF"/>
<path d="M146.724 70.2068C146.724 69.9784 146.539 69.793 146.31 69.793C146.082 69.793 145.896 69.9784 145.896 70.2068C145.896 70.4352 146.082 70.6206 146.31 70.6206C146.539 70.6206 146.724 70.4352 146.724 70.2068Z" fill="#738CBF"/>
<path d="M148.379 70.2068C148.379 69.9784 148.194 69.793 147.966 69.793C147.737 69.793 147.552 69.9784 147.552 70.2068C147.552 70.4352 147.737 70.6206 147.966 70.6206C148.194 70.6206 148.379 70.4352 148.379 70.2068Z" fill="#738CBF"/>
<path d="M150.035 70.2068C150.035 69.9784 149.849 69.793 149.621 69.793C149.392 69.793 149.207 69.9784 149.207 70.2068C149.207 70.4352 149.392 70.6206 149.621 70.6206C149.849 70.6206 150.035 70.4352 150.035 70.2068Z" fill="#738CBF"/>
<path d="M151.69 70.2068C151.69 69.9784 151.505 69.793 151.276 69.793C151.048 69.793 150.862 69.9784 150.862 70.2068C150.862 70.4352 151.048 70.6206 151.276 70.6206C151.505 70.6206 151.69 70.4352 151.69 70.2068Z" fill="#738CBF"/>
<path d="M153.345 70.2068C153.345 69.9784 153.16 69.793 152.931 69.793C152.703 69.793 152.518 69.9784 152.518 70.2068C152.518 70.4352 152.703 70.6206 152.931 70.6206C153.16 70.6206 153.345 70.4352 153.345 70.2068Z" fill="#738CBF"/>
<path d="M114.666 19.5703H97.333V22.7703H114.666V19.5703Z" fill="#B4A990"/>
<path d="M96 22.3262V32.2902L106.002 35.6904L116 34.6458V22.3262H96Z" fill="#F0E6D1"/>
<path d="M107.741 30.7428C107.871 30.6126 107.871 30.4016 107.741 30.2714C107.61 30.1413 107.399 30.1413 107.269 30.2714L106.335 31.2054V28.0267C106.335 27.8425 106.186 27.6934 106.002 27.6934C105.818 27.6934 105.669 27.8426 105.669 28.0267V31.1959L104.747 30.262C104.618 30.1309 104.407 30.1294 104.276 30.2587C104.145 30.388 104.143 30.599 104.273 30.7301L105.669 32.1453V33.9118C105.669 34.096 105.818 34.2452 106.002 34.2452C106.186 34.2452 106.335 34.096 106.335 33.9118V32.164C106.339 32.1559 106.342 32.1475 106.344 32.1392L107.741 30.7428Z" fill="#B4A990"/>
<path d="M114.664 34.6456C106 34.6456 106 32.29 97.3355 32.29H96V36.43H116V34.6456H114.664Z" fill="#AE7A66"/>
<path d="M103.99 28.5277C104.672 29.2091 104.986 30.1031 104.918 30.9292C104.092 30.9982 103.197 30.6829 102.516 30.0015C101.835 29.3201 101.52 28.4261 101.588 27.6C102.415 27.5315 103.309 27.8463 103.99 28.5277Z" fill="#8AA92C"/>
<path d="M108.009 28.5277C107.328 29.2091 107.013 30.1031 107.081 30.9292C107.908 30.9982 108.802 30.6829 109.483 30.0015C110.164 29.3201 110.48 28.4261 110.411 27.6C109.585 27.5315 108.691 27.8463 108.009 28.5277Z" fill="#8AA92C"/>
<path d="M106.002 23.7012C106.758 24.3408 107.247 25.3621 107.247 26.5125C107.247 27.6633 106.758 28.6841 106.002 29.3243C105.247 28.6841 104.758 27.6633 104.758 26.5125C104.758 25.3621 105.247 24.3408 106.002 23.7012Z" fill="#668018"/>
</svg>
