<svg width="40" height="40" viewBox="0 0 40 40" fill="none" xmlns="http://www.w3.org/2000/svg">
<rect width="40" height="40" rx="20" fill="#FFF7DD"/>
<path d="M31 16C31 17.1 30.1 18 29 18C28.82 18 28.65 17.98 28.49 17.93L24.93 21.48C24.98 21.64 25 21.82 25 22C25 23.1 24.1 24 23 24C21.9 24 21 23.1 21 22C21 21.82 21.02 21.64 21.07 21.48L18.52 18.93C18.36 18.98 18.18 19 18 19C17.82 19 17.64 18.98 17.48 18.93L12.93 23.49C12.98 23.65 13 23.82 13 24C13 25.1 12.1 26 11 26C9.9 26 9 25.1 9 24C9 22.9 9.9 22 11 22C11.18 22 11.35 22.02 11.51 22.07L16.07 17.52C16.02 17.36 16 17.18 16 17C16 15.9 16.9 15 18 15C19.1 15 20 15.9 20 17C20 17.18 19.98 17.36 19.93 17.52L22.48 20.07C22.64 20.02 22.82 20 23 20C23.18 20 23.36 20.02 23.52 20.07L27.07 16.51C27.02 16.35 27 16.18 27 16C27 14.9 27.9 14 29 14C30.1 14 31 14.9 31 16Z" fill="#F2C94C"/>
</svg>
