<svg width="48" height="48" viewBox="0 0 48 48" fill="none" xmlns="http://www.w3.org/2000/svg">
<path d="M0 24C0 10.7452 10.7452 0 24 0C37.2548 0 48 10.7452 48 24C48 37.2548 37.2548 48 24 48C10.7452 48 0 37.2548 0 24Z" fill="#FCE8E8"/>
<path d="M28.5 24C29.88 24 30.99 22.88 30.99 21.5C30.99 20.12 29.88 19 28.5 19C27.12 19 26 20.12 26 21.5C26 22.88 27.12 24 28.5 24ZM21 23C22.66 23 23.99 21.66 23.99 20C23.99 18.34 22.66 17 21 17C19.34 17 18 18.34 18 20C18 21.66 19.34 23 21 23ZM28.5 26C26.67 26 23 26.92 23 28.75V31H34V28.75C34 26.92 30.33 26 28.5 26ZM21 25C18.67 25 14 26.17 14 28.5V31H21V28.75C21 27.9 21.33 26.41 23.37 25.28C22.5 25.1 21.66 25 21 25Z" fill="#E93821"/>
</svg>
