<svg width="28" height="25" viewBox="0 0 28 25" fill="none" xmlns="http://www.w3.org/2000/svg">
<path opacity="0.9" fill-rule="evenodd" clip-rule="evenodd" d="M15.9575 7.73119L11.6961 7.11546L12.507 9.88657L16.6333 10.0002L16.4473 8.94191C16.2398 8.56215 16.0745 8.15644 15.9575 7.73119ZM20.8658 20.377C22.0155 20.377 22.9477 21.3004 22.9477 22.4384C22.9477 23.5771 22.0155 24.5 20.8658 24.5C19.7162 24.5 18.7838 23.5771 18.7838 22.4384C18.7838 21.3004 19.7162 20.377 20.8658 20.377ZM21.1778 22.1298C20.901 21.8556 20.4246 22.0499 20.4246 22.4384C20.4246 22.8271 20.901 23.0214 21.1778 22.7476C21.3501 22.577 21.3501 22.3001 21.1778 22.1298ZM11.1499 20.377C12.2995 20.377 13.2319 21.3004 13.2319 22.4384C13.2319 23.5771 12.2994 24.5 11.1499 24.5C10.0002 24.5 9.06785 23.5771 9.06785 22.4384C9.06785 21.3004 10.0002 20.377 11.1499 20.377ZM11.4618 22.1298C11.185 21.8556 10.7088 22.0499 10.7088 22.4384C10.7088 22.8271 11.1851 23.0214 11.4618 22.7476C11.634 22.577 11.634 22.3001 11.4618 22.1298ZM18.487 11.0859L19.0194 14.1161C20.3087 13.7747 21.4071 12.9836 22.1282 11.9149C20.8238 12.0471 19.5522 11.7415 18.487 11.0859ZM24.2738 11.2619C23.3964 13.7311 21.1904 15.5154 18.5157 15.862L9.80387 16.9905C9.36276 17.0934 9.13639 17.6017 9.38897 18.0005C9.52694 18.2181 9.73708 18.329 9.99931 18.329H22.8554C23.3084 18.329 23.6757 18.6928 23.6757 19.1414C23.6757 19.5901 23.3084 19.9538 22.8554 19.9538H9.99931C8.28883 19.9538 7.13582 18.2063 7.87075 16.6655C7.96759 16.4628 8.08801 16.2806 8.22916 16.1203L3.9955 5.8006L2.96873 5.06455C2.05272 5.55029 0.919893 5.26642 0.342456 4.41461C-0.279071 3.49807 -0.0307674 2.25673 0.894229 1.64187C1.81988 1.02657 3.07336 1.27243 3.69433 2.18821C4.00066 2.64018 4.11976 3.22355 3.97839 3.78563L4.98433 4.5067L15.7562 6.06307C15.8415 2.97671 18.3957 0.5 21.5335 0.5C23.1299 0.5 24.5756 1.14114 25.6215 2.17757L26.5995 1.2089C26.92 0.8917 27.4395 0.8917 27.7598 1.2089C28.0801 1.526 28.0801 2.04041 27.7598 2.35751L26.6138 3.4921C28.1414 6.27222 27.0875 9.75843 24.2738 11.2619ZM19.1206 6.51395C18.8003 6.19664 18.8003 5.68245 19.1206 5.36503C19.4408 5.04782 19.9604 5.04782 20.2805 5.36503L21.3414 6.41535L24.4613 3.32606C22.8826 1.70985 20.1938 1.75329 18.6068 3.32476C16.9909 4.92479 16.9909 7.51976 18.6068 9.12011C20.2232 10.7202 22.8439 10.7202 24.4599 9.12011C25.6636 7.92861 25.9704 6.18567 25.3817 4.71205L21.9215 8.13831C21.6012 8.45562 21.0817 8.45562 20.7616 8.13831L19.1206 6.51395ZM2.33579 3.08954C2.15406 2.82142 1.71218 2.8881 1.64484 3.22746C1.57662 3.57192 1.96103 3.79595 2.23248 3.61568C2.405 3.501 2.45095 3.2596 2.33579 3.08954ZM9.69014 15.3697C10.5555 15.2816 11.4453 15.145 12.3106 15.0326L11.2689 11.4719L8.05467 11.3834L9.69014 15.3697ZM12.9847 11.5191L13.9509 14.8204L17.4015 14.3734L16.919 11.6273L12.9847 11.5191ZM7.38258 9.74529L10.7909 9.83911L9.91881 6.85863L5.96394 6.28699L7.38258 9.74529Z" fill="#6E7191"/>
</svg>
